G04 #@! TF.GenerationSoftware,KiCad,Pcbnew,7.0.1-0*
G04 #@! TF.CreationDate,2023-08-24T16:50:40+09:00*
G04 #@! TF.ProjectId,PCB_QAL,5043425f-5141-44c2-9e6b-696361645f70,rev?*
G04 #@! TF.SameCoordinates,Original*
G04 #@! TF.FileFunction,Soldermask,Top*
G04 #@! TF.FilePolarity,Negative*
%FSLAX46Y46*%
G04 Gerber Fmt 4.6, Leading zero omitted, Abs format (unit mm)*
G04 Created by KiCad (PCBNEW 7.0.1-0) date 2023-08-24 16:50:40*
%MOMM*%
%LPD*%
G01*
G04 APERTURE LIST*
G04 Aperture macros list*
%AMRoundRect*
0 Rectangle with rounded corners*
0 $1 Rounding radius*
0 $2 $3 $4 $5 $6 $7 $8 $9 X,Y pos of 4 corners*
0 Add a 4 corners polygon primitive as box body*
4,1,4,$2,$3,$4,$5,$6,$7,$8,$9,$2,$3,0*
0 Add four circle primitives for the rounded corners*
1,1,$1+$1,$2,$3*
1,1,$1+$1,$4,$5*
1,1,$1+$1,$6,$7*
1,1,$1+$1,$8,$9*
0 Add four rect primitives between the rounded corners*
20,1,$1+$1,$2,$3,$4,$5,0*
20,1,$1+$1,$4,$5,$6,$7,0*
20,1,$1+$1,$6,$7,$8,$9,0*
20,1,$1+$1,$8,$9,$2,$3,0*%
G04 Aperture macros list end*
%ADD10C,2.002000*%
%ADD11C,3.102000*%
%ADD12C,4.202000*%
%ADD13RoundRect,0.051000X0.698500X0.698500X-0.698500X0.698500X-0.698500X-0.698500X0.698500X-0.698500X0*%
%ADD14RoundRect,0.051000X0.650000X0.475000X-0.650000X0.475000X-0.650000X-0.475000X0.650000X-0.475000X0*%
%ADD15C,1.499000*%
%ADD16C,1.626000*%
G04 APERTURE END LIST*
D10*
X-248678475Y111224267D03*
D11*
X-246138475Y106144267D03*
D12*
X-243598475Y111224267D03*
D11*
X-239788475Y108684267D03*
D10*
X-238518475Y111224267D03*
X-227915044Y111049604D03*
D11*
X-226106762Y105665543D03*
D12*
X-222884482Y110342605D03*
D11*
X-219465060Y107297075D03*
D10*
X-217853920Y109635606D03*
X-209050437Y108398356D03*
D11*
X-207242155Y103014295D03*
D12*
X-204019875Y107691357D03*
D11*
X-200600453Y104645827D03*
D10*
X-198989313Y106984358D03*
X-190185831Y105747109D03*
D11*
X-188377549Y100363048D03*
D12*
X-185155269Y105040110D03*
D11*
X-181735847Y101994580D03*
D10*
X-180124707Y104333111D03*
X-171321224Y103095861D03*
D11*
X-169512942Y97711800D03*
D12*
X-166290662Y102388862D03*
D11*
X-162871240Y99343332D03*
D10*
X-161260100Y101681863D03*
X-137385994Y101244813D03*
D11*
X-134163714Y96567751D03*
D12*
X-132355432Y101951812D03*
D11*
X-128229011Y99966781D03*
D10*
X-127324870Y102658811D03*
X-118521387Y103896060D03*
D11*
X-115299107Y99218998D03*
D12*
X-113490825Y104603059D03*
D11*
X-109364404Y102618028D03*
D10*
X-108460263Y105310058D03*
X-99656781Y106547308D03*
D11*
X-96434501Y101870246D03*
D12*
X-94626219Y107254307D03*
D11*
X-90499798Y105269276D03*
D10*
X-89595657Y107961306D03*
X-80792174Y109198556D03*
D11*
X-77569894Y104521494D03*
D12*
X-75761612Y109905555D03*
D11*
X-71635191Y107920524D03*
D10*
X-70731050Y110612554D03*
X-206985533Y88870938D03*
D11*
X-205177251Y83486877D03*
D12*
X-201954971Y88163939D03*
D11*
X-198535549Y85118409D03*
D10*
X-196924409Y87456940D03*
X-188120926Y86219690D03*
D11*
X-186312644Y80835629D03*
D12*
X-183090364Y85512691D03*
D11*
X-179670942Y82467161D03*
D10*
X-178059802Y84805692D03*
X-169256320Y83568443D03*
D11*
X-167448038Y78184382D03*
D12*
X-164225758Y82861444D03*
D11*
X-160806336Y79815914D03*
D10*
X-159195196Y82154445D03*
X-130018595Y83043018D03*
D11*
X-126796315Y78365956D03*
D12*
X-124988033Y83750017D03*
D11*
X-120861612Y81764986D03*
D10*
X-119957471Y84457016D03*
X-111153988Y85694266D03*
D11*
X-107931708Y81017204D03*
D12*
X-106123426Y86401265D03*
D11*
X-101997005Y84416234D03*
D10*
X-101092864Y87108264D03*
X-92289381Y88345513D03*
D11*
X-89067101Y83668451D03*
D12*
X-87258819Y89052512D03*
D11*
X-83132398Y87067481D03*
D10*
X-82228257Y89759511D03*
X-73424775Y90996761D03*
D11*
X-70202495Y86319699D03*
D12*
X-68394213Y91703760D03*
D11*
X-64267792Y89718729D03*
D10*
X-63363651Y92410759D03*
X-52653975Y92174266D03*
D11*
X-50113975Y87094266D03*
D12*
X-47573975Y92174266D03*
D11*
X-43763975Y89634266D03*
D10*
X-42493975Y92174266D03*
X-219069084Y71331955D03*
D11*
X-217260802Y65947894D03*
D12*
X-214038522Y70624956D03*
D11*
X-210619100Y67579426D03*
D10*
X-209007960Y69917957D03*
X-200204477Y68680707D03*
D11*
X-198396195Y63296646D03*
D12*
X-195173915Y67973708D03*
D11*
X-191754493Y64928178D03*
D10*
X-190143353Y67266709D03*
X-181339871Y66029460D03*
D11*
X-179531589Y60645399D03*
D12*
X-176309309Y65322461D03*
D11*
X-172889887Y62276931D03*
D10*
X-171278747Y64615462D03*
X-162475264Y63378212D03*
D11*
X-160666982Y57994151D03*
D12*
X-157444702Y62671213D03*
D11*
X-154025280Y59625683D03*
D10*
X-152414140Y61964214D03*
X-57702475Y111224267D03*
D11*
X-55162475Y106144267D03*
D12*
X-52622475Y111224267D03*
D11*
X-48812475Y108684267D03*
D10*
X-47542475Y111224267D03*
X-248964475Y92174266D03*
D11*
X-246424475Y87094266D03*
D12*
X-243884475Y92174266D03*
D11*
X-240074475Y89634266D03*
D10*
X-238804475Y92174266D03*
X-200493112Y49498321D03*
D11*
X-198684830Y44114260D03*
D12*
X-195462550Y48791322D03*
D11*
X-192043128Y45745792D03*
D10*
X-190431988Y48084323D03*
X-54748975Y73124266D03*
D11*
X-52208975Y68044266D03*
D12*
X-49668975Y73124266D03*
D11*
X-45858975Y70584266D03*
D10*
X-44588975Y73124266D03*
X-247058975Y73124266D03*
D11*
X-244518975Y68044266D03*
D12*
X-241978975Y73124266D03*
D11*
X-238168975Y70584266D03*
D10*
X-236898975Y73124266D03*
X-172200492Y45507788D03*
D11*
X-170392210Y40123727D03*
D12*
X-167169930Y44800789D03*
D11*
X-163750508Y41755259D03*
D10*
X-162139368Y44093790D03*
X-127073928Y44982433D03*
D11*
X-123851648Y40305371D03*
D12*
X-122043366Y45689432D03*
D11*
X-117916945Y43704401D03*
D10*
X-117012804Y46396431D03*
D13*
X-73073475Y56576266D03*
D14*
X-75108475Y56576266D03*
X-78658475Y56576266D03*
D15*
X-80693475Y56576266D03*
D13*
X-140843475Y45626266D03*
D14*
X-142878475Y45626266D03*
X-146428475Y45626266D03*
D15*
X-148463475Y45626266D03*
D10*
X-80054037Y70819267D03*
D11*
X-76831757Y66142205D03*
D12*
X-75023475Y71526266D03*
D11*
X-70897054Y69541235D03*
D10*
X-69992913Y72233265D03*
D13*
X-140843475Y37968766D03*
D14*
X-142878475Y37968766D03*
X-146428475Y37968766D03*
D15*
X-148463475Y37968766D03*
D13*
X-142238475Y75400266D03*
D14*
X-144273475Y75400266D03*
X-147823475Y75400266D03*
D15*
X-149858475Y75400266D03*
D13*
X-227563475Y45366266D03*
D14*
X-229598475Y45366266D03*
X-233148475Y45366266D03*
D15*
X-235183475Y45366266D03*
D10*
X-98944037Y68179267D03*
D11*
X-95721757Y63502205D03*
D12*
X-93913475Y68886266D03*
D11*
X-89787054Y66901235D03*
D10*
X-88882913Y69593265D03*
D13*
X-227563475Y50374266D03*
D14*
X-229598475Y50374266D03*
X-233148475Y50374266D03*
D15*
X-235183475Y50374266D03*
D13*
X-140743475Y43086266D03*
D14*
X-142778475Y43086266D03*
X-146328475Y43086266D03*
D15*
X-148363475Y43086266D03*
D13*
X-60958475Y56506266D03*
D14*
X-62993475Y56506266D03*
X-66543475Y56506266D03*
D15*
X-68578475Y56506266D03*
D13*
X-60953475Y53756266D03*
D14*
X-62988475Y53756266D03*
X-66538475Y53756266D03*
D15*
X-68573475Y53756266D03*
D13*
X-216603475Y45266266D03*
D14*
X-218638475Y45266266D03*
X-222188475Y45266266D03*
D15*
X-224223475Y45266266D03*
D10*
X-117834037Y65509267D03*
D11*
X-114611757Y60832205D03*
D12*
X-112803475Y66216266D03*
D11*
X-108677054Y64231235D03*
D10*
X-107772913Y66923265D03*
D13*
X-142213475Y80616266D03*
D14*
X-144248475Y80616266D03*
X-147798475Y80616266D03*
D15*
X-149833475Y80616266D03*
D13*
X-73103475Y48146266D03*
D14*
X-75138475Y48146266D03*
X-78688475Y48146266D03*
D15*
X-80723475Y48146266D03*
D13*
X-216598475Y58346266D03*
D14*
X-218633475Y58346266D03*
X-222183475Y58346266D03*
D15*
X-224218475Y58346266D03*
D13*
X-60953475Y45566266D03*
D14*
X-62988475Y45566266D03*
X-66538475Y45566266D03*
D15*
X-68573475Y45566266D03*
D10*
X-225864037Y91503265D03*
D11*
X-224055755Y86119204D03*
D12*
X-220833475Y90796266D03*
D11*
X-217414053Y87750736D03*
D10*
X-215802913Y90089267D03*
D13*
X-73103475Y45566266D03*
D14*
X-75138475Y45566266D03*
X-78688475Y45566266D03*
D15*
X-80723475Y45566266D03*
D10*
X-252488475Y54074267D03*
D11*
X-249948475Y48994267D03*
D12*
X-247408475Y54074267D03*
D11*
X-243598475Y51534267D03*
D10*
X-242328475Y54074267D03*
D13*
X-227533475Y57916266D03*
D14*
X-229568475Y57916266D03*
X-233118475Y57916266D03*
D15*
X-235153475Y57916266D03*
D13*
X-140783475Y40476266D03*
D14*
X-142818475Y40476266D03*
X-146368475Y40476266D03*
D15*
X-148403475Y40476266D03*
D13*
X-216603475Y55842266D03*
D14*
X-218638475Y55842266D03*
X-222188475Y55842266D03*
D15*
X-224223475Y55842266D03*
D13*
X-216603475Y47910266D03*
D14*
X-218638475Y47910266D03*
X-222188475Y47910266D03*
D15*
X-224223475Y47910266D03*
D13*
X-142153475Y87730266D03*
D14*
X-144188475Y87730266D03*
X-147738475Y87730266D03*
D15*
X-149773475Y87730266D03*
D13*
X-73028475Y59276266D03*
D14*
X-75063475Y59276266D03*
X-78613475Y59276266D03*
D15*
X-80648475Y59276266D03*
D13*
X-227563475Y55382266D03*
D14*
X-229598475Y55382266D03*
X-233148475Y55382266D03*
D15*
X-235183475Y55382266D03*
D13*
X-60878475Y59166266D03*
D14*
X-62913475Y59166266D03*
X-66463475Y59166266D03*
D15*
X-68498475Y59166266D03*
D13*
X-227563475Y52878266D03*
D14*
X-229598475Y52878266D03*
X-233148475Y52878266D03*
D15*
X-235183475Y52878266D03*
D13*
X-60953475Y48296266D03*
D14*
X-62988475Y48296266D03*
X-66538475Y48296266D03*
D15*
X-68573475Y48296266D03*
D10*
X-51701475Y54074266D03*
D11*
X-49161475Y48994266D03*
D12*
X-46621475Y54074266D03*
D11*
X-42811475Y51534266D03*
D10*
X-41541475Y54074266D03*
D13*
X-142143475Y85358933D03*
D14*
X-144178475Y85358933D03*
X-147728475Y85358933D03*
D15*
X-149763475Y85358933D03*
D13*
X-142238475Y77866266D03*
D14*
X-144273475Y77866266D03*
X-147823475Y77866266D03*
D15*
X-149858475Y77866266D03*
D13*
X-140843475Y35416266D03*
D14*
X-142878475Y35416266D03*
X-146428475Y35416266D03*
D15*
X-148463475Y35416266D03*
D13*
X-227473475Y60396266D03*
D14*
X-229508475Y60396266D03*
X-233058475Y60396266D03*
D15*
X-235093475Y60396266D03*
D13*
X-227563475Y47870266D03*
D14*
X-229598475Y47870266D03*
X-233148475Y47870266D03*
D15*
X-235183475Y47870266D03*
D13*
X-73108475Y51016266D03*
D14*
X-75143475Y51016266D03*
X-78693475Y51016266D03*
D15*
X-80728475Y51016266D03*
D10*
X-136694599Y62862268D03*
D11*
X-133472319Y58185206D03*
D12*
X-131664037Y63569267D03*
D11*
X-127537616Y61584236D03*
D10*
X-126633475Y64276266D03*
D13*
X-60953475Y51026266D03*
D14*
X-62988475Y51026266D03*
X-66538475Y51026266D03*
D15*
X-68573475Y51026266D03*
D13*
X-216603475Y50554266D03*
D14*
X-218638475Y50554266D03*
X-222188475Y50554266D03*
D15*
X-224223475Y50554266D03*
D13*
X-73178475Y53906266D03*
D14*
X-75213475Y53906266D03*
X-78763475Y53906266D03*
D15*
X-80798475Y53906266D03*
D10*
X-98746983Y48918032D03*
D11*
X-95524703Y44240970D03*
D12*
X-93716421Y49625031D03*
D11*
X-89590000Y47640000D03*
D10*
X-88685859Y50332030D03*
D13*
X-142213475Y82987600D03*
D14*
X-144248475Y82987600D03*
X-147798475Y82987600D03*
D15*
X-149833475Y82987600D03*
D13*
X-216603475Y53198266D03*
D14*
X-218638475Y53198266D03*
X-222188475Y53198266D03*
D15*
X-224223475Y53198266D03*
D16*
X-154663475Y120626266D03*
X-154663475Y118086266D03*
X-154663475Y115546266D03*
X-154663475Y113006266D03*
X-154663475Y110466266D03*
X-154663475Y107926266D03*
X-154663475Y105386266D03*
X-154663475Y102846266D03*
X-154663475Y100306266D03*
X-152123475Y100306266D03*
X-149583475Y100306266D03*
X-147043475Y100306266D03*
X-144503475Y100306266D03*
X-141963475Y100306266D03*
X-139423475Y100306266D03*
X-139423475Y102846266D03*
X-139423475Y105386266D03*
X-139423475Y107926266D03*
X-139423475Y110466266D03*
X-139423475Y113006266D03*
X-139423475Y115546266D03*
X-139423475Y118086266D03*
X-139423475Y120626266D03*
M02*
