M48
; DRILL file {KiCad 7.0.1-0} date 2023 August 24, Thursday 16:50:44
; FORMAT={-:-/ absolute / metric / decimal}
; #@! TF.CreationDate,2023-08-24T16:50:44+09:00
; #@! TF.GenerationSoftware,Kicad,Pcbnew,7.0.1-0
; #@! TF.FileFunction,Plated,1,2,PTH
FMAT,2
METRIC
; #@! TA.AperFunction,Plated,PTH,ViaDrill
T1C0.400
; #@! TA.AperFunction,Plated,PTH,ComponentDrill
T2C0.813
%
G90
G05
T1
X-253.333Y101.486
X-252.723Y79.736
X-247.853Y64.106
X-227.823Y81.906
X-219.693Y76.776
X-214.093Y74.556
X-214.053Y78.516
X-210.563Y98.576
X-191.623Y96.606
X-191.153Y85.406
X-179.403Y51.746
X-172.563Y91.806
X-167.863Y75.426
X-157.033Y47.096
X-149.043Y67.856
X-147.163Y51.496
X-146.253Y60.836
X-144.243Y69.666
X-142.433Y51.296
X-140.843Y52.856
X-139.433Y93.286
X-138.333Y37.969
X-117.973Y94.096
X-110.553Y77.386
X-101.283Y50.836
X-97.453Y93.356
X-91.793Y78.926
X-90.213Y61.456
X-90.193Y60.376
X-87.683Y57.296
X-85.443Y55.796
X-85.303Y51.326
X-84.333Y61.486
X-84.283Y60.316
X-83.853Y55.486
X-79.703Y99.726
X-78.503Y78.966
X-74.223Y52.496
X-67.643Y82.296
X-58.363Y101.546
X-53.613Y82.366
T2
X-235.183Y55.382
X-235.183Y52.878
X-235.183Y50.374
X-235.183Y47.87
X-235.183Y45.366
X-235.153Y57.916
X-235.093Y60.396
X-227.563Y55.382
X-227.563Y52.878
X-227.563Y50.374
X-227.563Y47.87
X-227.563Y45.366
X-227.533Y57.916
X-227.473Y60.396
X-224.223Y55.842
X-224.223Y53.198
X-224.223Y50.554
X-224.223Y47.91
X-224.223Y45.266
X-224.218Y58.346
X-216.603Y55.842
X-216.603Y53.198
X-216.603Y50.554
X-216.603Y47.91
X-216.603Y45.266
X-216.598Y58.346
X-154.663Y120.626
X-154.663Y118.086
X-154.663Y115.546
X-154.663Y113.006
X-154.663Y110.466
X-154.663Y107.926
X-154.663Y105.386
X-154.663Y102.846
X-154.663Y100.306
X-152.123Y100.306
X-149.858Y77.866
X-149.858Y75.4
X-149.833Y82.988
X-149.833Y80.616
X-149.773Y87.73
X-149.763Y85.359
X-149.583Y100.306
X-148.463Y45.626
X-148.463Y37.969
X-148.463Y35.416
X-148.403Y40.476
X-148.363Y43.086
X-147.043Y100.306
X-144.503Y100.306
X-142.238Y77.866
X-142.238Y75.4
X-142.213Y82.988
X-142.213Y80.616
X-142.153Y87.73
X-142.143Y85.359
X-141.963Y100.306
X-140.843Y45.626
X-140.843Y37.969
X-140.843Y35.416
X-140.783Y40.476
X-140.743Y43.086
X-139.423Y120.626
X-139.423Y118.086
X-139.423Y115.546
X-139.423Y113.006
X-139.423Y110.466
X-139.423Y107.926
X-139.423Y105.386
X-139.423Y102.846
X-139.423Y100.306
X-80.798Y53.906
X-80.728Y51.016
X-80.723Y48.146
X-80.723Y45.566
X-80.693Y56.576
X-80.648Y59.276
X-73.178Y53.906
X-73.108Y51.016
X-73.103Y48.146
X-73.103Y45.566
X-73.073Y56.576
X-73.028Y59.276
X-68.578Y56.506
X-68.573Y53.756
X-68.573Y51.026
X-68.573Y48.296
X-68.573Y45.566
X-68.498Y59.166
X-60.958Y56.506
X-60.953Y53.756
X-60.953Y51.026
X-60.953Y48.296
X-60.953Y45.566
X-60.878Y59.166
T0
M30
