G04 #@! TF.GenerationSoftware,KiCad,Pcbnew,7.0.1-0*
G04 #@! TF.CreationDate,2023-08-24T16:50:40+09:00*
G04 #@! TF.ProjectId,PCB_QAL,5043425f-5141-44c2-9e6b-696361645f70,rev?*
G04 #@! TF.SameCoordinates,Original*
G04 #@! TF.FileFunction,Legend,Bot*
G04 #@! TF.FilePolarity,Positive*
%FSLAX46Y46*%
G04 Gerber Fmt 4.6, Leading zero omitted, Abs format (unit mm)*
G04 Created by KiCad (PCBNEW 7.0.1-0) date 2023-08-24 16:50:40*
%MOMM*%
%LPD*%
G01*
G04 APERTURE LIST*
%ADD10C,0.300000*%
%ADD11C,0.150000*%
%ADD12C,0.400000*%
%ADD13C,0.500000*%
%ADD14C,1.000000*%
%ADD15C,3.500000*%
%ADD16C,3.000000*%
%ADD17C,0.800000*%
G04 APERTURE END LIST*
D10*
X-100830000Y119145000D02*
X-100687142Y119073571D01*
X-100687142Y119073571D02*
X-100401428Y119073571D01*
X-100401428Y119073571D02*
X-100258571Y119145000D01*
X-100258571Y119145000D02*
X-100187142Y119216428D01*
X-100187142Y119216428D02*
X-100115714Y119359285D01*
X-100115714Y119359285D02*
X-100115714Y119787857D01*
X-100115714Y119787857D02*
X-100187142Y119930714D01*
X-100187142Y119930714D02*
X-100258571Y120002142D01*
X-100258571Y120002142D02*
X-100401428Y120073571D01*
X-100401428Y120073571D02*
X-100687142Y120073571D01*
X-100687142Y120073571D02*
X-100830000Y120002142D01*
X-101687142Y119073571D02*
X-101544285Y119145000D01*
X-101544285Y119145000D02*
X-101472856Y119216428D01*
X-101472856Y119216428D02*
X-101401428Y119359285D01*
X-101401428Y119359285D02*
X-101401428Y119787857D01*
X-101401428Y119787857D02*
X-101472856Y119930714D01*
X-101472856Y119930714D02*
X-101544285Y120002142D01*
X-101544285Y120002142D02*
X-101687142Y120073571D01*
X-101687142Y120073571D02*
X-101901428Y120073571D01*
X-101901428Y120073571D02*
X-102044285Y120002142D01*
X-102044285Y120002142D02*
X-102115714Y119930714D01*
X-102115714Y119930714D02*
X-102187142Y119787857D01*
X-102187142Y119787857D02*
X-102187142Y119359285D01*
X-102187142Y119359285D02*
X-102115714Y119216428D01*
X-102115714Y119216428D02*
X-102044285Y119145000D01*
X-102044285Y119145000D02*
X-101901428Y119073571D01*
X-101901428Y119073571D02*
X-101687142Y119073571D01*
X-103044285Y119073571D02*
X-102901428Y119145000D01*
X-102901428Y119145000D02*
X-102829999Y119216428D01*
X-102829999Y119216428D02*
X-102758571Y119359285D01*
X-102758571Y119359285D02*
X-102758571Y119787857D01*
X-102758571Y119787857D02*
X-102829999Y119930714D01*
X-102829999Y119930714D02*
X-102901428Y120002142D01*
X-102901428Y120002142D02*
X-103044285Y120073571D01*
X-103044285Y120073571D02*
X-103258571Y120073571D01*
X-103258571Y120073571D02*
X-103401428Y120002142D01*
X-103401428Y120002142D02*
X-103472857Y119930714D01*
X-103472857Y119930714D02*
X-103544285Y119787857D01*
X-103544285Y119787857D02*
X-103544285Y119359285D01*
X-103544285Y119359285D02*
X-103472857Y119216428D01*
X-103472857Y119216428D02*
X-103401428Y119145000D01*
X-103401428Y119145000D02*
X-103258571Y119073571D01*
X-103258571Y119073571D02*
X-103044285Y119073571D01*
X-104401428Y119073571D02*
X-104258571Y119145000D01*
X-104258571Y119145000D02*
X-104187142Y119287857D01*
X-104187142Y119287857D02*
X-104187142Y120573571D01*
X-105187142Y119930714D02*
X-105044285Y120002142D01*
X-105044285Y120002142D02*
X-104972856Y120073571D01*
X-104972856Y120073571D02*
X-104901428Y120216428D01*
X-104901428Y120216428D02*
X-104901428Y120287857D01*
X-104901428Y120287857D02*
X-104972856Y120430714D01*
X-104972856Y120430714D02*
X-105044285Y120502142D01*
X-105044285Y120502142D02*
X-105187142Y120573571D01*
X-105187142Y120573571D02*
X-105472856Y120573571D01*
X-105472856Y120573571D02*
X-105615714Y120502142D01*
X-105615714Y120502142D02*
X-105687142Y120430714D01*
X-105687142Y120430714D02*
X-105758571Y120287857D01*
X-105758571Y120287857D02*
X-105758571Y120216428D01*
X-105758571Y120216428D02*
X-105687142Y120073571D01*
X-105687142Y120073571D02*
X-105615714Y120002142D01*
X-105615714Y120002142D02*
X-105472856Y119930714D01*
X-105472856Y119930714D02*
X-105187142Y119930714D01*
X-105187142Y119930714D02*
X-105044285Y119859285D01*
X-105044285Y119859285D02*
X-104972856Y119787857D01*
X-104972856Y119787857D02*
X-104901428Y119645000D01*
X-104901428Y119645000D02*
X-104901428Y119359285D01*
X-104901428Y119359285D02*
X-104972856Y119216428D01*
X-104972856Y119216428D02*
X-105044285Y119145000D01*
X-105044285Y119145000D02*
X-105187142Y119073571D01*
X-105187142Y119073571D02*
X-105472856Y119073571D01*
X-105472856Y119073571D02*
X-105615714Y119145000D01*
X-105615714Y119145000D02*
X-105687142Y119216428D01*
X-105687142Y119216428D02*
X-105758571Y119359285D01*
X-105758571Y119359285D02*
X-105758571Y119645000D01*
X-105758571Y119645000D02*
X-105687142Y119787857D01*
X-105687142Y119787857D02*
X-105615714Y119859285D01*
X-105615714Y119859285D02*
X-105472856Y119930714D01*
X-106258570Y120573571D02*
X-107187142Y120573571D01*
X-107187142Y120573571D02*
X-106687142Y120002142D01*
X-106687142Y120002142D02*
X-106901427Y120002142D01*
X-106901427Y120002142D02*
X-107044285Y119930714D01*
X-107044285Y119930714D02*
X-107115713Y119859285D01*
X-107115713Y119859285D02*
X-107187142Y119716428D01*
X-107187142Y119716428D02*
X-107187142Y119359285D01*
X-107187142Y119359285D02*
X-107115713Y119216428D01*
X-107115713Y119216428D02*
X-107044285Y119145000D01*
X-107044285Y119145000D02*
X-106901427Y119073571D01*
X-106901427Y119073571D02*
X-106472856Y119073571D01*
X-106472856Y119073571D02*
X-106329999Y119145000D01*
X-106329999Y119145000D02*
X-106258570Y119216428D01*
X-108472856Y120573571D02*
X-108187141Y120573571D01*
X-108187141Y120573571D02*
X-108044284Y120502142D01*
X-108044284Y120502142D02*
X-107972856Y120430714D01*
X-107972856Y120430714D02*
X-107829998Y120216428D01*
X-107829998Y120216428D02*
X-107758570Y119930714D01*
X-107758570Y119930714D02*
X-107758570Y119359285D01*
X-107758570Y119359285D02*
X-107829998Y119216428D01*
X-107829998Y119216428D02*
X-107901427Y119145000D01*
X-107901427Y119145000D02*
X-108044284Y119073571D01*
X-108044284Y119073571D02*
X-108329998Y119073571D01*
X-108329998Y119073571D02*
X-108472856Y119145000D01*
X-108472856Y119145000D02*
X-108544284Y119216428D01*
X-108544284Y119216428D02*
X-108615713Y119359285D01*
X-108615713Y119359285D02*
X-108615713Y119716428D01*
X-108615713Y119716428D02*
X-108544284Y119859285D01*
X-108544284Y119859285D02*
X-108472856Y119930714D01*
X-108472856Y119930714D02*
X-108329998Y120002142D01*
X-108329998Y120002142D02*
X-108044284Y120002142D01*
X-108044284Y120002142D02*
X-107901427Y119930714D01*
X-107901427Y119930714D02*
X-107829998Y119859285D01*
X-107829998Y119859285D02*
X-107758570Y119716428D01*
X-109901427Y120073571D02*
X-109901427Y118573571D01*
X-109901427Y119145000D02*
X-109758569Y119073571D01*
X-109758569Y119073571D02*
X-109472855Y119073571D01*
X-109472855Y119073571D02*
X-109329998Y119145000D01*
X-109329998Y119145000D02*
X-109258569Y119216428D01*
X-109258569Y119216428D02*
X-109187141Y119359285D01*
X-109187141Y119359285D02*
X-109187141Y119787857D01*
X-109187141Y119787857D02*
X-109258569Y119930714D01*
X-109258569Y119930714D02*
X-109329998Y120002142D01*
X-109329998Y120002142D02*
X-109472855Y120073571D01*
X-109472855Y120073571D02*
X-109758569Y120073571D01*
X-109758569Y120073571D02*
X-109901427Y120002142D01*
X-111258570Y119073571D02*
X-111258570Y119859285D01*
X-111258570Y119859285D02*
X-111187141Y120002142D01*
X-111187141Y120002142D02*
X-111044284Y120073571D01*
X-111044284Y120073571D02*
X-110758570Y120073571D01*
X-110758570Y120073571D02*
X-110615712Y120002142D01*
X-111258570Y119145000D02*
X-111115712Y119073571D01*
X-111115712Y119073571D02*
X-110758570Y119073571D01*
X-110758570Y119073571D02*
X-110615712Y119145000D01*
X-110615712Y119145000D02*
X-110544284Y119287857D01*
X-110544284Y119287857D02*
X-110544284Y119430714D01*
X-110544284Y119430714D02*
X-110615712Y119573571D01*
X-110615712Y119573571D02*
X-110758570Y119645000D01*
X-110758570Y119645000D02*
X-111115712Y119645000D01*
X-111115712Y119645000D02*
X-111258570Y119716428D01*
X-112187141Y119073571D02*
X-112044284Y119145000D01*
X-112044284Y119145000D02*
X-111972855Y119287857D01*
X-111972855Y119287857D02*
X-111972855Y120573571D01*
X-114544284Y119073571D02*
X-114544284Y120573571D01*
X-114544284Y119145000D02*
X-114401426Y119073571D01*
X-114401426Y119073571D02*
X-114115712Y119073571D01*
X-114115712Y119073571D02*
X-113972855Y119145000D01*
X-113972855Y119145000D02*
X-113901426Y119216428D01*
X-113901426Y119216428D02*
X-113829998Y119359285D01*
X-113829998Y119359285D02*
X-113829998Y119787857D01*
X-113829998Y119787857D02*
X-113901426Y119930714D01*
X-113901426Y119930714D02*
X-113972855Y120002142D01*
X-113972855Y120002142D02*
X-114115712Y120073571D01*
X-114115712Y120073571D02*
X-114401426Y120073571D01*
X-114401426Y120073571D02*
X-114544284Y120002142D01*
X-115829998Y119145000D02*
X-115687141Y119073571D01*
X-115687141Y119073571D02*
X-115401427Y119073571D01*
X-115401427Y119073571D02*
X-115258569Y119145000D01*
X-115258569Y119145000D02*
X-115187141Y119287857D01*
X-115187141Y119287857D02*
X-115187141Y119859285D01*
X-115187141Y119859285D02*
X-115258569Y120002142D01*
X-115258569Y120002142D02*
X-115401427Y120073571D01*
X-115401427Y120073571D02*
X-115687141Y120073571D01*
X-115687141Y120073571D02*
X-115829998Y120002142D01*
X-115829998Y120002142D02*
X-115901427Y119859285D01*
X-115901427Y119859285D02*
X-115901427Y119716428D01*
X-115901427Y119716428D02*
X-115187141Y119573571D01*
X-116472855Y119145000D02*
X-116615712Y119073571D01*
X-116615712Y119073571D02*
X-116901426Y119073571D01*
X-116901426Y119073571D02*
X-117044283Y119145000D01*
X-117044283Y119145000D02*
X-117115712Y119287857D01*
X-117115712Y119287857D02*
X-117115712Y119359285D01*
X-117115712Y119359285D02*
X-117044283Y119502142D01*
X-117044283Y119502142D02*
X-116901426Y119573571D01*
X-116901426Y119573571D02*
X-116687141Y119573571D01*
X-116687141Y119573571D02*
X-116544283Y119645000D01*
X-116544283Y119645000D02*
X-116472855Y119787857D01*
X-116472855Y119787857D02*
X-116472855Y119859285D01*
X-116472855Y119859285D02*
X-116544283Y120002142D01*
X-116544283Y120002142D02*
X-116687141Y120073571D01*
X-116687141Y120073571D02*
X-116901426Y120073571D01*
X-116901426Y120073571D02*
X-117044283Y120002142D01*
X-117758569Y119073571D02*
X-117758569Y120073571D01*
X-117758569Y120573571D02*
X-117687141Y120502142D01*
X-117687141Y120502142D02*
X-117758569Y120430714D01*
X-117758569Y120430714D02*
X-117829998Y120502142D01*
X-117829998Y120502142D02*
X-117758569Y120573571D01*
X-117758569Y120573571D02*
X-117758569Y120430714D01*
X-119115713Y120073571D02*
X-119115713Y118859285D01*
X-119115713Y118859285D02*
X-119044284Y118716428D01*
X-119044284Y118716428D02*
X-118972855Y118645000D01*
X-118972855Y118645000D02*
X-118829998Y118573571D01*
X-118829998Y118573571D02*
X-118615713Y118573571D01*
X-118615713Y118573571D02*
X-118472855Y118645000D01*
X-119115713Y119145000D02*
X-118972855Y119073571D01*
X-118972855Y119073571D02*
X-118687141Y119073571D01*
X-118687141Y119073571D02*
X-118544284Y119145000D01*
X-118544284Y119145000D02*
X-118472855Y119216428D01*
X-118472855Y119216428D02*
X-118401427Y119359285D01*
X-118401427Y119359285D02*
X-118401427Y119787857D01*
X-118401427Y119787857D02*
X-118472855Y119930714D01*
X-118472855Y119930714D02*
X-118544284Y120002142D01*
X-118544284Y120002142D02*
X-118687141Y120073571D01*
X-118687141Y120073571D02*
X-118972855Y120073571D01*
X-118972855Y120073571D02*
X-119115713Y120002142D01*
X-119829998Y120073571D02*
X-119829998Y119073571D01*
X-119829998Y119930714D02*
X-119901427Y120002142D01*
X-119901427Y120002142D02*
X-120044284Y120073571D01*
X-120044284Y120073571D02*
X-120258570Y120073571D01*
X-120258570Y120073571D02*
X-120401427Y120002142D01*
X-120401427Y120002142D02*
X-120472856Y119859285D01*
X-120472856Y119859285D02*
X-120472856Y119073571D01*
X-121758570Y119145000D02*
X-121615713Y119073571D01*
X-121615713Y119073571D02*
X-121329999Y119073571D01*
X-121329999Y119073571D02*
X-121187141Y119145000D01*
X-121187141Y119145000D02*
X-121115713Y119287857D01*
X-121115713Y119287857D02*
X-121115713Y119859285D01*
X-121115713Y119859285D02*
X-121187141Y120002142D01*
X-121187141Y120002142D02*
X-121329999Y120073571D01*
X-121329999Y120073571D02*
X-121615713Y120073571D01*
X-121615713Y120073571D02*
X-121758570Y120002142D01*
X-121758570Y120002142D02*
X-121829999Y119859285D01*
X-121829999Y119859285D02*
X-121829999Y119716428D01*
X-121829999Y119716428D02*
X-121115713Y119573571D01*
X-123115713Y119073571D02*
X-123115713Y120573571D01*
X-123115713Y119145000D02*
X-122972855Y119073571D01*
X-122972855Y119073571D02*
X-122687141Y119073571D01*
X-122687141Y119073571D02*
X-122544284Y119145000D01*
X-122544284Y119145000D02*
X-122472855Y119216428D01*
X-122472855Y119216428D02*
X-122401427Y119359285D01*
X-122401427Y119359285D02*
X-122401427Y119787857D01*
X-122401427Y119787857D02*
X-122472855Y119930714D01*
X-122472855Y119930714D02*
X-122544284Y120002142D01*
X-122544284Y120002142D02*
X-122687141Y120073571D01*
X-122687141Y120073571D02*
X-122972855Y120073571D01*
X-122972855Y120073571D02*
X-123115713Y120002142D01*
X-124972855Y119073571D02*
X-124972855Y120573571D01*
X-124972855Y120002142D02*
X-125115713Y120073571D01*
X-125115713Y120073571D02*
X-125401427Y120073571D01*
X-125401427Y120073571D02*
X-125544284Y120002142D01*
X-125544284Y120002142D02*
X-125615713Y119930714D01*
X-125615713Y119930714D02*
X-125687141Y119787857D01*
X-125687141Y119787857D02*
X-125687141Y119359285D01*
X-125687141Y119359285D02*
X-125615713Y119216428D01*
X-125615713Y119216428D02*
X-125544284Y119145000D01*
X-125544284Y119145000D02*
X-125401427Y119073571D01*
X-125401427Y119073571D02*
X-125115713Y119073571D01*
X-125115713Y119073571D02*
X-124972855Y119145000D01*
X-126187141Y120073571D02*
X-126544284Y119073571D01*
X-126901427Y120073571D02*
X-126544284Y119073571D01*
X-126544284Y119073571D02*
X-126401427Y118716428D01*
X-126401427Y118716428D02*
X-126329998Y118645000D01*
X-126329998Y118645000D02*
X-126187141Y118573571D01*
X-128615712Y119073571D02*
X-128615712Y120073571D01*
X-128615712Y119930714D02*
X-128687141Y120002142D01*
X-128687141Y120002142D02*
X-128829998Y120073571D01*
X-128829998Y120073571D02*
X-129044284Y120073571D01*
X-129044284Y120073571D02*
X-129187141Y120002142D01*
X-129187141Y120002142D02*
X-129258570Y119859285D01*
X-129258570Y119859285D02*
X-129258570Y119073571D01*
X-129258570Y119859285D02*
X-129329998Y120002142D01*
X-129329998Y120002142D02*
X-129472855Y120073571D01*
X-129472855Y120073571D02*
X-129687141Y120073571D01*
X-129687141Y120073571D02*
X-129829998Y120002142D01*
X-129829998Y120002142D02*
X-129901427Y119859285D01*
X-129901427Y119859285D02*
X-129901427Y119073571D01*
X-130615712Y119216428D02*
X-130687141Y119145000D01*
X-130687141Y119145000D02*
X-130615712Y119073571D01*
X-130615712Y119073571D02*
X-130544284Y119145000D01*
X-130544284Y119145000D02*
X-130615712Y119216428D01*
X-130615712Y119216428D02*
X-130615712Y119073571D01*
X-131329998Y119073571D02*
X-131329998Y120573571D01*
X-131472856Y119645000D02*
X-131901427Y119073571D01*
X-131901427Y120073571D02*
X-131329998Y119502142D01*
X-132544284Y119073571D02*
X-132544284Y120073571D01*
X-132544284Y120573571D02*
X-132472856Y120502142D01*
X-132472856Y120502142D02*
X-132544284Y120430714D01*
X-132544284Y120430714D02*
X-132615713Y120502142D01*
X-132615713Y120502142D02*
X-132544284Y120573571D01*
X-132544284Y120573571D02*
X-132544284Y120430714D01*
X-100044285Y117643571D02*
X-100401428Y116643571D01*
X-100401428Y116643571D02*
X-100758571Y117643571D01*
X-101901428Y116715000D02*
X-101758571Y116643571D01*
X-101758571Y116643571D02*
X-101472857Y116643571D01*
X-101472857Y116643571D02*
X-101329999Y116715000D01*
X-101329999Y116715000D02*
X-101258571Y116857857D01*
X-101258571Y116857857D02*
X-101258571Y117429285D01*
X-101258571Y117429285D02*
X-101329999Y117572142D01*
X-101329999Y117572142D02*
X-101472857Y117643571D01*
X-101472857Y117643571D02*
X-101758571Y117643571D01*
X-101758571Y117643571D02*
X-101901428Y117572142D01*
X-101901428Y117572142D02*
X-101972857Y117429285D01*
X-101972857Y117429285D02*
X-101972857Y117286428D01*
X-101972857Y117286428D02*
X-101258571Y117143571D01*
X-102615713Y116643571D02*
X-102615713Y117643571D01*
X-102615713Y117357857D02*
X-102687142Y117500714D01*
X-102687142Y117500714D02*
X-102758571Y117572142D01*
X-102758571Y117572142D02*
X-102901428Y117643571D01*
X-102901428Y117643571D02*
X-103044285Y117643571D01*
X-105472856Y116643571D02*
X-104615713Y116643571D01*
X-105044284Y116643571D02*
X-105044284Y118143571D01*
X-105044284Y118143571D02*
X-104901427Y117929285D01*
X-104901427Y117929285D02*
X-104758570Y117786428D01*
X-104758570Y117786428D02*
X-104615713Y117715000D01*
X-106115712Y116786428D02*
X-106187141Y116715000D01*
X-106187141Y116715000D02*
X-106115712Y116643571D01*
X-106115712Y116643571D02*
X-106044284Y116715000D01*
X-106044284Y116715000D02*
X-106115712Y116786428D01*
X-106115712Y116786428D02*
X-106115712Y116643571D01*
X-107115713Y118143571D02*
X-107258570Y118143571D01*
X-107258570Y118143571D02*
X-107401427Y118072142D01*
X-107401427Y118072142D02*
X-107472856Y118000714D01*
X-107472856Y118000714D02*
X-107544284Y117857857D01*
X-107544284Y117857857D02*
X-107615713Y117572142D01*
X-107615713Y117572142D02*
X-107615713Y117215000D01*
X-107615713Y117215000D02*
X-107544284Y116929285D01*
X-107544284Y116929285D02*
X-107472856Y116786428D01*
X-107472856Y116786428D02*
X-107401427Y116715000D01*
X-107401427Y116715000D02*
X-107258570Y116643571D01*
X-107258570Y116643571D02*
X-107115713Y116643571D01*
X-107115713Y116643571D02*
X-106972856Y116715000D01*
X-106972856Y116715000D02*
X-106901427Y116786428D01*
X-106901427Y116786428D02*
X-106829998Y116929285D01*
X-106829998Y116929285D02*
X-106758570Y117215000D01*
X-106758570Y117215000D02*
X-106758570Y117572142D01*
X-106758570Y117572142D02*
X-106829998Y117857857D01*
X-106829998Y117857857D02*
X-106901427Y118000714D01*
X-106901427Y118000714D02*
X-106972856Y118072142D01*
X-106972856Y118072142D02*
X-107115713Y118143571D01*
X-108187141Y118000714D02*
X-108258569Y118072142D01*
X-108258569Y118072142D02*
X-108401427Y118143571D01*
X-108401427Y118143571D02*
X-108758569Y118143571D01*
X-108758569Y118143571D02*
X-108901427Y118072142D01*
X-108901427Y118072142D02*
X-108972855Y118000714D01*
X-108972855Y118000714D02*
X-109044284Y117857857D01*
X-109044284Y117857857D02*
X-109044284Y117715000D01*
X-109044284Y117715000D02*
X-108972855Y117500714D01*
X-108972855Y117500714D02*
X-108115712Y116643571D01*
X-108115712Y116643571D02*
X-109044284Y116643571D01*
X-111472855Y116643571D02*
X-111472855Y118143571D01*
X-111472855Y116715000D02*
X-111329997Y116643571D01*
X-111329997Y116643571D02*
X-111044283Y116643571D01*
X-111044283Y116643571D02*
X-110901426Y116715000D01*
X-110901426Y116715000D02*
X-110829997Y116786428D01*
X-110829997Y116786428D02*
X-110758569Y116929285D01*
X-110758569Y116929285D02*
X-110758569Y117357857D01*
X-110758569Y117357857D02*
X-110829997Y117500714D01*
X-110829997Y117500714D02*
X-110901426Y117572142D01*
X-110901426Y117572142D02*
X-111044283Y117643571D01*
X-111044283Y117643571D02*
X-111329997Y117643571D01*
X-111329997Y117643571D02*
X-111472855Y117572142D01*
X-112829998Y116643571D02*
X-112829998Y117429285D01*
X-112829998Y117429285D02*
X-112758569Y117572142D01*
X-112758569Y117572142D02*
X-112615712Y117643571D01*
X-112615712Y117643571D02*
X-112329998Y117643571D01*
X-112329998Y117643571D02*
X-112187140Y117572142D01*
X-112829998Y116715000D02*
X-112687140Y116643571D01*
X-112687140Y116643571D02*
X-112329998Y116643571D01*
X-112329998Y116643571D02*
X-112187140Y116715000D01*
X-112187140Y116715000D02*
X-112115712Y116857857D01*
X-112115712Y116857857D02*
X-112115712Y117000714D01*
X-112115712Y117000714D02*
X-112187140Y117143571D01*
X-112187140Y117143571D02*
X-112329998Y117215000D01*
X-112329998Y117215000D02*
X-112687140Y117215000D01*
X-112687140Y117215000D02*
X-112829998Y117286428D01*
X-113329998Y117643571D02*
X-113901426Y117643571D01*
X-113544283Y118143571D02*
X-113544283Y116857857D01*
X-113544283Y116857857D02*
X-113615712Y116715000D01*
X-113615712Y116715000D02*
X-113758569Y116643571D01*
X-113758569Y116643571D02*
X-113901426Y116643571D01*
X-115044284Y116643571D02*
X-115044284Y117429285D01*
X-115044284Y117429285D02*
X-114972855Y117572142D01*
X-114972855Y117572142D02*
X-114829998Y117643571D01*
X-114829998Y117643571D02*
X-114544284Y117643571D01*
X-114544284Y117643571D02*
X-114401426Y117572142D01*
X-115044284Y116715000D02*
X-114901426Y116643571D01*
X-114901426Y116643571D02*
X-114544284Y116643571D01*
X-114544284Y116643571D02*
X-114401426Y116715000D01*
X-114401426Y116715000D02*
X-114329998Y116857857D01*
X-114329998Y116857857D02*
X-114329998Y117000714D01*
X-114329998Y117000714D02*
X-114401426Y117143571D01*
X-114401426Y117143571D02*
X-114544284Y117215000D01*
X-114544284Y117215000D02*
X-114901426Y117215000D01*
X-114901426Y117215000D02*
X-115044284Y117286428D01*
X-116829998Y118000714D02*
X-116901426Y118072142D01*
X-116901426Y118072142D02*
X-117044284Y118143571D01*
X-117044284Y118143571D02*
X-117401426Y118143571D01*
X-117401426Y118143571D02*
X-117544284Y118072142D01*
X-117544284Y118072142D02*
X-117615712Y118000714D01*
X-117615712Y118000714D02*
X-117687141Y117857857D01*
X-117687141Y117857857D02*
X-117687141Y117715000D01*
X-117687141Y117715000D02*
X-117615712Y117500714D01*
X-117615712Y117500714D02*
X-116758569Y116643571D01*
X-116758569Y116643571D02*
X-117687141Y116643571D01*
X-118615712Y118143571D02*
X-118758569Y118143571D01*
X-118758569Y118143571D02*
X-118901426Y118072142D01*
X-118901426Y118072142D02*
X-118972855Y118000714D01*
X-118972855Y118000714D02*
X-119044283Y117857857D01*
X-119044283Y117857857D02*
X-119115712Y117572142D01*
X-119115712Y117572142D02*
X-119115712Y117215000D01*
X-119115712Y117215000D02*
X-119044283Y116929285D01*
X-119044283Y116929285D02*
X-118972855Y116786428D01*
X-118972855Y116786428D02*
X-118901426Y116715000D01*
X-118901426Y116715000D02*
X-118758569Y116643571D01*
X-118758569Y116643571D02*
X-118615712Y116643571D01*
X-118615712Y116643571D02*
X-118472855Y116715000D01*
X-118472855Y116715000D02*
X-118401426Y116786428D01*
X-118401426Y116786428D02*
X-118329997Y116929285D01*
X-118329997Y116929285D02*
X-118258569Y117215000D01*
X-118258569Y117215000D02*
X-118258569Y117572142D01*
X-118258569Y117572142D02*
X-118329997Y117857857D01*
X-118329997Y117857857D02*
X-118401426Y118000714D01*
X-118401426Y118000714D02*
X-118472855Y118072142D01*
X-118472855Y118072142D02*
X-118615712Y118143571D01*
X-119687140Y118000714D02*
X-119758568Y118072142D01*
X-119758568Y118072142D02*
X-119901426Y118143571D01*
X-119901426Y118143571D02*
X-120258568Y118143571D01*
X-120258568Y118143571D02*
X-120401426Y118072142D01*
X-120401426Y118072142D02*
X-120472854Y118000714D01*
X-120472854Y118000714D02*
X-120544283Y117857857D01*
X-120544283Y117857857D02*
X-120544283Y117715000D01*
X-120544283Y117715000D02*
X-120472854Y117500714D01*
X-120472854Y117500714D02*
X-119615711Y116643571D01*
X-119615711Y116643571D02*
X-120544283Y116643571D01*
X-121044282Y118143571D02*
X-121972854Y118143571D01*
X-121972854Y118143571D02*
X-121472854Y117572142D01*
X-121472854Y117572142D02*
X-121687139Y117572142D01*
X-121687139Y117572142D02*
X-121829997Y117500714D01*
X-121829997Y117500714D02*
X-121901425Y117429285D01*
X-121901425Y117429285D02*
X-121972854Y117286428D01*
X-121972854Y117286428D02*
X-121972854Y116929285D01*
X-121972854Y116929285D02*
X-121901425Y116786428D01*
X-121901425Y116786428D02*
X-121829997Y116715000D01*
X-121829997Y116715000D02*
X-121687139Y116643571D01*
X-121687139Y116643571D02*
X-121258568Y116643571D01*
X-121258568Y116643571D02*
X-121115711Y116715000D01*
X-121115711Y116715000D02*
X-121044282Y116786428D01*
X-122901425Y118143571D02*
X-123044282Y118143571D01*
X-123044282Y118143571D02*
X-123187139Y118072142D01*
X-123187139Y118072142D02*
X-123258568Y118000714D01*
X-123258568Y118000714D02*
X-123329996Y117857857D01*
X-123329996Y117857857D02*
X-123401425Y117572142D01*
X-123401425Y117572142D02*
X-123401425Y117215000D01*
X-123401425Y117215000D02*
X-123329996Y116929285D01*
X-123329996Y116929285D02*
X-123258568Y116786428D01*
X-123258568Y116786428D02*
X-123187139Y116715000D01*
X-123187139Y116715000D02*
X-123044282Y116643571D01*
X-123044282Y116643571D02*
X-122901425Y116643571D01*
X-122901425Y116643571D02*
X-122758568Y116715000D01*
X-122758568Y116715000D02*
X-122687139Y116786428D01*
X-122687139Y116786428D02*
X-122615710Y116929285D01*
X-122615710Y116929285D02*
X-122544282Y117215000D01*
X-122544282Y117215000D02*
X-122544282Y117572142D01*
X-122544282Y117572142D02*
X-122615710Y117857857D01*
X-122615710Y117857857D02*
X-122687139Y118000714D01*
X-122687139Y118000714D02*
X-122758568Y118072142D01*
X-122758568Y118072142D02*
X-122901425Y118143571D01*
X-124758567Y118143571D02*
X-124044281Y118143571D01*
X-124044281Y118143571D02*
X-123972853Y117429285D01*
X-123972853Y117429285D02*
X-124044281Y117500714D01*
X-124044281Y117500714D02*
X-124187139Y117572142D01*
X-124187139Y117572142D02*
X-124544281Y117572142D01*
X-124544281Y117572142D02*
X-124687139Y117500714D01*
X-124687139Y117500714D02*
X-124758567Y117429285D01*
X-124758567Y117429285D02*
X-124829996Y117286428D01*
X-124829996Y117286428D02*
X-124829996Y116929285D01*
X-124829996Y116929285D02*
X-124758567Y116786428D01*
X-124758567Y116786428D02*
X-124687139Y116715000D01*
X-124687139Y116715000D02*
X-124544281Y116643571D01*
X-124544281Y116643571D02*
X-124187139Y116643571D01*
X-124187139Y116643571D02*
X-124044281Y116715000D01*
X-124044281Y116715000D02*
X-123972853Y116786428D01*
X-126258567Y116643571D02*
X-125401424Y116643571D01*
X-125829995Y116643571D02*
X-125829995Y118143571D01*
X-125829995Y118143571D02*
X-125687138Y117929285D01*
X-125687138Y117929285D02*
X-125544281Y117786428D01*
X-125544281Y117786428D02*
X-125401424Y117715000D01*
X-127187138Y118143571D02*
X-127329995Y118143571D01*
X-127329995Y118143571D02*
X-127472852Y118072142D01*
X-127472852Y118072142D02*
X-127544281Y118000714D01*
X-127544281Y118000714D02*
X-127615709Y117857857D01*
X-127615709Y117857857D02*
X-127687138Y117572142D01*
X-127687138Y117572142D02*
X-127687138Y117215000D01*
X-127687138Y117215000D02*
X-127615709Y116929285D01*
X-127615709Y116929285D02*
X-127544281Y116786428D01*
X-127544281Y116786428D02*
X-127472852Y116715000D01*
X-127472852Y116715000D02*
X-127329995Y116643571D01*
X-127329995Y116643571D02*
X-127187138Y116643571D01*
X-127187138Y116643571D02*
X-127044281Y116715000D01*
X-127044281Y116715000D02*
X-126972852Y116786428D01*
X-126972852Y116786428D02*
X-126901423Y116929285D01*
X-126901423Y116929285D02*
X-126829995Y117215000D01*
X-126829995Y117215000D02*
X-126829995Y117572142D01*
X-126829995Y117572142D02*
X-126901423Y117857857D01*
X-126901423Y117857857D02*
X-126972852Y118000714D01*
X-126972852Y118000714D02*
X-127044281Y118072142D01*
X-127044281Y118072142D02*
X-127187138Y118143571D01*
D11*
X-146921570Y110993646D02*
X-146921570Y110184123D01*
X-146921570Y110184123D02*
X-146969189Y110088885D01*
X-146969189Y110088885D02*
X-147016808Y110041266D01*
X-147016808Y110041266D02*
X-147112046Y109993646D01*
X-147112046Y109993646D02*
X-147302522Y109993646D01*
X-147302522Y109993646D02*
X-147397760Y110041266D01*
X-147397760Y110041266D02*
X-147445379Y110088885D01*
X-147445379Y110088885D02*
X-147492998Y110184123D01*
X-147492998Y110184123D02*
X-147492998Y110993646D01*
X-148492998Y109993646D02*
X-147921570Y109993646D01*
X-148207284Y109993646D02*
X-148207284Y110993646D01*
X-148207284Y110993646D02*
X-148112046Y110850789D01*
X-148112046Y110850789D02*
X-148016808Y110755551D01*
X-148016808Y110755551D02*
X-147921570Y110707932D01*
X-156489189Y116036027D02*
X-156393951Y116083646D01*
X-156393951Y116083646D02*
X-156251094Y116083646D01*
X-156251094Y116083646D02*
X-156108237Y116036027D01*
X-156108237Y116036027D02*
X-156012999Y115940789D01*
X-156012999Y115940789D02*
X-155965380Y115845551D01*
X-155965380Y115845551D02*
X-155917761Y115655075D01*
X-155917761Y115655075D02*
X-155917761Y115512218D01*
X-155917761Y115512218D02*
X-155965380Y115321742D01*
X-155965380Y115321742D02*
X-156012999Y115226504D01*
X-156012999Y115226504D02*
X-156108237Y115131266D01*
X-156108237Y115131266D02*
X-156251094Y115083646D01*
X-156251094Y115083646D02*
X-156346332Y115083646D01*
X-156346332Y115083646D02*
X-156489189Y115131266D01*
X-156489189Y115131266D02*
X-156536808Y115178885D01*
X-156536808Y115178885D02*
X-156536808Y115512218D01*
X-156536808Y115512218D02*
X-156346332Y115512218D01*
X-156965380Y115083646D02*
X-156965380Y116083646D01*
X-156965380Y116083646D02*
X-157346332Y116083646D01*
X-157346332Y116083646D02*
X-157441570Y116036027D01*
X-157441570Y116036027D02*
X-157489189Y115988408D01*
X-157489189Y115988408D02*
X-157536808Y115893170D01*
X-157536808Y115893170D02*
X-157536808Y115750313D01*
X-157536808Y115750313D02*
X-157489189Y115655075D01*
X-157489189Y115655075D02*
X-157441570Y115607456D01*
X-157441570Y115607456D02*
X-157346332Y115559837D01*
X-157346332Y115559837D02*
X-156965380Y115559837D01*
X-157917761Y115988408D02*
X-157965380Y116036027D01*
X-157965380Y116036027D02*
X-158060618Y116083646D01*
X-158060618Y116083646D02*
X-158298713Y116083646D01*
X-158298713Y116083646D02*
X-158393951Y116036027D01*
X-158393951Y116036027D02*
X-158441570Y115988408D01*
X-158441570Y115988408D02*
X-158489189Y115893170D01*
X-158489189Y115893170D02*
X-158489189Y115797932D01*
X-158489189Y115797932D02*
X-158441570Y115655075D01*
X-158441570Y115655075D02*
X-157870142Y115083646D01*
X-157870142Y115083646D02*
X-158489189Y115083646D01*
X-135645380Y116083646D02*
X-136264427Y116083646D01*
X-136264427Y116083646D02*
X-135931094Y115702694D01*
X-135931094Y115702694D02*
X-136073951Y115702694D01*
X-136073951Y115702694D02*
X-136169189Y115655075D01*
X-136169189Y115655075D02*
X-136216808Y115607456D01*
X-136216808Y115607456D02*
X-136264427Y115512218D01*
X-136264427Y115512218D02*
X-136264427Y115274123D01*
X-136264427Y115274123D02*
X-136216808Y115178885D01*
X-136216808Y115178885D02*
X-136169189Y115131266D01*
X-136169189Y115131266D02*
X-136073951Y115083646D01*
X-136073951Y115083646D02*
X-135788237Y115083646D01*
X-135788237Y115083646D02*
X-135692999Y115131266D01*
X-135692999Y115131266D02*
X-135645380Y115178885D01*
X-136550142Y116083646D02*
X-136883475Y115083646D01*
X-136883475Y115083646D02*
X-137216808Y116083646D01*
X-137454904Y116083646D02*
X-138073951Y116083646D01*
X-138073951Y116083646D02*
X-137740618Y115702694D01*
X-137740618Y115702694D02*
X-137883475Y115702694D01*
X-137883475Y115702694D02*
X-137978713Y115655075D01*
X-137978713Y115655075D02*
X-138026332Y115607456D01*
X-138026332Y115607456D02*
X-138073951Y115512218D01*
X-138073951Y115512218D02*
X-138073951Y115274123D01*
X-138073951Y115274123D02*
X-138026332Y115178885D01*
X-138026332Y115178885D02*
X-137978713Y115131266D01*
X-137978713Y115131266D02*
X-137883475Y115083646D01*
X-137883475Y115083646D02*
X-137597761Y115083646D01*
X-137597761Y115083646D02*
X-137502523Y115131266D01*
X-137502523Y115131266D02*
X-137454904Y115178885D01*
X-156489189Y118576027D02*
X-156393951Y118623646D01*
X-156393951Y118623646D02*
X-156251094Y118623646D01*
X-156251094Y118623646D02*
X-156108237Y118576027D01*
X-156108237Y118576027D02*
X-156012999Y118480789D01*
X-156012999Y118480789D02*
X-155965380Y118385551D01*
X-155965380Y118385551D02*
X-155917761Y118195075D01*
X-155917761Y118195075D02*
X-155917761Y118052218D01*
X-155917761Y118052218D02*
X-155965380Y117861742D01*
X-155965380Y117861742D02*
X-156012999Y117766504D01*
X-156012999Y117766504D02*
X-156108237Y117671266D01*
X-156108237Y117671266D02*
X-156251094Y117623646D01*
X-156251094Y117623646D02*
X-156346332Y117623646D01*
X-156346332Y117623646D02*
X-156489189Y117671266D01*
X-156489189Y117671266D02*
X-156536808Y117718885D01*
X-156536808Y117718885D02*
X-156536808Y118052218D01*
X-156536808Y118052218D02*
X-156346332Y118052218D01*
X-156965380Y117623646D02*
X-156965380Y118623646D01*
X-156965380Y118623646D02*
X-157346332Y118623646D01*
X-157346332Y118623646D02*
X-157441570Y118576027D01*
X-157441570Y118576027D02*
X-157489189Y118528408D01*
X-157489189Y118528408D02*
X-157536808Y118433170D01*
X-157536808Y118433170D02*
X-157536808Y118290313D01*
X-157536808Y118290313D02*
X-157489189Y118195075D01*
X-157489189Y118195075D02*
X-157441570Y118147456D01*
X-157441570Y118147456D02*
X-157346332Y118099837D01*
X-157346332Y118099837D02*
X-156965380Y118099837D01*
X-158489189Y117623646D02*
X-157917761Y117623646D01*
X-158203475Y117623646D02*
X-158203475Y118623646D01*
X-158203475Y118623646D02*
X-158108237Y118480789D01*
X-158108237Y118480789D02*
X-158012999Y118385551D01*
X-158012999Y118385551D02*
X-157917761Y118337932D01*
X-135692998Y113496027D02*
X-135597760Y113543646D01*
X-135597760Y113543646D02*
X-135454903Y113543646D01*
X-135454903Y113543646D02*
X-135312046Y113496027D01*
X-135312046Y113496027D02*
X-135216808Y113400789D01*
X-135216808Y113400789D02*
X-135169189Y113305551D01*
X-135169189Y113305551D02*
X-135121570Y113115075D01*
X-135121570Y113115075D02*
X-135121570Y112972218D01*
X-135121570Y112972218D02*
X-135169189Y112781742D01*
X-135169189Y112781742D02*
X-135216808Y112686504D01*
X-135216808Y112686504D02*
X-135312046Y112591266D01*
X-135312046Y112591266D02*
X-135454903Y112543646D01*
X-135454903Y112543646D02*
X-135550141Y112543646D01*
X-135550141Y112543646D02*
X-135692998Y112591266D01*
X-135692998Y112591266D02*
X-135740617Y112638885D01*
X-135740617Y112638885D02*
X-135740617Y112972218D01*
X-135740617Y112972218D02*
X-135550141Y112972218D01*
X-136169189Y112543646D02*
X-136169189Y113543646D01*
X-136169189Y113543646D02*
X-136550141Y113543646D01*
X-136550141Y113543646D02*
X-136645379Y113496027D01*
X-136645379Y113496027D02*
X-136692998Y113448408D01*
X-136692998Y113448408D02*
X-136740617Y113353170D01*
X-136740617Y113353170D02*
X-136740617Y113210313D01*
X-136740617Y113210313D02*
X-136692998Y113115075D01*
X-136692998Y113115075D02*
X-136645379Y113067456D01*
X-136645379Y113067456D02*
X-136550141Y113019837D01*
X-136550141Y113019837D02*
X-136169189Y113019837D01*
X-137121570Y113448408D02*
X-137169189Y113496027D01*
X-137169189Y113496027D02*
X-137264427Y113543646D01*
X-137264427Y113543646D02*
X-137502522Y113543646D01*
X-137502522Y113543646D02*
X-137597760Y113496027D01*
X-137597760Y113496027D02*
X-137645379Y113448408D01*
X-137645379Y113448408D02*
X-137692998Y113353170D01*
X-137692998Y113353170D02*
X-137692998Y113257932D01*
X-137692998Y113257932D02*
X-137645379Y113115075D01*
X-137645379Y113115075D02*
X-137073951Y112543646D01*
X-137073951Y112543646D02*
X-137692998Y112543646D01*
X-138169189Y112543646D02*
X-138359665Y112543646D01*
X-138359665Y112543646D02*
X-138454903Y112591266D01*
X-138454903Y112591266D02*
X-138502522Y112638885D01*
X-138502522Y112638885D02*
X-138597760Y112781742D01*
X-138597760Y112781742D02*
X-138645379Y112972218D01*
X-138645379Y112972218D02*
X-138645379Y113353170D01*
X-138645379Y113353170D02*
X-138597760Y113448408D01*
X-138597760Y113448408D02*
X-138550141Y113496027D01*
X-138550141Y113496027D02*
X-138454903Y113543646D01*
X-138454903Y113543646D02*
X-138264427Y113543646D01*
X-138264427Y113543646D02*
X-138169189Y113496027D01*
X-138169189Y113496027D02*
X-138121570Y113448408D01*
X-138121570Y113448408D02*
X-138073951Y113353170D01*
X-138073951Y113353170D02*
X-138073951Y113115075D01*
X-138073951Y113115075D02*
X-138121570Y113019837D01*
X-138121570Y113019837D02*
X-138169189Y112972218D01*
X-138169189Y112972218D02*
X-138264427Y112924599D01*
X-138264427Y112924599D02*
X-138454903Y112924599D01*
X-138454903Y112924599D02*
X-138550141Y112972218D01*
X-138550141Y112972218D02*
X-138597760Y113019837D01*
X-138597760Y113019837D02*
X-138645379Y113115075D01*
X-135692998Y110956027D02*
X-135597760Y111003646D01*
X-135597760Y111003646D02*
X-135454903Y111003646D01*
X-135454903Y111003646D02*
X-135312046Y110956027D01*
X-135312046Y110956027D02*
X-135216808Y110860789D01*
X-135216808Y110860789D02*
X-135169189Y110765551D01*
X-135169189Y110765551D02*
X-135121570Y110575075D01*
X-135121570Y110575075D02*
X-135121570Y110432218D01*
X-135121570Y110432218D02*
X-135169189Y110241742D01*
X-135169189Y110241742D02*
X-135216808Y110146504D01*
X-135216808Y110146504D02*
X-135312046Y110051266D01*
X-135312046Y110051266D02*
X-135454903Y110003646D01*
X-135454903Y110003646D02*
X-135550141Y110003646D01*
X-135550141Y110003646D02*
X-135692998Y110051266D01*
X-135692998Y110051266D02*
X-135740617Y110098885D01*
X-135740617Y110098885D02*
X-135740617Y110432218D01*
X-135740617Y110432218D02*
X-135550141Y110432218D01*
X-136169189Y110003646D02*
X-136169189Y111003646D01*
X-136169189Y111003646D02*
X-136550141Y111003646D01*
X-136550141Y111003646D02*
X-136645379Y110956027D01*
X-136645379Y110956027D02*
X-136692998Y110908408D01*
X-136692998Y110908408D02*
X-136740617Y110813170D01*
X-136740617Y110813170D02*
X-136740617Y110670313D01*
X-136740617Y110670313D02*
X-136692998Y110575075D01*
X-136692998Y110575075D02*
X-136645379Y110527456D01*
X-136645379Y110527456D02*
X-136550141Y110479837D01*
X-136550141Y110479837D02*
X-136169189Y110479837D01*
X-137121570Y110908408D02*
X-137169189Y110956027D01*
X-137169189Y110956027D02*
X-137264427Y111003646D01*
X-137264427Y111003646D02*
X-137502522Y111003646D01*
X-137502522Y111003646D02*
X-137597760Y110956027D01*
X-137597760Y110956027D02*
X-137645379Y110908408D01*
X-137645379Y110908408D02*
X-137692998Y110813170D01*
X-137692998Y110813170D02*
X-137692998Y110717932D01*
X-137692998Y110717932D02*
X-137645379Y110575075D01*
X-137645379Y110575075D02*
X-137073951Y110003646D01*
X-137073951Y110003646D02*
X-137692998Y110003646D01*
X-138264427Y110575075D02*
X-138169189Y110622694D01*
X-138169189Y110622694D02*
X-138121570Y110670313D01*
X-138121570Y110670313D02*
X-138073951Y110765551D01*
X-138073951Y110765551D02*
X-138073951Y110813170D01*
X-138073951Y110813170D02*
X-138121570Y110908408D01*
X-138121570Y110908408D02*
X-138169189Y110956027D01*
X-138169189Y110956027D02*
X-138264427Y111003646D01*
X-138264427Y111003646D02*
X-138454903Y111003646D01*
X-138454903Y111003646D02*
X-138550141Y110956027D01*
X-138550141Y110956027D02*
X-138597760Y110908408D01*
X-138597760Y110908408D02*
X-138645379Y110813170D01*
X-138645379Y110813170D02*
X-138645379Y110765551D01*
X-138645379Y110765551D02*
X-138597760Y110670313D01*
X-138597760Y110670313D02*
X-138550141Y110622694D01*
X-138550141Y110622694D02*
X-138454903Y110575075D01*
X-138454903Y110575075D02*
X-138264427Y110575075D01*
X-138264427Y110575075D02*
X-138169189Y110527456D01*
X-138169189Y110527456D02*
X-138121570Y110479837D01*
X-138121570Y110479837D02*
X-138073951Y110384599D01*
X-138073951Y110384599D02*
X-138073951Y110194123D01*
X-138073951Y110194123D02*
X-138121570Y110098885D01*
X-138121570Y110098885D02*
X-138169189Y110051266D01*
X-138169189Y110051266D02*
X-138264427Y110003646D01*
X-138264427Y110003646D02*
X-138454903Y110003646D01*
X-138454903Y110003646D02*
X-138550141Y110051266D01*
X-138550141Y110051266D02*
X-138597760Y110098885D01*
X-138597760Y110098885D02*
X-138645379Y110194123D01*
X-138645379Y110194123D02*
X-138645379Y110384599D01*
X-138645379Y110384599D02*
X-138597760Y110479837D01*
X-138597760Y110479837D02*
X-138550141Y110527456D01*
X-138550141Y110527456D02*
X-138454903Y110575075D01*
X-136121570Y118576027D02*
X-136026332Y118623646D01*
X-136026332Y118623646D02*
X-135883475Y118623646D01*
X-135883475Y118623646D02*
X-135740618Y118576027D01*
X-135740618Y118576027D02*
X-135645380Y118480789D01*
X-135645380Y118480789D02*
X-135597761Y118385551D01*
X-135597761Y118385551D02*
X-135550142Y118195075D01*
X-135550142Y118195075D02*
X-135550142Y118052218D01*
X-135550142Y118052218D02*
X-135597761Y117861742D01*
X-135597761Y117861742D02*
X-135645380Y117766504D01*
X-135645380Y117766504D02*
X-135740618Y117671266D01*
X-135740618Y117671266D02*
X-135883475Y117623646D01*
X-135883475Y117623646D02*
X-135978713Y117623646D01*
X-135978713Y117623646D02*
X-136121570Y117671266D01*
X-136121570Y117671266D02*
X-136169189Y117718885D01*
X-136169189Y117718885D02*
X-136169189Y118052218D01*
X-136169189Y118052218D02*
X-135978713Y118052218D01*
X-136597761Y117623646D02*
X-136597761Y118623646D01*
X-136597761Y118623646D02*
X-137169189Y117623646D01*
X-137169189Y117623646D02*
X-137169189Y118623646D01*
X-137645380Y117623646D02*
X-137645380Y118623646D01*
X-137645380Y118623646D02*
X-137883475Y118623646D01*
X-137883475Y118623646D02*
X-138026332Y118576027D01*
X-138026332Y118576027D02*
X-138121570Y118480789D01*
X-138121570Y118480789D02*
X-138169189Y118385551D01*
X-138169189Y118385551D02*
X-138216808Y118195075D01*
X-138216808Y118195075D02*
X-138216808Y118052218D01*
X-138216808Y118052218D02*
X-138169189Y117861742D01*
X-138169189Y117861742D02*
X-138121570Y117766504D01*
X-138121570Y117766504D02*
X-138026332Y117671266D01*
X-138026332Y117671266D02*
X-137883475Y117623646D01*
X-137883475Y117623646D02*
X-137645380Y117623646D01*
X-156489189Y110956027D02*
X-156393951Y111003646D01*
X-156393951Y111003646D02*
X-156251094Y111003646D01*
X-156251094Y111003646D02*
X-156108237Y110956027D01*
X-156108237Y110956027D02*
X-156012999Y110860789D01*
X-156012999Y110860789D02*
X-155965380Y110765551D01*
X-155965380Y110765551D02*
X-155917761Y110575075D01*
X-155917761Y110575075D02*
X-155917761Y110432218D01*
X-155917761Y110432218D02*
X-155965380Y110241742D01*
X-155965380Y110241742D02*
X-156012999Y110146504D01*
X-156012999Y110146504D02*
X-156108237Y110051266D01*
X-156108237Y110051266D02*
X-156251094Y110003646D01*
X-156251094Y110003646D02*
X-156346332Y110003646D01*
X-156346332Y110003646D02*
X-156489189Y110051266D01*
X-156489189Y110051266D02*
X-156536808Y110098885D01*
X-156536808Y110098885D02*
X-156536808Y110432218D01*
X-156536808Y110432218D02*
X-156346332Y110432218D01*
X-156965380Y110003646D02*
X-156965380Y111003646D01*
X-156965380Y111003646D02*
X-157346332Y111003646D01*
X-157346332Y111003646D02*
X-157441570Y110956027D01*
X-157441570Y110956027D02*
X-157489189Y110908408D01*
X-157489189Y110908408D02*
X-157536808Y110813170D01*
X-157536808Y110813170D02*
X-157536808Y110670313D01*
X-157536808Y110670313D02*
X-157489189Y110575075D01*
X-157489189Y110575075D02*
X-157441570Y110527456D01*
X-157441570Y110527456D02*
X-157346332Y110479837D01*
X-157346332Y110479837D02*
X-156965380Y110479837D01*
X-158393951Y110670313D02*
X-158393951Y110003646D01*
X-158155856Y111051266D02*
X-157917761Y110336980D01*
X-157917761Y110336980D02*
X-158536808Y110336980D01*
X-156489189Y100796027D02*
X-156393951Y100843646D01*
X-156393951Y100843646D02*
X-156251094Y100843646D01*
X-156251094Y100843646D02*
X-156108237Y100796027D01*
X-156108237Y100796027D02*
X-156012999Y100700789D01*
X-156012999Y100700789D02*
X-155965380Y100605551D01*
X-155965380Y100605551D02*
X-155917761Y100415075D01*
X-155917761Y100415075D02*
X-155917761Y100272218D01*
X-155917761Y100272218D02*
X-155965380Y100081742D01*
X-155965380Y100081742D02*
X-156012999Y99986504D01*
X-156012999Y99986504D02*
X-156108237Y99891266D01*
X-156108237Y99891266D02*
X-156251094Y99843646D01*
X-156251094Y99843646D02*
X-156346332Y99843646D01*
X-156346332Y99843646D02*
X-156489189Y99891266D01*
X-156489189Y99891266D02*
X-156536808Y99938885D01*
X-156536808Y99938885D02*
X-156536808Y100272218D01*
X-156536808Y100272218D02*
X-156346332Y100272218D01*
X-156965380Y99843646D02*
X-156965380Y100843646D01*
X-156965380Y100843646D02*
X-157346332Y100843646D01*
X-157346332Y100843646D02*
X-157441570Y100796027D01*
X-157441570Y100796027D02*
X-157489189Y100748408D01*
X-157489189Y100748408D02*
X-157536808Y100653170D01*
X-157536808Y100653170D02*
X-157536808Y100510313D01*
X-157536808Y100510313D02*
X-157489189Y100415075D01*
X-157489189Y100415075D02*
X-157441570Y100367456D01*
X-157441570Y100367456D02*
X-157346332Y100319837D01*
X-157346332Y100319837D02*
X-156965380Y100319837D01*
X-158108237Y100415075D02*
X-158012999Y100462694D01*
X-158012999Y100462694D02*
X-157965380Y100510313D01*
X-157965380Y100510313D02*
X-157917761Y100605551D01*
X-157917761Y100605551D02*
X-157917761Y100653170D01*
X-157917761Y100653170D02*
X-157965380Y100748408D01*
X-157965380Y100748408D02*
X-158012999Y100796027D01*
X-158012999Y100796027D02*
X-158108237Y100843646D01*
X-158108237Y100843646D02*
X-158298713Y100843646D01*
X-158298713Y100843646D02*
X-158393951Y100796027D01*
X-158393951Y100796027D02*
X-158441570Y100748408D01*
X-158441570Y100748408D02*
X-158489189Y100653170D01*
X-158489189Y100653170D02*
X-158489189Y100605551D01*
X-158489189Y100605551D02*
X-158441570Y100510313D01*
X-158441570Y100510313D02*
X-158393951Y100462694D01*
X-158393951Y100462694D02*
X-158298713Y100415075D01*
X-158298713Y100415075D02*
X-158108237Y100415075D01*
X-158108237Y100415075D02*
X-158012999Y100367456D01*
X-158012999Y100367456D02*
X-157965380Y100319837D01*
X-157965380Y100319837D02*
X-157917761Y100224599D01*
X-157917761Y100224599D02*
X-157917761Y100034123D01*
X-157917761Y100034123D02*
X-157965380Y99938885D01*
X-157965380Y99938885D02*
X-158012999Y99891266D01*
X-158012999Y99891266D02*
X-158108237Y99843646D01*
X-158108237Y99843646D02*
X-158298713Y99843646D01*
X-158298713Y99843646D02*
X-158393951Y99891266D01*
X-158393951Y99891266D02*
X-158441570Y99938885D01*
X-158441570Y99938885D02*
X-158489189Y100034123D01*
X-158489189Y100034123D02*
X-158489189Y100224599D01*
X-158489189Y100224599D02*
X-158441570Y100319837D01*
X-158441570Y100319837D02*
X-158393951Y100367456D01*
X-158393951Y100367456D02*
X-158298713Y100415075D01*
X-135692998Y100796027D02*
X-135597760Y100843646D01*
X-135597760Y100843646D02*
X-135454903Y100843646D01*
X-135454903Y100843646D02*
X-135312046Y100796027D01*
X-135312046Y100796027D02*
X-135216808Y100700789D01*
X-135216808Y100700789D02*
X-135169189Y100605551D01*
X-135169189Y100605551D02*
X-135121570Y100415075D01*
X-135121570Y100415075D02*
X-135121570Y100272218D01*
X-135121570Y100272218D02*
X-135169189Y100081742D01*
X-135169189Y100081742D02*
X-135216808Y99986504D01*
X-135216808Y99986504D02*
X-135312046Y99891266D01*
X-135312046Y99891266D02*
X-135454903Y99843646D01*
X-135454903Y99843646D02*
X-135550141Y99843646D01*
X-135550141Y99843646D02*
X-135692998Y99891266D01*
X-135692998Y99891266D02*
X-135740617Y99938885D01*
X-135740617Y99938885D02*
X-135740617Y100272218D01*
X-135740617Y100272218D02*
X-135550141Y100272218D01*
X-136169189Y99843646D02*
X-136169189Y100843646D01*
X-136169189Y100843646D02*
X-136550141Y100843646D01*
X-136550141Y100843646D02*
X-136645379Y100796027D01*
X-136645379Y100796027D02*
X-136692998Y100748408D01*
X-136692998Y100748408D02*
X-136740617Y100653170D01*
X-136740617Y100653170D02*
X-136740617Y100510313D01*
X-136740617Y100510313D02*
X-136692998Y100415075D01*
X-136692998Y100415075D02*
X-136645379Y100367456D01*
X-136645379Y100367456D02*
X-136550141Y100319837D01*
X-136550141Y100319837D02*
X-136169189Y100319837D01*
X-137692998Y99843646D02*
X-137121570Y99843646D01*
X-137407284Y99843646D02*
X-137407284Y100843646D01*
X-137407284Y100843646D02*
X-137312046Y100700789D01*
X-137312046Y100700789D02*
X-137216808Y100605551D01*
X-137216808Y100605551D02*
X-137121570Y100557932D01*
X-138550141Y100510313D02*
X-138550141Y99843646D01*
X-138312046Y100891266D02*
X-138073951Y100176980D01*
X-138073951Y100176980D02*
X-138692998Y100176980D01*
X-142453236Y98956742D02*
X-142500855Y99051980D01*
X-142500855Y99051980D02*
X-142500855Y99194837D01*
X-142500855Y99194837D02*
X-142453236Y99337694D01*
X-142453236Y99337694D02*
X-142357998Y99432932D01*
X-142357998Y99432932D02*
X-142262760Y99480551D01*
X-142262760Y99480551D02*
X-142072284Y99528170D01*
X-142072284Y99528170D02*
X-141929427Y99528170D01*
X-141929427Y99528170D02*
X-141738951Y99480551D01*
X-141738951Y99480551D02*
X-141643713Y99432932D01*
X-141643713Y99432932D02*
X-141548475Y99337694D01*
X-141548475Y99337694D02*
X-141500855Y99194837D01*
X-141500855Y99194837D02*
X-141500855Y99099599D01*
X-141500855Y99099599D02*
X-141548475Y98956742D01*
X-141548475Y98956742D02*
X-141596094Y98909123D01*
X-141596094Y98909123D02*
X-141929427Y98909123D01*
X-141929427Y98909123D02*
X-141929427Y99099599D01*
X-141500855Y98480551D02*
X-142500855Y98480551D01*
X-142500855Y98480551D02*
X-142500855Y98099599D01*
X-142500855Y98099599D02*
X-142453236Y98004361D01*
X-142453236Y98004361D02*
X-142405617Y97956742D01*
X-142405617Y97956742D02*
X-142310379Y97909123D01*
X-142310379Y97909123D02*
X-142167522Y97909123D01*
X-142167522Y97909123D02*
X-142072284Y97956742D01*
X-142072284Y97956742D02*
X-142024665Y98004361D01*
X-142024665Y98004361D02*
X-141977046Y98099599D01*
X-141977046Y98099599D02*
X-141977046Y98480551D01*
X-141500855Y96956742D02*
X-141500855Y97528170D01*
X-141500855Y97242456D02*
X-142500855Y97242456D01*
X-142500855Y97242456D02*
X-142357998Y97337694D01*
X-142357998Y97337694D02*
X-142262760Y97432932D01*
X-142262760Y97432932D02*
X-142215141Y97528170D01*
X-142500855Y96623408D02*
X-142500855Y96004361D01*
X-142500855Y96004361D02*
X-142119903Y96337694D01*
X-142119903Y96337694D02*
X-142119903Y96194837D01*
X-142119903Y96194837D02*
X-142072284Y96099599D01*
X-142072284Y96099599D02*
X-142024665Y96051980D01*
X-142024665Y96051980D02*
X-141929427Y96004361D01*
X-141929427Y96004361D02*
X-141691332Y96004361D01*
X-141691332Y96004361D02*
X-141596094Y96051980D01*
X-141596094Y96051980D02*
X-141548475Y96099599D01*
X-141548475Y96099599D02*
X-141500855Y96194837D01*
X-141500855Y96194837D02*
X-141500855Y96480551D01*
X-141500855Y96480551D02*
X-141548475Y96575789D01*
X-141548475Y96575789D02*
X-141596094Y96623408D01*
X-135692998Y108416027D02*
X-135597760Y108463646D01*
X-135597760Y108463646D02*
X-135454903Y108463646D01*
X-135454903Y108463646D02*
X-135312046Y108416027D01*
X-135312046Y108416027D02*
X-135216808Y108320789D01*
X-135216808Y108320789D02*
X-135169189Y108225551D01*
X-135169189Y108225551D02*
X-135121570Y108035075D01*
X-135121570Y108035075D02*
X-135121570Y107892218D01*
X-135121570Y107892218D02*
X-135169189Y107701742D01*
X-135169189Y107701742D02*
X-135216808Y107606504D01*
X-135216808Y107606504D02*
X-135312046Y107511266D01*
X-135312046Y107511266D02*
X-135454903Y107463646D01*
X-135454903Y107463646D02*
X-135550141Y107463646D01*
X-135550141Y107463646D02*
X-135692998Y107511266D01*
X-135692998Y107511266D02*
X-135740617Y107558885D01*
X-135740617Y107558885D02*
X-135740617Y107892218D01*
X-135740617Y107892218D02*
X-135550141Y107892218D01*
X-136169189Y107463646D02*
X-136169189Y108463646D01*
X-136169189Y108463646D02*
X-136550141Y108463646D01*
X-136550141Y108463646D02*
X-136645379Y108416027D01*
X-136645379Y108416027D02*
X-136692998Y108368408D01*
X-136692998Y108368408D02*
X-136740617Y108273170D01*
X-136740617Y108273170D02*
X-136740617Y108130313D01*
X-136740617Y108130313D02*
X-136692998Y108035075D01*
X-136692998Y108035075D02*
X-136645379Y107987456D01*
X-136645379Y107987456D02*
X-136550141Y107939837D01*
X-136550141Y107939837D02*
X-136169189Y107939837D01*
X-137121570Y108368408D02*
X-137169189Y108416027D01*
X-137169189Y108416027D02*
X-137264427Y108463646D01*
X-137264427Y108463646D02*
X-137502522Y108463646D01*
X-137502522Y108463646D02*
X-137597760Y108416027D01*
X-137597760Y108416027D02*
X-137645379Y108368408D01*
X-137645379Y108368408D02*
X-137692998Y108273170D01*
X-137692998Y108273170D02*
X-137692998Y108177932D01*
X-137692998Y108177932D02*
X-137645379Y108035075D01*
X-137645379Y108035075D02*
X-137073951Y107463646D01*
X-137073951Y107463646D02*
X-137692998Y107463646D01*
X-138026332Y108463646D02*
X-138692998Y108463646D01*
X-138692998Y108463646D02*
X-138264427Y107463646D01*
X-152613236Y98480551D02*
X-152660855Y98575789D01*
X-152660855Y98575789D02*
X-152660855Y98718646D01*
X-152660855Y98718646D02*
X-152613236Y98861503D01*
X-152613236Y98861503D02*
X-152517998Y98956741D01*
X-152517998Y98956741D02*
X-152422760Y99004360D01*
X-152422760Y99004360D02*
X-152232284Y99051979D01*
X-152232284Y99051979D02*
X-152089427Y99051979D01*
X-152089427Y99051979D02*
X-151898951Y99004360D01*
X-151898951Y99004360D02*
X-151803713Y98956741D01*
X-151803713Y98956741D02*
X-151708475Y98861503D01*
X-151708475Y98861503D02*
X-151660855Y98718646D01*
X-151660855Y98718646D02*
X-151660855Y98623408D01*
X-151660855Y98623408D02*
X-151708475Y98480551D01*
X-151708475Y98480551D02*
X-151756094Y98432932D01*
X-151756094Y98432932D02*
X-152089427Y98432932D01*
X-152089427Y98432932D02*
X-152089427Y98623408D01*
X-151660855Y98004360D02*
X-152660855Y98004360D01*
X-152660855Y98004360D02*
X-152660855Y97623408D01*
X-152660855Y97623408D02*
X-152613236Y97528170D01*
X-152613236Y97528170D02*
X-152565617Y97480551D01*
X-152565617Y97480551D02*
X-152470379Y97432932D01*
X-152470379Y97432932D02*
X-152327522Y97432932D01*
X-152327522Y97432932D02*
X-152232284Y97480551D01*
X-152232284Y97480551D02*
X-152184665Y97528170D01*
X-152184665Y97528170D02*
X-152137046Y97623408D01*
X-152137046Y97623408D02*
X-152137046Y98004360D01*
X-151660855Y96956741D02*
X-151660855Y96766265D01*
X-151660855Y96766265D02*
X-151708475Y96671027D01*
X-151708475Y96671027D02*
X-151756094Y96623408D01*
X-151756094Y96623408D02*
X-151898951Y96528170D01*
X-151898951Y96528170D02*
X-152089427Y96480551D01*
X-152089427Y96480551D02*
X-152470379Y96480551D01*
X-152470379Y96480551D02*
X-152565617Y96528170D01*
X-152565617Y96528170D02*
X-152613236Y96575789D01*
X-152613236Y96575789D02*
X-152660855Y96671027D01*
X-152660855Y96671027D02*
X-152660855Y96861503D01*
X-152660855Y96861503D02*
X-152613236Y96956741D01*
X-152613236Y96956741D02*
X-152565617Y97004360D01*
X-152565617Y97004360D02*
X-152470379Y97051979D01*
X-152470379Y97051979D02*
X-152232284Y97051979D01*
X-152232284Y97051979D02*
X-152137046Y97004360D01*
X-152137046Y97004360D02*
X-152089427Y96956741D01*
X-152089427Y96956741D02*
X-152041808Y96861503D01*
X-152041808Y96861503D02*
X-152041808Y96671027D01*
X-152041808Y96671027D02*
X-152089427Y96575789D01*
X-152089427Y96575789D02*
X-152137046Y96528170D01*
X-152137046Y96528170D02*
X-152232284Y96480551D01*
X-135692998Y105876027D02*
X-135597760Y105923646D01*
X-135597760Y105923646D02*
X-135454903Y105923646D01*
X-135454903Y105923646D02*
X-135312046Y105876027D01*
X-135312046Y105876027D02*
X-135216808Y105780789D01*
X-135216808Y105780789D02*
X-135169189Y105685551D01*
X-135169189Y105685551D02*
X-135121570Y105495075D01*
X-135121570Y105495075D02*
X-135121570Y105352218D01*
X-135121570Y105352218D02*
X-135169189Y105161742D01*
X-135169189Y105161742D02*
X-135216808Y105066504D01*
X-135216808Y105066504D02*
X-135312046Y104971266D01*
X-135312046Y104971266D02*
X-135454903Y104923646D01*
X-135454903Y104923646D02*
X-135550141Y104923646D01*
X-135550141Y104923646D02*
X-135692998Y104971266D01*
X-135692998Y104971266D02*
X-135740617Y105018885D01*
X-135740617Y105018885D02*
X-135740617Y105352218D01*
X-135740617Y105352218D02*
X-135550141Y105352218D01*
X-136169189Y104923646D02*
X-136169189Y105923646D01*
X-136169189Y105923646D02*
X-136550141Y105923646D01*
X-136550141Y105923646D02*
X-136645379Y105876027D01*
X-136645379Y105876027D02*
X-136692998Y105828408D01*
X-136692998Y105828408D02*
X-136740617Y105733170D01*
X-136740617Y105733170D02*
X-136740617Y105590313D01*
X-136740617Y105590313D02*
X-136692998Y105495075D01*
X-136692998Y105495075D02*
X-136645379Y105447456D01*
X-136645379Y105447456D02*
X-136550141Y105399837D01*
X-136550141Y105399837D02*
X-136169189Y105399837D01*
X-137121570Y105828408D02*
X-137169189Y105876027D01*
X-137169189Y105876027D02*
X-137264427Y105923646D01*
X-137264427Y105923646D02*
X-137502522Y105923646D01*
X-137502522Y105923646D02*
X-137597760Y105876027D01*
X-137597760Y105876027D02*
X-137645379Y105828408D01*
X-137645379Y105828408D02*
X-137692998Y105733170D01*
X-137692998Y105733170D02*
X-137692998Y105637932D01*
X-137692998Y105637932D02*
X-137645379Y105495075D01*
X-137645379Y105495075D02*
X-137073951Y104923646D01*
X-137073951Y104923646D02*
X-137692998Y104923646D01*
X-138550141Y105923646D02*
X-138359665Y105923646D01*
X-138359665Y105923646D02*
X-138264427Y105876027D01*
X-138264427Y105876027D02*
X-138216808Y105828408D01*
X-138216808Y105828408D02*
X-138121570Y105685551D01*
X-138121570Y105685551D02*
X-138073951Y105495075D01*
X-138073951Y105495075D02*
X-138073951Y105114123D01*
X-138073951Y105114123D02*
X-138121570Y105018885D01*
X-138121570Y105018885D02*
X-138169189Y104971266D01*
X-138169189Y104971266D02*
X-138264427Y104923646D01*
X-138264427Y104923646D02*
X-138454903Y104923646D01*
X-138454903Y104923646D02*
X-138550141Y104971266D01*
X-138550141Y104971266D02*
X-138597760Y105018885D01*
X-138597760Y105018885D02*
X-138645379Y105114123D01*
X-138645379Y105114123D02*
X-138645379Y105352218D01*
X-138645379Y105352218D02*
X-138597760Y105447456D01*
X-138597760Y105447456D02*
X-138550141Y105495075D01*
X-138550141Y105495075D02*
X-138454903Y105542694D01*
X-138454903Y105542694D02*
X-138264427Y105542694D01*
X-138264427Y105542694D02*
X-138169189Y105495075D01*
X-138169189Y105495075D02*
X-138121570Y105447456D01*
X-138121570Y105447456D02*
X-138073951Y105352218D01*
X-156489189Y113496027D02*
X-156393951Y113543646D01*
X-156393951Y113543646D02*
X-156251094Y113543646D01*
X-156251094Y113543646D02*
X-156108237Y113496027D01*
X-156108237Y113496027D02*
X-156012999Y113400789D01*
X-156012999Y113400789D02*
X-155965380Y113305551D01*
X-155965380Y113305551D02*
X-155917761Y113115075D01*
X-155917761Y113115075D02*
X-155917761Y112972218D01*
X-155917761Y112972218D02*
X-155965380Y112781742D01*
X-155965380Y112781742D02*
X-156012999Y112686504D01*
X-156012999Y112686504D02*
X-156108237Y112591266D01*
X-156108237Y112591266D02*
X-156251094Y112543646D01*
X-156251094Y112543646D02*
X-156346332Y112543646D01*
X-156346332Y112543646D02*
X-156489189Y112591266D01*
X-156489189Y112591266D02*
X-156536808Y112638885D01*
X-156536808Y112638885D02*
X-156536808Y112972218D01*
X-156536808Y112972218D02*
X-156346332Y112972218D01*
X-156965380Y112543646D02*
X-156965380Y113543646D01*
X-156965380Y113543646D02*
X-157346332Y113543646D01*
X-157346332Y113543646D02*
X-157441570Y113496027D01*
X-157441570Y113496027D02*
X-157489189Y113448408D01*
X-157489189Y113448408D02*
X-157536808Y113353170D01*
X-157536808Y113353170D02*
X-157536808Y113210313D01*
X-157536808Y113210313D02*
X-157489189Y113115075D01*
X-157489189Y113115075D02*
X-157441570Y113067456D01*
X-157441570Y113067456D02*
X-157346332Y113019837D01*
X-157346332Y113019837D02*
X-156965380Y113019837D01*
X-157870142Y113543646D02*
X-158489189Y113543646D01*
X-158489189Y113543646D02*
X-158155856Y113162694D01*
X-158155856Y113162694D02*
X-158298713Y113162694D01*
X-158298713Y113162694D02*
X-158393951Y113115075D01*
X-158393951Y113115075D02*
X-158441570Y113067456D01*
X-158441570Y113067456D02*
X-158489189Y112972218D01*
X-158489189Y112972218D02*
X-158489189Y112734123D01*
X-158489189Y112734123D02*
X-158441570Y112638885D01*
X-158441570Y112638885D02*
X-158393951Y112591266D01*
X-158393951Y112591266D02*
X-158298713Y112543646D01*
X-158298713Y112543646D02*
X-158012999Y112543646D01*
X-158012999Y112543646D02*
X-157917761Y112591266D01*
X-157917761Y112591266D02*
X-157870142Y112638885D01*
X-156489189Y121116027D02*
X-156393951Y121163646D01*
X-156393951Y121163646D02*
X-156251094Y121163646D01*
X-156251094Y121163646D02*
X-156108237Y121116027D01*
X-156108237Y121116027D02*
X-156012999Y121020789D01*
X-156012999Y121020789D02*
X-155965380Y120925551D01*
X-155965380Y120925551D02*
X-155917761Y120735075D01*
X-155917761Y120735075D02*
X-155917761Y120592218D01*
X-155917761Y120592218D02*
X-155965380Y120401742D01*
X-155965380Y120401742D02*
X-156012999Y120306504D01*
X-156012999Y120306504D02*
X-156108237Y120211266D01*
X-156108237Y120211266D02*
X-156251094Y120163646D01*
X-156251094Y120163646D02*
X-156346332Y120163646D01*
X-156346332Y120163646D02*
X-156489189Y120211266D01*
X-156489189Y120211266D02*
X-156536808Y120258885D01*
X-156536808Y120258885D02*
X-156536808Y120592218D01*
X-156536808Y120592218D02*
X-156346332Y120592218D01*
X-156965380Y120163646D02*
X-156965380Y121163646D01*
X-156965380Y121163646D02*
X-157346332Y121163646D01*
X-157346332Y121163646D02*
X-157441570Y121116027D01*
X-157441570Y121116027D02*
X-157489189Y121068408D01*
X-157489189Y121068408D02*
X-157536808Y120973170D01*
X-157536808Y120973170D02*
X-157536808Y120830313D01*
X-157536808Y120830313D02*
X-157489189Y120735075D01*
X-157489189Y120735075D02*
X-157441570Y120687456D01*
X-157441570Y120687456D02*
X-157346332Y120639837D01*
X-157346332Y120639837D02*
X-156965380Y120639837D01*
X-158155856Y121163646D02*
X-158251094Y121163646D01*
X-158251094Y121163646D02*
X-158346332Y121116027D01*
X-158346332Y121116027D02*
X-158393951Y121068408D01*
X-158393951Y121068408D02*
X-158441570Y120973170D01*
X-158441570Y120973170D02*
X-158489189Y120782694D01*
X-158489189Y120782694D02*
X-158489189Y120544599D01*
X-158489189Y120544599D02*
X-158441570Y120354123D01*
X-158441570Y120354123D02*
X-158393951Y120258885D01*
X-158393951Y120258885D02*
X-158346332Y120211266D01*
X-158346332Y120211266D02*
X-158251094Y120163646D01*
X-158251094Y120163646D02*
X-158155856Y120163646D01*
X-158155856Y120163646D02*
X-158060618Y120211266D01*
X-158060618Y120211266D02*
X-158012999Y120258885D01*
X-158012999Y120258885D02*
X-157965380Y120354123D01*
X-157965380Y120354123D02*
X-157917761Y120544599D01*
X-157917761Y120544599D02*
X-157917761Y120782694D01*
X-157917761Y120782694D02*
X-157965380Y120973170D01*
X-157965380Y120973170D02*
X-158012999Y121068408D01*
X-158012999Y121068408D02*
X-158060618Y121116027D01*
X-158060618Y121116027D02*
X-158155856Y121163646D01*
X-136692998Y121163646D02*
X-136216808Y121163646D01*
X-136216808Y121163646D02*
X-136169189Y120687456D01*
X-136169189Y120687456D02*
X-136216808Y120735075D01*
X-136216808Y120735075D02*
X-136312046Y120782694D01*
X-136312046Y120782694D02*
X-136550141Y120782694D01*
X-136550141Y120782694D02*
X-136645379Y120735075D01*
X-136645379Y120735075D02*
X-136692998Y120687456D01*
X-136692998Y120687456D02*
X-136740617Y120592218D01*
X-136740617Y120592218D02*
X-136740617Y120354123D01*
X-136740617Y120354123D02*
X-136692998Y120258885D01*
X-136692998Y120258885D02*
X-136645379Y120211266D01*
X-136645379Y120211266D02*
X-136550141Y120163646D01*
X-136550141Y120163646D02*
X-136312046Y120163646D01*
X-136312046Y120163646D02*
X-136216808Y120211266D01*
X-136216808Y120211266D02*
X-136169189Y120258885D01*
X-137026332Y121163646D02*
X-137359665Y120163646D01*
X-137359665Y120163646D02*
X-137692998Y121163646D01*
X-147533236Y98956742D02*
X-147580855Y99051980D01*
X-147580855Y99051980D02*
X-147580855Y99194837D01*
X-147580855Y99194837D02*
X-147533236Y99337694D01*
X-147533236Y99337694D02*
X-147437998Y99432932D01*
X-147437998Y99432932D02*
X-147342760Y99480551D01*
X-147342760Y99480551D02*
X-147152284Y99528170D01*
X-147152284Y99528170D02*
X-147009427Y99528170D01*
X-147009427Y99528170D02*
X-146818951Y99480551D01*
X-146818951Y99480551D02*
X-146723713Y99432932D01*
X-146723713Y99432932D02*
X-146628475Y99337694D01*
X-146628475Y99337694D02*
X-146580855Y99194837D01*
X-146580855Y99194837D02*
X-146580855Y99099599D01*
X-146580855Y99099599D02*
X-146628475Y98956742D01*
X-146628475Y98956742D02*
X-146676094Y98909123D01*
X-146676094Y98909123D02*
X-147009427Y98909123D01*
X-147009427Y98909123D02*
X-147009427Y99099599D01*
X-146580855Y98480551D02*
X-147580855Y98480551D01*
X-147580855Y98480551D02*
X-147580855Y98099599D01*
X-147580855Y98099599D02*
X-147533236Y98004361D01*
X-147533236Y98004361D02*
X-147485617Y97956742D01*
X-147485617Y97956742D02*
X-147390379Y97909123D01*
X-147390379Y97909123D02*
X-147247522Y97909123D01*
X-147247522Y97909123D02*
X-147152284Y97956742D01*
X-147152284Y97956742D02*
X-147104665Y98004361D01*
X-147104665Y98004361D02*
X-147057046Y98099599D01*
X-147057046Y98099599D02*
X-147057046Y98480551D01*
X-146580855Y96956742D02*
X-146580855Y97528170D01*
X-146580855Y97242456D02*
X-147580855Y97242456D01*
X-147580855Y97242456D02*
X-147437998Y97337694D01*
X-147437998Y97337694D02*
X-147342760Y97432932D01*
X-147342760Y97432932D02*
X-147295141Y97528170D01*
X-146580855Y96004361D02*
X-146580855Y96575789D01*
X-146580855Y96290075D02*
X-147580855Y96290075D01*
X-147580855Y96290075D02*
X-147437998Y96385313D01*
X-147437998Y96385313D02*
X-147342760Y96480551D01*
X-147342760Y96480551D02*
X-147295141Y96575789D01*
X-150073236Y98956742D02*
X-150120855Y99051980D01*
X-150120855Y99051980D02*
X-150120855Y99194837D01*
X-150120855Y99194837D02*
X-150073236Y99337694D01*
X-150073236Y99337694D02*
X-149977998Y99432932D01*
X-149977998Y99432932D02*
X-149882760Y99480551D01*
X-149882760Y99480551D02*
X-149692284Y99528170D01*
X-149692284Y99528170D02*
X-149549427Y99528170D01*
X-149549427Y99528170D02*
X-149358951Y99480551D01*
X-149358951Y99480551D02*
X-149263713Y99432932D01*
X-149263713Y99432932D02*
X-149168475Y99337694D01*
X-149168475Y99337694D02*
X-149120855Y99194837D01*
X-149120855Y99194837D02*
X-149120855Y99099599D01*
X-149120855Y99099599D02*
X-149168475Y98956742D01*
X-149168475Y98956742D02*
X-149216094Y98909123D01*
X-149216094Y98909123D02*
X-149549427Y98909123D01*
X-149549427Y98909123D02*
X-149549427Y99099599D01*
X-149120855Y98480551D02*
X-150120855Y98480551D01*
X-150120855Y98480551D02*
X-150120855Y98099599D01*
X-150120855Y98099599D02*
X-150073236Y98004361D01*
X-150073236Y98004361D02*
X-150025617Y97956742D01*
X-150025617Y97956742D02*
X-149930379Y97909123D01*
X-149930379Y97909123D02*
X-149787522Y97909123D01*
X-149787522Y97909123D02*
X-149692284Y97956742D01*
X-149692284Y97956742D02*
X-149644665Y98004361D01*
X-149644665Y98004361D02*
X-149597046Y98099599D01*
X-149597046Y98099599D02*
X-149597046Y98480551D01*
X-149120855Y96956742D02*
X-149120855Y97528170D01*
X-149120855Y97242456D02*
X-150120855Y97242456D01*
X-150120855Y97242456D02*
X-149977998Y97337694D01*
X-149977998Y97337694D02*
X-149882760Y97432932D01*
X-149882760Y97432932D02*
X-149835141Y97528170D01*
X-150120855Y96337694D02*
X-150120855Y96242456D01*
X-150120855Y96242456D02*
X-150073236Y96147218D01*
X-150073236Y96147218D02*
X-150025617Y96099599D01*
X-150025617Y96099599D02*
X-149930379Y96051980D01*
X-149930379Y96051980D02*
X-149739903Y96004361D01*
X-149739903Y96004361D02*
X-149501808Y96004361D01*
X-149501808Y96004361D02*
X-149311332Y96051980D01*
X-149311332Y96051980D02*
X-149216094Y96099599D01*
X-149216094Y96099599D02*
X-149168475Y96147218D01*
X-149168475Y96147218D02*
X-149120855Y96242456D01*
X-149120855Y96242456D02*
X-149120855Y96337694D01*
X-149120855Y96337694D02*
X-149168475Y96432932D01*
X-149168475Y96432932D02*
X-149216094Y96480551D01*
X-149216094Y96480551D02*
X-149311332Y96528170D01*
X-149311332Y96528170D02*
X-149501808Y96575789D01*
X-149501808Y96575789D02*
X-149739903Y96575789D01*
X-149739903Y96575789D02*
X-149930379Y96528170D01*
X-149930379Y96528170D02*
X-150025617Y96480551D01*
X-150025617Y96480551D02*
X-150073236Y96432932D01*
X-150073236Y96432932D02*
X-150120855Y96337694D01*
X-156489189Y105876027D02*
X-156393951Y105923646D01*
X-156393951Y105923646D02*
X-156251094Y105923646D01*
X-156251094Y105923646D02*
X-156108237Y105876027D01*
X-156108237Y105876027D02*
X-156012999Y105780789D01*
X-156012999Y105780789D02*
X-155965380Y105685551D01*
X-155965380Y105685551D02*
X-155917761Y105495075D01*
X-155917761Y105495075D02*
X-155917761Y105352218D01*
X-155917761Y105352218D02*
X-155965380Y105161742D01*
X-155965380Y105161742D02*
X-156012999Y105066504D01*
X-156012999Y105066504D02*
X-156108237Y104971266D01*
X-156108237Y104971266D02*
X-156251094Y104923646D01*
X-156251094Y104923646D02*
X-156346332Y104923646D01*
X-156346332Y104923646D02*
X-156489189Y104971266D01*
X-156489189Y104971266D02*
X-156536808Y105018885D01*
X-156536808Y105018885D02*
X-156536808Y105352218D01*
X-156536808Y105352218D02*
X-156346332Y105352218D01*
X-156965380Y104923646D02*
X-156965380Y105923646D01*
X-156965380Y105923646D02*
X-157346332Y105923646D01*
X-157346332Y105923646D02*
X-157441570Y105876027D01*
X-157441570Y105876027D02*
X-157489189Y105828408D01*
X-157489189Y105828408D02*
X-157536808Y105733170D01*
X-157536808Y105733170D02*
X-157536808Y105590313D01*
X-157536808Y105590313D02*
X-157489189Y105495075D01*
X-157489189Y105495075D02*
X-157441570Y105447456D01*
X-157441570Y105447456D02*
X-157346332Y105399837D01*
X-157346332Y105399837D02*
X-156965380Y105399837D01*
X-158393951Y105923646D02*
X-158203475Y105923646D01*
X-158203475Y105923646D02*
X-158108237Y105876027D01*
X-158108237Y105876027D02*
X-158060618Y105828408D01*
X-158060618Y105828408D02*
X-157965380Y105685551D01*
X-157965380Y105685551D02*
X-157917761Y105495075D01*
X-157917761Y105495075D02*
X-157917761Y105114123D01*
X-157917761Y105114123D02*
X-157965380Y105018885D01*
X-157965380Y105018885D02*
X-158012999Y104971266D01*
X-158012999Y104971266D02*
X-158108237Y104923646D01*
X-158108237Y104923646D02*
X-158298713Y104923646D01*
X-158298713Y104923646D02*
X-158393951Y104971266D01*
X-158393951Y104971266D02*
X-158441570Y105018885D01*
X-158441570Y105018885D02*
X-158489189Y105114123D01*
X-158489189Y105114123D02*
X-158489189Y105352218D01*
X-158489189Y105352218D02*
X-158441570Y105447456D01*
X-158441570Y105447456D02*
X-158393951Y105495075D01*
X-158393951Y105495075D02*
X-158298713Y105542694D01*
X-158298713Y105542694D02*
X-158108237Y105542694D01*
X-158108237Y105542694D02*
X-158012999Y105495075D01*
X-158012999Y105495075D02*
X-157965380Y105447456D01*
X-157965380Y105447456D02*
X-157917761Y105352218D01*
X-156489189Y108416027D02*
X-156393951Y108463646D01*
X-156393951Y108463646D02*
X-156251094Y108463646D01*
X-156251094Y108463646D02*
X-156108237Y108416027D01*
X-156108237Y108416027D02*
X-156012999Y108320789D01*
X-156012999Y108320789D02*
X-155965380Y108225551D01*
X-155965380Y108225551D02*
X-155917761Y108035075D01*
X-155917761Y108035075D02*
X-155917761Y107892218D01*
X-155917761Y107892218D02*
X-155965380Y107701742D01*
X-155965380Y107701742D02*
X-156012999Y107606504D01*
X-156012999Y107606504D02*
X-156108237Y107511266D01*
X-156108237Y107511266D02*
X-156251094Y107463646D01*
X-156251094Y107463646D02*
X-156346332Y107463646D01*
X-156346332Y107463646D02*
X-156489189Y107511266D01*
X-156489189Y107511266D02*
X-156536808Y107558885D01*
X-156536808Y107558885D02*
X-156536808Y107892218D01*
X-156536808Y107892218D02*
X-156346332Y107892218D01*
X-156965380Y107463646D02*
X-156965380Y108463646D01*
X-156965380Y108463646D02*
X-157346332Y108463646D01*
X-157346332Y108463646D02*
X-157441570Y108416027D01*
X-157441570Y108416027D02*
X-157489189Y108368408D01*
X-157489189Y108368408D02*
X-157536808Y108273170D01*
X-157536808Y108273170D02*
X-157536808Y108130313D01*
X-157536808Y108130313D02*
X-157489189Y108035075D01*
X-157489189Y108035075D02*
X-157441570Y107987456D01*
X-157441570Y107987456D02*
X-157346332Y107939837D01*
X-157346332Y107939837D02*
X-156965380Y107939837D01*
X-158441570Y108463646D02*
X-157965380Y108463646D01*
X-157965380Y108463646D02*
X-157917761Y107987456D01*
X-157917761Y107987456D02*
X-157965380Y108035075D01*
X-157965380Y108035075D02*
X-158060618Y108082694D01*
X-158060618Y108082694D02*
X-158298713Y108082694D01*
X-158298713Y108082694D02*
X-158393951Y108035075D01*
X-158393951Y108035075D02*
X-158441570Y107987456D01*
X-158441570Y107987456D02*
X-158489189Y107892218D01*
X-158489189Y107892218D02*
X-158489189Y107654123D01*
X-158489189Y107654123D02*
X-158441570Y107558885D01*
X-158441570Y107558885D02*
X-158393951Y107511266D01*
X-158393951Y107511266D02*
X-158298713Y107463646D01*
X-158298713Y107463646D02*
X-158060618Y107463646D01*
X-158060618Y107463646D02*
X-157965380Y107511266D01*
X-157965380Y107511266D02*
X-157917761Y107558885D01*
X-135692998Y103336027D02*
X-135597760Y103383646D01*
X-135597760Y103383646D02*
X-135454903Y103383646D01*
X-135454903Y103383646D02*
X-135312046Y103336027D01*
X-135312046Y103336027D02*
X-135216808Y103240789D01*
X-135216808Y103240789D02*
X-135169189Y103145551D01*
X-135169189Y103145551D02*
X-135121570Y102955075D01*
X-135121570Y102955075D02*
X-135121570Y102812218D01*
X-135121570Y102812218D02*
X-135169189Y102621742D01*
X-135169189Y102621742D02*
X-135216808Y102526504D01*
X-135216808Y102526504D02*
X-135312046Y102431266D01*
X-135312046Y102431266D02*
X-135454903Y102383646D01*
X-135454903Y102383646D02*
X-135550141Y102383646D01*
X-135550141Y102383646D02*
X-135692998Y102431266D01*
X-135692998Y102431266D02*
X-135740617Y102478885D01*
X-135740617Y102478885D02*
X-135740617Y102812218D01*
X-135740617Y102812218D02*
X-135550141Y102812218D01*
X-136169189Y102383646D02*
X-136169189Y103383646D01*
X-136169189Y103383646D02*
X-136550141Y103383646D01*
X-136550141Y103383646D02*
X-136645379Y103336027D01*
X-136645379Y103336027D02*
X-136692998Y103288408D01*
X-136692998Y103288408D02*
X-136740617Y103193170D01*
X-136740617Y103193170D02*
X-136740617Y103050313D01*
X-136740617Y103050313D02*
X-136692998Y102955075D01*
X-136692998Y102955075D02*
X-136645379Y102907456D01*
X-136645379Y102907456D02*
X-136550141Y102859837D01*
X-136550141Y102859837D02*
X-136169189Y102859837D01*
X-137692998Y102383646D02*
X-137121570Y102383646D01*
X-137407284Y102383646D02*
X-137407284Y103383646D01*
X-137407284Y103383646D02*
X-137312046Y103240789D01*
X-137312046Y103240789D02*
X-137216808Y103145551D01*
X-137216808Y103145551D02*
X-137121570Y103097932D01*
X-138597760Y103383646D02*
X-138121570Y103383646D01*
X-138121570Y103383646D02*
X-138073951Y102907456D01*
X-138073951Y102907456D02*
X-138121570Y102955075D01*
X-138121570Y102955075D02*
X-138216808Y103002694D01*
X-138216808Y103002694D02*
X-138454903Y103002694D01*
X-138454903Y103002694D02*
X-138550141Y102955075D01*
X-138550141Y102955075D02*
X-138597760Y102907456D01*
X-138597760Y102907456D02*
X-138645379Y102812218D01*
X-138645379Y102812218D02*
X-138645379Y102574123D01*
X-138645379Y102574123D02*
X-138597760Y102478885D01*
X-138597760Y102478885D02*
X-138550141Y102431266D01*
X-138550141Y102431266D02*
X-138454903Y102383646D01*
X-138454903Y102383646D02*
X-138216808Y102383646D01*
X-138216808Y102383646D02*
X-138121570Y102431266D01*
X-138121570Y102431266D02*
X-138073951Y102478885D01*
X-144993236Y98956742D02*
X-145040855Y99051980D01*
X-145040855Y99051980D02*
X-145040855Y99194837D01*
X-145040855Y99194837D02*
X-144993236Y99337694D01*
X-144993236Y99337694D02*
X-144897998Y99432932D01*
X-144897998Y99432932D02*
X-144802760Y99480551D01*
X-144802760Y99480551D02*
X-144612284Y99528170D01*
X-144612284Y99528170D02*
X-144469427Y99528170D01*
X-144469427Y99528170D02*
X-144278951Y99480551D01*
X-144278951Y99480551D02*
X-144183713Y99432932D01*
X-144183713Y99432932D02*
X-144088475Y99337694D01*
X-144088475Y99337694D02*
X-144040855Y99194837D01*
X-144040855Y99194837D02*
X-144040855Y99099599D01*
X-144040855Y99099599D02*
X-144088475Y98956742D01*
X-144088475Y98956742D02*
X-144136094Y98909123D01*
X-144136094Y98909123D02*
X-144469427Y98909123D01*
X-144469427Y98909123D02*
X-144469427Y99099599D01*
X-144040855Y98480551D02*
X-145040855Y98480551D01*
X-145040855Y98480551D02*
X-145040855Y98099599D01*
X-145040855Y98099599D02*
X-144993236Y98004361D01*
X-144993236Y98004361D02*
X-144945617Y97956742D01*
X-144945617Y97956742D02*
X-144850379Y97909123D01*
X-144850379Y97909123D02*
X-144707522Y97909123D01*
X-144707522Y97909123D02*
X-144612284Y97956742D01*
X-144612284Y97956742D02*
X-144564665Y98004361D01*
X-144564665Y98004361D02*
X-144517046Y98099599D01*
X-144517046Y98099599D02*
X-144517046Y98480551D01*
X-144040855Y96956742D02*
X-144040855Y97528170D01*
X-144040855Y97242456D02*
X-145040855Y97242456D01*
X-145040855Y97242456D02*
X-144897998Y97337694D01*
X-144897998Y97337694D02*
X-144802760Y97432932D01*
X-144802760Y97432932D02*
X-144755141Y97528170D01*
X-144945617Y96575789D02*
X-144993236Y96528170D01*
X-144993236Y96528170D02*
X-145040855Y96432932D01*
X-145040855Y96432932D02*
X-145040855Y96194837D01*
X-145040855Y96194837D02*
X-144993236Y96099599D01*
X-144993236Y96099599D02*
X-144945617Y96051980D01*
X-144945617Y96051980D02*
X-144850379Y96004361D01*
X-144850379Y96004361D02*
X-144755141Y96004361D01*
X-144755141Y96004361D02*
X-144612284Y96051980D01*
X-144612284Y96051980D02*
X-144040855Y96623408D01*
X-144040855Y96623408D02*
X-144040855Y96004361D01*
X-156489189Y103336027D02*
X-156393951Y103383646D01*
X-156393951Y103383646D02*
X-156251094Y103383646D01*
X-156251094Y103383646D02*
X-156108237Y103336027D01*
X-156108237Y103336027D02*
X-156012999Y103240789D01*
X-156012999Y103240789D02*
X-155965380Y103145551D01*
X-155965380Y103145551D02*
X-155917761Y102955075D01*
X-155917761Y102955075D02*
X-155917761Y102812218D01*
X-155917761Y102812218D02*
X-155965380Y102621742D01*
X-155965380Y102621742D02*
X-156012999Y102526504D01*
X-156012999Y102526504D02*
X-156108237Y102431266D01*
X-156108237Y102431266D02*
X-156251094Y102383646D01*
X-156251094Y102383646D02*
X-156346332Y102383646D01*
X-156346332Y102383646D02*
X-156489189Y102431266D01*
X-156489189Y102431266D02*
X-156536808Y102478885D01*
X-156536808Y102478885D02*
X-156536808Y102812218D01*
X-156536808Y102812218D02*
X-156346332Y102812218D01*
X-156965380Y102383646D02*
X-156965380Y103383646D01*
X-156965380Y103383646D02*
X-157346332Y103383646D01*
X-157346332Y103383646D02*
X-157441570Y103336027D01*
X-157441570Y103336027D02*
X-157489189Y103288408D01*
X-157489189Y103288408D02*
X-157536808Y103193170D01*
X-157536808Y103193170D02*
X-157536808Y103050313D01*
X-157536808Y103050313D02*
X-157489189Y102955075D01*
X-157489189Y102955075D02*
X-157441570Y102907456D01*
X-157441570Y102907456D02*
X-157346332Y102859837D01*
X-157346332Y102859837D02*
X-156965380Y102859837D01*
X-157870142Y103383646D02*
X-158536808Y103383646D01*
X-158536808Y103383646D02*
X-158108237Y102383646D01*
X-247998475Y108224267D02*
X-247998475Y104624267D01*
X-247998475Y104624267D02*
X-239798474Y104624267D01*
X-247978475Y107224267D02*
X-247978475Y104974267D01*
D12*
X-247848475Y104824267D02*
X-246598475Y104824267D01*
D13*
X-247798475Y107974267D02*
X-246498475Y107924267D01*
D14*
X-247498475Y105224267D02*
X-247498475Y107724267D01*
D15*
X-246198475Y106424267D02*
X-239498475Y106424267D01*
D11*
X-243198475Y108224267D02*
X-247998475Y108224267D01*
D16*
X-239428475Y106124267D02*
X-239428475Y108364267D01*
D17*
X-238298475Y109624267D02*
X-238298475Y107824268D01*
D13*
X-238148475Y109924267D02*
X-240598475Y109924267D01*
D11*
X-237948475Y110124267D02*
X-240978475Y110124267D01*
X-237948475Y105674267D02*
X-237948475Y110124267D01*
D10*
X-237798475Y107174267D02*
X-237798475Y106524267D01*
D11*
X-237698475Y107274267D02*
X-237898475Y107274267D01*
X-237698475Y106524267D02*
X-237698475Y107274267D01*
X-243198475Y108224267D02*
G75*
G03*
X-240982157Y110102796I65000J2170000D01*
G01*
D14*
X-242798475Y107824267D02*
G75*
G03*
X-240582157Y109702796I65000J2170000D01*
G01*
D11*
X-239798474Y104624267D02*
G75*
G03*
X-237698475Y106524268I99999J2000000D01*
G01*
X-227659181Y107984162D02*
X-228160204Y104419197D01*
X-228160204Y104419197D02*
X-220040005Y103277978D01*
X-227778549Y106991111D02*
X-228091688Y104763008D01*
D12*
X-227983829Y104596375D02*
X-226745994Y104422409D01*
D13*
X-227495920Y107708761D02*
X-226215531Y107478322D01*
D14*
X-227581566Y104943772D02*
X-227233633Y107419442D01*
D15*
X-226127210Y105951168D02*
X-219492414Y105018709D01*
D11*
X-222905894Y107316132D02*
X-227659181Y107984162D01*
D16*
X-219464847Y104711886D02*
X-219153099Y106930086D01*
D17*
X-217858738Y108020559D02*
X-218109250Y106238077D01*
D13*
X-217668446Y108296763D02*
X-220094603Y108637737D01*
D11*
X-217442558Y108466982D02*
X-220443070Y108888677D01*
X-218061878Y104060289D02*
X-217442558Y108466982D01*
D10*
X-217704578Y105524815D02*
X-217795041Y104881141D01*
D11*
X-217591634Y105609925D02*
X-217789688Y105637759D01*
X-217696014Y104867224D02*
X-217591634Y105609925D01*
X-222905894Y107316132D02*
G75*
G03*
X-220449705Y108867927I366373J2139835D01*
G01*
D14*
X-222565456Y106864356D02*
G75*
G03*
X-220109267Y108416151I366373J2139835D01*
G01*
D11*
X-220040005Y103277978D02*
G75*
G03*
X-217696014Y104867225I377372J1966619D01*
G01*
X-208794574Y105332914D02*
X-209295597Y101767949D01*
X-209295597Y101767949D02*
X-201175398Y100626730D01*
X-208913942Y104339863D02*
X-209227081Y102111760D01*
D12*
X-209119222Y101945127D02*
X-207881387Y101771161D01*
D13*
X-208631313Y105057513D02*
X-207350924Y104827074D01*
D14*
X-208716959Y102292524D02*
X-208369026Y104768194D01*
D15*
X-207262603Y103299920D02*
X-200627807Y102367461D01*
D11*
X-204041287Y104664884D02*
X-208794574Y105332914D01*
D16*
X-200600240Y102060638D02*
X-200288492Y104278838D01*
D17*
X-198994131Y105369311D02*
X-199244643Y103586829D01*
D13*
X-198803839Y105645515D02*
X-201229996Y105986489D01*
D11*
X-198577951Y105815734D02*
X-201578463Y106237429D01*
X-199197271Y101409041D02*
X-198577951Y105815734D01*
D10*
X-198839971Y102873567D02*
X-198930434Y102229893D01*
D11*
X-198727027Y102958677D02*
X-198925081Y102986511D01*
X-198831407Y102215976D02*
X-198727027Y102958677D01*
X-204041287Y104664884D02*
G75*
G03*
X-201585098Y106216679I366373J2139835D01*
G01*
D14*
X-203700849Y104213108D02*
G75*
G03*
X-201244660Y105764903I366373J2139835D01*
G01*
D11*
X-201175398Y100626730D02*
G75*
G03*
X-198831407Y102215977I377372J1966619D01*
G01*
X-189929968Y102681667D02*
X-190430991Y99116702D01*
X-190430991Y99116702D02*
X-182310792Y97975483D01*
X-190049336Y101688616D02*
X-190362475Y99460513D01*
D12*
X-190254616Y99293880D02*
X-189016781Y99119914D01*
D13*
X-189766707Y102406266D02*
X-188486318Y102175827D01*
D14*
X-189852353Y99641277D02*
X-189504420Y102116947D01*
D15*
X-188397997Y100648673D02*
X-181763201Y99716214D01*
D11*
X-185176681Y102013637D02*
X-189929968Y102681667D01*
D16*
X-181735634Y99409391D02*
X-181423886Y101627591D01*
D17*
X-180129525Y102718064D02*
X-180380037Y100935582D01*
D13*
X-179939233Y102994268D02*
X-182365390Y103335242D01*
D11*
X-179713345Y103164487D02*
X-182713857Y103586182D01*
X-180332665Y98757794D02*
X-179713345Y103164487D01*
D10*
X-179975365Y100222320D02*
X-180065828Y99578646D01*
D11*
X-179862421Y100307430D02*
X-180060475Y100335264D01*
X-179966801Y99564729D02*
X-179862421Y100307430D01*
X-185176681Y102013637D02*
G75*
G03*
X-182720492Y103565432I366373J2139835D01*
G01*
D14*
X-184836243Y101561861D02*
G75*
G03*
X-182380054Y103113656I366373J2139835D01*
G01*
D11*
X-182310792Y97975483D02*
G75*
G03*
X-179966801Y99564730I377372J1966619D01*
G01*
X-171065361Y100030419D02*
X-171566384Y96465454D01*
X-171566384Y96465454D02*
X-163446185Y95324235D01*
X-171184729Y99037368D02*
X-171497868Y96809265D01*
D12*
X-171390009Y96642632D02*
X-170152174Y96468666D01*
D13*
X-170902100Y99755018D02*
X-169621711Y99524579D01*
D14*
X-170987746Y96990029D02*
X-170639813Y99465699D01*
D15*
X-169533390Y97997425D02*
X-162898594Y97064966D01*
D11*
X-166312074Y99362389D02*
X-171065361Y100030419D01*
D16*
X-162871027Y96758143D02*
X-162559279Y98976343D01*
D17*
X-161264918Y100066816D02*
X-161515430Y98284334D01*
D13*
X-161074626Y100343020D02*
X-163500783Y100683994D01*
D11*
X-160848738Y100513239D02*
X-163849250Y100934934D01*
X-161468058Y96106546D02*
X-160848738Y100513239D01*
D10*
X-161110758Y97571072D02*
X-161201221Y96927398D01*
D11*
X-160997814Y97656182D02*
X-161195868Y97684016D01*
X-161102194Y96913481D02*
X-160997814Y97656182D01*
X-166312074Y99362389D02*
G75*
G03*
X-163855885Y100914184I366373J2139835D01*
G01*
D14*
X-165971636Y98910613D02*
G75*
G03*
X-163515447Y100462408I366373J2139835D01*
G01*
D11*
X-163446185Y95324235D02*
G75*
G03*
X-161102194Y96913482I377372J1966619D01*
G01*
X-136295092Y98368646D02*
X-135794069Y94803681D01*
X-135794069Y94803681D02*
X-127673870Y95944901D01*
X-136136114Y97381162D02*
X-135822974Y95153058D01*
D12*
X-135673363Y95022611D02*
X-134435528Y95196577D01*
D13*
X-136062245Y98148914D02*
X-134767938Y98280325D01*
D14*
X-135382439Y95467428D02*
X-135730372Y97943099D01*
D15*
X-134262098Y96836675D02*
X-127627302Y97769135D01*
D11*
X-131541805Y99036677D02*
X-136295092Y98368646D01*
D16*
X-127516231Y97481797D02*
X-127827979Y99699997D01*
D17*
X-126884334Y101105001D02*
X-126633823Y99322519D01*
D13*
X-126777546Y101422957D02*
X-129203703Y101081983D01*
D11*
X-126607327Y101648845D02*
X-129607839Y101227151D01*
X-125988007Y97242152D02*
X-126607327Y101648845D01*
D10*
X-126048226Y98748430D02*
X-125957764Y98104756D01*
D11*
X-125963117Y98861374D02*
X-126161170Y98833540D01*
X-125858737Y98118673D02*
X-125963117Y98861374D01*
X-131541805Y99036678D02*
G75*
G03*
X-129608498Y101205376I-237640J2157928D01*
G01*
D14*
X-131090029Y98696240D02*
G75*
G03*
X-129156722Y100864938I-237638J2157927D01*
G01*
D11*
X-127673870Y95944901D02*
G75*
G03*
X-125858737Y98118674I-179320J1994453D01*
G01*
X-117430485Y101019893D02*
X-116929462Y97454928D01*
X-116929462Y97454928D02*
X-108809263Y98596148D01*
X-117271507Y100032409D02*
X-116958367Y97804305D01*
D12*
X-116808756Y97673858D02*
X-115570921Y97847824D01*
D13*
X-117197638Y100800161D02*
X-115903331Y100931572D01*
D14*
X-116517832Y98118675D02*
X-116865765Y100594346D01*
D15*
X-115397491Y99487922D02*
X-108762695Y100420382D01*
D11*
X-112677198Y101687924D02*
X-117430485Y101019893D01*
D16*
X-108651624Y100133044D02*
X-108963372Y102351244D01*
D17*
X-108019727Y103756248D02*
X-107769216Y101973766D01*
D13*
X-107912939Y104074204D02*
X-110339096Y103733230D01*
D11*
X-107742720Y104300092D02*
X-110743232Y103878398D01*
X-107123400Y99893399D02*
X-107742720Y104300092D01*
D10*
X-107183619Y101399677D02*
X-107093157Y100756003D01*
D11*
X-107098510Y101512621D02*
X-107296563Y101484787D01*
X-106994130Y100769920D02*
X-107098510Y101512621D01*
X-112677198Y101687925D02*
G75*
G03*
X-110743891Y103856623I-237640J2157928D01*
G01*
D14*
X-112225422Y101347487D02*
G75*
G03*
X-110292115Y103516185I-237638J2157927D01*
G01*
D11*
X-108809263Y98596148D02*
G75*
G03*
X-106994130Y100769921I-179320J1994453D01*
G01*
X-98565879Y103671141D02*
X-98064856Y100106176D01*
X-98064856Y100106176D02*
X-89944657Y101247396D01*
X-98406901Y102683657D02*
X-98093761Y100455553D01*
D12*
X-97944150Y100325106D02*
X-96706315Y100499072D01*
D13*
X-98333032Y103451409D02*
X-97038725Y103582820D01*
D14*
X-97653226Y100769923D02*
X-98001159Y103245594D01*
D15*
X-96532885Y102139170D02*
X-89898089Y103071630D01*
D11*
X-93812592Y104339172D02*
X-98565879Y103671141D01*
D16*
X-89787018Y102784292D02*
X-90098766Y105002492D01*
D17*
X-89155121Y106407496D02*
X-88904610Y104625014D01*
D13*
X-89048333Y106725452D02*
X-91474490Y106384478D01*
D11*
X-88878114Y106951340D02*
X-91878626Y106529646D01*
X-88258794Y102544647D02*
X-88878114Y106951340D01*
D10*
X-88319013Y104050925D02*
X-88228551Y103407251D01*
D11*
X-88233904Y104163869D02*
X-88431957Y104136035D01*
X-88129524Y103421168D02*
X-88233904Y104163869D01*
X-93812592Y104339173D02*
G75*
G03*
X-91879285Y106507871I-237640J2157928D01*
G01*
D14*
X-93360816Y103998735D02*
G75*
G03*
X-91427509Y106167433I-237638J2157927D01*
G01*
D11*
X-89944657Y101247396D02*
G75*
G03*
X-88129524Y103421169I-179320J1994453D01*
G01*
X-79701272Y106322389D02*
X-79200249Y102757424D01*
X-79200249Y102757424D02*
X-71080050Y103898644D01*
X-79542294Y105334905D02*
X-79229154Y103106801D01*
D12*
X-79079543Y102976354D02*
X-77841708Y103150320D01*
D13*
X-79468425Y106102657D02*
X-78174118Y106234068D01*
D14*
X-78788619Y103421171D02*
X-79136552Y105896842D01*
D15*
X-77668278Y104790418D02*
X-71033482Y105722878D01*
D11*
X-74947985Y106990420D02*
X-79701272Y106322389D01*
D16*
X-70922411Y105435540D02*
X-71234159Y107653740D01*
D17*
X-70290514Y109058744D02*
X-70040003Y107276262D01*
D13*
X-70183726Y109376700D02*
X-72609883Y109035726D01*
D11*
X-70013507Y109602588D02*
X-73014019Y109180894D01*
X-69394187Y105195895D02*
X-70013507Y109602588D01*
D10*
X-69454406Y106702173D02*
X-69363944Y106058499D01*
D11*
X-69369297Y106815117D02*
X-69567350Y106787283D01*
X-69264917Y106072416D02*
X-69369297Y106815117D01*
X-74947985Y106990421D02*
G75*
G03*
X-73014678Y109159119I-237640J2157928D01*
G01*
D14*
X-74496209Y106649983D02*
G75*
G03*
X-72562902Y108818681I-237638J2157927D01*
G01*
D11*
X-71080050Y103898644D02*
G75*
G03*
X-69264917Y106072417I-179320J1994453D01*
G01*
X-206729670Y85805496D02*
X-207230693Y82240531D01*
X-207230693Y82240531D02*
X-199110494Y81099312D01*
X-206849038Y84812445D02*
X-207162177Y82584342D01*
D12*
X-207054318Y82417709D02*
X-205816483Y82243743D01*
D13*
X-206566409Y85530095D02*
X-205286020Y85299656D01*
D14*
X-206652055Y82765106D02*
X-206304122Y85240776D01*
D15*
X-205197699Y83772502D02*
X-198562903Y82840043D01*
D11*
X-201976383Y85137466D02*
X-206729670Y85805496D01*
D16*
X-198535336Y82533220D02*
X-198223588Y84751420D01*
D17*
X-196929227Y85841893D02*
X-197179739Y84059411D01*
D13*
X-196738935Y86118097D02*
X-199165092Y86459071D01*
D11*
X-196513047Y86288316D02*
X-199513559Y86710011D01*
X-197132367Y81881623D02*
X-196513047Y86288316D01*
D10*
X-196775067Y83346149D02*
X-196865530Y82702475D01*
D11*
X-196662123Y83431259D02*
X-196860177Y83459093D01*
X-196766503Y82688558D02*
X-196662123Y83431259D01*
X-201976383Y85137466D02*
G75*
G03*
X-199520194Y86689261I366373J2139835D01*
G01*
D14*
X-201635945Y84685690D02*
G75*
G03*
X-199179756Y86237485I366373J2139835D01*
G01*
D11*
X-199110494Y81099312D02*
G75*
G03*
X-196766503Y82688559I377372J1966619D01*
G01*
X-187865063Y83154248D02*
X-188366086Y79589283D01*
X-188366086Y79589283D02*
X-180245887Y78448064D01*
X-187984431Y82161197D02*
X-188297570Y79933094D01*
D12*
X-188189711Y79766461D02*
X-186951876Y79592495D01*
D13*
X-187701802Y82878847D02*
X-186421413Y82648408D01*
D14*
X-187787448Y80113858D02*
X-187439515Y82589528D01*
D15*
X-186333092Y81121254D02*
X-179698296Y80188795D01*
D11*
X-183111776Y82486218D02*
X-187865063Y83154248D01*
D16*
X-179670729Y79881972D02*
X-179358981Y82100172D01*
D17*
X-178064620Y83190645D02*
X-178315132Y81408163D01*
D13*
X-177874328Y83466849D02*
X-180300485Y83807823D01*
D11*
X-177648440Y83637068D02*
X-180648952Y84058763D01*
X-178267760Y79230375D02*
X-177648440Y83637068D01*
D10*
X-177910460Y80694901D02*
X-178000923Y80051227D01*
D11*
X-177797516Y80780011D02*
X-177995570Y80807845D01*
X-177901896Y80037310D02*
X-177797516Y80780011D01*
X-183111776Y82486218D02*
G75*
G03*
X-180655587Y84038013I366373J2139835D01*
G01*
D14*
X-182771338Y82034442D02*
G75*
G03*
X-180315149Y83586237I366373J2139835D01*
G01*
D11*
X-180245887Y78448064D02*
G75*
G03*
X-177901896Y80037311I377372J1966619D01*
G01*
X-169000457Y80503001D02*
X-169501480Y76938036D01*
X-169501480Y76938036D02*
X-161381281Y75796817D01*
X-169119825Y79509950D02*
X-169432964Y77281847D01*
D12*
X-169325105Y77115214D02*
X-168087270Y76941248D01*
D13*
X-168837196Y80227600D02*
X-167556807Y79997161D01*
D14*
X-168922842Y77462611D02*
X-168574909Y79938281D01*
D15*
X-167468486Y78470007D02*
X-160833690Y77537548D01*
D11*
X-164247170Y79834971D02*
X-169000457Y80503001D01*
D16*
X-160806123Y77230725D02*
X-160494375Y79448925D01*
D17*
X-159200014Y80539398D02*
X-159450526Y78756916D01*
D13*
X-159009722Y80815602D02*
X-161435879Y81156576D01*
D11*
X-158783834Y80985821D02*
X-161784346Y81407516D01*
X-159403154Y76579128D02*
X-158783834Y80985821D01*
D10*
X-159045854Y78043654D02*
X-159136317Y77399980D01*
D11*
X-158932910Y78128764D02*
X-159130964Y78156598D01*
X-159037290Y77386063D02*
X-158932910Y78128764D01*
X-164247170Y79834971D02*
G75*
G03*
X-161790981Y81386766I366373J2139835D01*
G01*
D14*
X-163906732Y79383195D02*
G75*
G03*
X-161450543Y80934990I366373J2139835D01*
G01*
D11*
X-161381281Y75796817D02*
G75*
G03*
X-159037290Y77386064I377372J1966619D01*
G01*
X-128927693Y80166851D02*
X-128426670Y76601886D01*
X-128426670Y76601886D02*
X-120306471Y77743106D01*
X-128768715Y79179367D02*
X-128455575Y76951263D01*
D12*
X-128305964Y76820816D02*
X-127068129Y76994782D01*
D13*
X-128694846Y79947119D02*
X-127400539Y80078530D01*
D14*
X-128015040Y77265633D02*
X-128362973Y79741304D01*
D15*
X-126894699Y78634880D02*
X-120259903Y79567340D01*
D11*
X-124174406Y80834882D02*
X-128927693Y80166851D01*
D16*
X-120148832Y79280002D02*
X-120460580Y81498202D01*
D17*
X-119516935Y82903206D02*
X-119266424Y81120724D01*
D13*
X-119410147Y83221162D02*
X-121836304Y82880188D01*
D11*
X-119239928Y83447050D02*
X-122240440Y83025356D01*
X-118620608Y79040357D02*
X-119239928Y83447050D01*
D10*
X-118680827Y80546635D02*
X-118590365Y79902961D01*
D11*
X-118595718Y80659579D02*
X-118793771Y80631745D01*
X-118491338Y79916878D02*
X-118595718Y80659579D01*
X-124174406Y80834883D02*
G75*
G03*
X-122241099Y83003581I-237640J2157928D01*
G01*
D14*
X-123722630Y80494445D02*
G75*
G03*
X-121789323Y82663143I-237638J2157927D01*
G01*
D11*
X-120306471Y77743106D02*
G75*
G03*
X-118491338Y79916879I-179320J1994453D01*
G01*
X-110063086Y82818099D02*
X-109562063Y79253134D01*
X-109562063Y79253134D02*
X-101441864Y80394354D01*
X-109904108Y81830615D02*
X-109590968Y79602511D01*
D12*
X-109441357Y79472064D02*
X-108203522Y79646030D01*
D13*
X-109830239Y82598367D02*
X-108535932Y82729778D01*
D14*
X-109150433Y79916881D02*
X-109498366Y82392552D01*
D15*
X-108030092Y81286128D02*
X-101395296Y82218588D01*
D11*
X-105309799Y83486130D02*
X-110063086Y82818099D01*
D16*
X-101284225Y81931250D02*
X-101595973Y84149450D01*
D17*
X-100652328Y85554454D02*
X-100401817Y83771972D01*
D13*
X-100545540Y85872410D02*
X-102971697Y85531436D01*
D11*
X-100375321Y86098298D02*
X-103375833Y85676604D01*
X-99756001Y81691605D02*
X-100375321Y86098298D01*
D10*
X-99816220Y83197883D02*
X-99725758Y82554209D01*
D11*
X-99731111Y83310827D02*
X-99929164Y83282993D01*
X-99626731Y82568126D02*
X-99731111Y83310827D01*
X-105309799Y83486131D02*
G75*
G03*
X-103376492Y85654829I-237640J2157928D01*
G01*
D14*
X-104858023Y83145693D02*
G75*
G03*
X-102924716Y85314391I-237638J2157927D01*
G01*
D11*
X-101441864Y80394354D02*
G75*
G03*
X-99626731Y82568127I-179320J1994453D01*
G01*
X-91198479Y85469346D02*
X-90697456Y81904381D01*
X-90697456Y81904381D02*
X-82577257Y83045601D01*
X-91039501Y84481862D02*
X-90726361Y82253758D01*
D12*
X-90576750Y82123311D02*
X-89338915Y82297277D01*
D13*
X-90965632Y85249614D02*
X-89671325Y85381025D01*
D14*
X-90285826Y82568128D02*
X-90633759Y85043799D01*
D15*
X-89165485Y83937375D02*
X-82530689Y84869835D01*
D11*
X-86445192Y86137377D02*
X-91198479Y85469346D01*
D16*
X-82419618Y84582497D02*
X-82731366Y86800697D01*
D17*
X-81787721Y88205701D02*
X-81537210Y86423219D01*
D13*
X-81680933Y88523657D02*
X-84107090Y88182683D01*
D11*
X-81510714Y88749545D02*
X-84511226Y88327851D01*
X-80891394Y84342852D02*
X-81510714Y88749545D01*
D10*
X-80951613Y85849130D02*
X-80861151Y85205456D01*
D11*
X-80866504Y85962074D02*
X-81064557Y85934240D01*
X-80762124Y85219373D02*
X-80866504Y85962074D01*
X-86445192Y86137378D02*
G75*
G03*
X-84511885Y88306076I-237640J2157928D01*
G01*
D14*
X-85993416Y85796940D02*
G75*
G03*
X-84060109Y87965638I-237638J2157927D01*
G01*
D11*
X-82577257Y83045601D02*
G75*
G03*
X-80762124Y85219374I-179320J1994453D01*
G01*
X-72333873Y88120594D02*
X-71832850Y84555629D01*
X-71832850Y84555629D02*
X-63712651Y85696849D01*
X-72174895Y87133110D02*
X-71861755Y84905006D01*
D12*
X-71712144Y84774559D02*
X-70474309Y84948525D01*
D13*
X-72101026Y87900862D02*
X-70806719Y88032273D01*
D14*
X-71421220Y85219376D02*
X-71769153Y87695047D01*
D15*
X-70300879Y86588623D02*
X-63666083Y87521083D01*
D11*
X-67580586Y88788625D02*
X-72333873Y88120594D01*
D16*
X-63555012Y87233745D02*
X-63866760Y89451945D01*
D17*
X-62923115Y90856949D02*
X-62672604Y89074467D01*
D13*
X-62816327Y91174905D02*
X-65242484Y90833931D01*
D11*
X-62646108Y91400793D02*
X-65646620Y90979099D01*
X-62026788Y86994100D02*
X-62646108Y91400793D01*
D10*
X-62087007Y88500378D02*
X-61996545Y87856704D01*
D11*
X-62001898Y88613322D02*
X-62199951Y88585488D01*
X-61897518Y87870621D02*
X-62001898Y88613322D01*
X-67580586Y88788626D02*
G75*
G03*
X-65647279Y90957324I-237640J2157928D01*
G01*
D14*
X-67128810Y88448188D02*
G75*
G03*
X-65195503Y90616886I-237638J2157927D01*
G01*
D11*
X-63712651Y85696849D02*
G75*
G03*
X-61897518Y87870622I-179320J1994453D01*
G01*
X-51973975Y89174266D02*
X-51973975Y85574266D01*
X-51973975Y85574266D02*
X-43773974Y85574266D01*
X-51953975Y88174266D02*
X-51953975Y85924266D01*
D12*
X-51823975Y85774266D02*
X-50573975Y85774266D01*
D13*
X-51773975Y88924266D02*
X-50473975Y88874266D01*
D14*
X-51473975Y86174266D02*
X-51473975Y88674266D01*
D15*
X-50173975Y87374266D02*
X-43473975Y87374266D01*
D11*
X-47173975Y89174266D02*
X-51973975Y89174266D01*
D16*
X-43403975Y87074266D02*
X-43403975Y89314266D01*
D17*
X-42273975Y90574266D02*
X-42273975Y88774267D01*
D13*
X-42123975Y90874266D02*
X-44573975Y90874266D01*
D11*
X-41923975Y91074266D02*
X-44953975Y91074266D01*
X-41923975Y86624266D02*
X-41923975Y91074266D01*
D10*
X-41773975Y88124266D02*
X-41773975Y87474266D01*
D11*
X-41673975Y88224266D02*
X-41873975Y88224266D01*
X-41673975Y87474266D02*
X-41673975Y88224266D01*
X-47173975Y89174266D02*
G75*
G03*
X-44957657Y91052795I65000J2170000D01*
G01*
D14*
X-46773975Y88774266D02*
G75*
G03*
X-44557657Y90652795I65000J2170000D01*
G01*
D11*
X-43773974Y85574266D02*
G75*
G03*
X-41673975Y87474267I99999J2000000D01*
G01*
X-218813221Y68266513D02*
X-219314244Y64701548D01*
X-219314244Y64701548D02*
X-211194045Y63560329D01*
X-218932589Y67273462D02*
X-219245728Y65045359D01*
D12*
X-219137869Y64878726D02*
X-217900034Y64704760D01*
D13*
X-218649960Y67991112D02*
X-217369571Y67760673D01*
D14*
X-218735606Y65226123D02*
X-218387673Y67701793D01*
D15*
X-217281250Y66233519D02*
X-210646454Y65301060D01*
D11*
X-214059934Y67598483D02*
X-218813221Y68266513D01*
D16*
X-210618887Y64994237D02*
X-210307139Y67212437D01*
D17*
X-209012778Y68302910D02*
X-209263290Y66520428D01*
D13*
X-208822486Y68579114D02*
X-211248643Y68920088D01*
D11*
X-208596598Y68749333D02*
X-211597110Y69171028D01*
X-209215918Y64342640D02*
X-208596598Y68749333D01*
D10*
X-208858618Y65807166D02*
X-208949081Y65163492D01*
D11*
X-208745674Y65892276D02*
X-208943728Y65920110D01*
X-208850054Y65149575D02*
X-208745674Y65892276D01*
X-214059934Y67598483D02*
G75*
G03*
X-211603745Y69150278I366373J2139835D01*
G01*
D14*
X-213719496Y67146707D02*
G75*
G03*
X-211263307Y68698502I366373J2139835D01*
G01*
D11*
X-211194045Y63560329D02*
G75*
G03*
X-208850054Y65149576I377372J1966619D01*
G01*
X-199948614Y65615265D02*
X-200449637Y62050300D01*
X-200449637Y62050300D02*
X-192329438Y60909081D01*
X-200067982Y64622214D02*
X-200381121Y62394111D01*
D12*
X-200273262Y62227478D02*
X-199035427Y62053512D01*
D13*
X-199785353Y65339864D02*
X-198504964Y65109425D01*
D14*
X-199870999Y62574875D02*
X-199523066Y65050545D01*
D15*
X-198416643Y63582271D02*
X-191781847Y62649812D01*
D11*
X-195195327Y64947235D02*
X-199948614Y65615265D01*
D16*
X-191754280Y62342989D02*
X-191442532Y64561189D01*
D17*
X-190148171Y65651662D02*
X-190398683Y63869180D01*
D13*
X-189957879Y65927866D02*
X-192384036Y66268840D01*
D11*
X-189731991Y66098085D02*
X-192732503Y66519780D01*
X-190351311Y61691392D02*
X-189731991Y66098085D01*
D10*
X-189994011Y63155918D02*
X-190084474Y62512244D01*
D11*
X-189881067Y63241028D02*
X-190079121Y63268862D01*
X-189985447Y62498327D02*
X-189881067Y63241028D01*
X-195195327Y64947235D02*
G75*
G03*
X-192739138Y66499030I366373J2139835D01*
G01*
D14*
X-194854889Y64495459D02*
G75*
G03*
X-192398700Y66047254I366373J2139835D01*
G01*
D11*
X-192329438Y60909081D02*
G75*
G03*
X-189985447Y62498328I377372J1966619D01*
G01*
X-181084008Y62964018D02*
X-181585031Y59399053D01*
X-181585031Y59399053D02*
X-173464832Y58257834D01*
X-181203376Y61970967D02*
X-181516515Y59742864D01*
D12*
X-181408656Y59576231D02*
X-180170821Y59402265D01*
D13*
X-180920747Y62688617D02*
X-179640358Y62458178D01*
D14*
X-181006393Y59923628D02*
X-180658460Y62399298D01*
D15*
X-179552037Y60931024D02*
X-172917241Y59998565D01*
D11*
X-176330721Y62295988D02*
X-181084008Y62964018D01*
D16*
X-172889674Y59691742D02*
X-172577926Y61909942D01*
D17*
X-171283565Y63000415D02*
X-171534077Y61217933D01*
D13*
X-171093273Y63276619D02*
X-173519430Y63617593D01*
D11*
X-170867385Y63446838D02*
X-173867897Y63868533D01*
X-171486705Y59040145D02*
X-170867385Y63446838D01*
D10*
X-171129405Y60504671D02*
X-171219868Y59860997D01*
D11*
X-171016461Y60589781D02*
X-171214515Y60617615D01*
X-171120841Y59847080D02*
X-171016461Y60589781D01*
X-176330721Y62295988D02*
G75*
G03*
X-173874532Y63847783I366373J2139835D01*
G01*
D14*
X-175990283Y61844212D02*
G75*
G03*
X-173534094Y63396007I366373J2139835D01*
G01*
D11*
X-173464832Y58257834D02*
G75*
G03*
X-171120841Y59847081I377372J1966619D01*
G01*
X-162219401Y60312770D02*
X-162720424Y56747805D01*
X-162720424Y56747805D02*
X-154600225Y55606586D01*
X-162338769Y59319719D02*
X-162651908Y57091616D01*
D12*
X-162544049Y56924983D02*
X-161306214Y56751017D01*
D13*
X-162056140Y60037369D02*
X-160775751Y59806930D01*
D14*
X-162141786Y57272380D02*
X-161793853Y59748050D01*
D15*
X-160687430Y58279776D02*
X-154052634Y57347317D01*
D11*
X-157466114Y59644740D02*
X-162219401Y60312770D01*
D16*
X-154025067Y57040494D02*
X-153713319Y59258694D01*
D17*
X-152418958Y60349167D02*
X-152669470Y58566685D01*
D13*
X-152228666Y60625371D02*
X-154654823Y60966345D01*
D11*
X-152002778Y60795590D02*
X-155003290Y61217285D01*
X-152622098Y56388897D02*
X-152002778Y60795590D01*
D10*
X-152264798Y57853423D02*
X-152355261Y57209749D01*
D11*
X-152151854Y57938533D02*
X-152349908Y57966367D01*
X-152256234Y57195832D02*
X-152151854Y57938533D01*
X-157466114Y59644740D02*
G75*
G03*
X-155009925Y61196535I366373J2139835D01*
G01*
D14*
X-157125676Y59192964D02*
G75*
G03*
X-154669487Y60744759I366373J2139835D01*
G01*
D11*
X-154600225Y55606586D02*
G75*
G03*
X-152256234Y57195833I377372J1966619D01*
G01*
X-57022475Y108224267D02*
X-57022475Y104624267D01*
X-57022475Y104624267D02*
X-48822474Y104624267D01*
X-57002475Y107224267D02*
X-57002475Y104974267D01*
D12*
X-56872475Y104824267D02*
X-55622475Y104824267D01*
D13*
X-56822475Y107974267D02*
X-55522475Y107924267D01*
D14*
X-56522475Y105224267D02*
X-56522475Y107724267D01*
D15*
X-55222475Y106424267D02*
X-48522475Y106424267D01*
D11*
X-52222475Y108224267D02*
X-57022475Y108224267D01*
D16*
X-48452475Y106124267D02*
X-48452475Y108364267D01*
D17*
X-47322475Y109624267D02*
X-47322475Y107824268D01*
D13*
X-47172475Y109924267D02*
X-49622475Y109924267D01*
D11*
X-46972475Y110124267D02*
X-50002475Y110124267D01*
X-46972475Y105674267D02*
X-46972475Y110124267D01*
D10*
X-46822475Y107174267D02*
X-46822475Y106524267D01*
D11*
X-46722475Y107274267D02*
X-46922475Y107274267D01*
X-46722475Y106524267D02*
X-46722475Y107274267D01*
X-52222475Y108224267D02*
G75*
G03*
X-50006157Y110102796I65000J2170000D01*
G01*
D14*
X-51822475Y107824267D02*
G75*
G03*
X-49606157Y109702796I65000J2170000D01*
G01*
D11*
X-48822474Y104624267D02*
G75*
G03*
X-46722475Y106524268I99999J2000000D01*
G01*
X-248284475Y89174266D02*
X-248284475Y85574266D01*
X-248284475Y85574266D02*
X-240084474Y85574266D01*
X-248264475Y88174266D02*
X-248264475Y85924266D01*
D12*
X-248134475Y85774266D02*
X-246884475Y85774266D01*
D13*
X-248084475Y88924266D02*
X-246784475Y88874266D01*
D14*
X-247784475Y86174266D02*
X-247784475Y88674266D01*
D15*
X-246484475Y87374266D02*
X-239784475Y87374266D01*
D11*
X-243484475Y89174266D02*
X-248284475Y89174266D01*
D16*
X-239714475Y87074266D02*
X-239714475Y89314266D01*
D17*
X-238584475Y90574266D02*
X-238584475Y88774267D01*
D13*
X-238434475Y90874266D02*
X-240884475Y90874266D01*
D11*
X-238234475Y91074266D02*
X-241264475Y91074266D01*
X-238234475Y86624266D02*
X-238234475Y91074266D01*
D10*
X-238084475Y88124266D02*
X-238084475Y87474266D01*
D11*
X-237984475Y88224266D02*
X-238184475Y88224266D01*
X-237984475Y87474266D02*
X-237984475Y88224266D01*
X-243484475Y89174266D02*
G75*
G03*
X-241268157Y91052795I65000J2170000D01*
G01*
D14*
X-243084475Y88774266D02*
G75*
G03*
X-240868157Y90652795I65000J2170000D01*
G01*
D11*
X-240084474Y85574266D02*
G75*
G03*
X-237984475Y87474267I99999J2000000D01*
G01*
X-200237249Y46432879D02*
X-200738272Y42867914D01*
X-200738272Y42867914D02*
X-192618073Y41726695D01*
X-200356617Y45439828D02*
X-200669756Y43211725D01*
D12*
X-200561897Y43045092D02*
X-199324062Y42871126D01*
D13*
X-200073988Y46157478D02*
X-198793599Y45927039D01*
D14*
X-200159634Y43392489D02*
X-199811701Y45868159D01*
D15*
X-198705278Y44399885D02*
X-192070482Y43467426D01*
D11*
X-195483962Y45764849D02*
X-200237249Y46432879D01*
D16*
X-192042915Y43160603D02*
X-191731167Y45378803D01*
D17*
X-190436806Y46469276D02*
X-190687318Y44686794D01*
D13*
X-190246514Y46745480D02*
X-192672671Y47086454D01*
D11*
X-190020626Y46915699D02*
X-193021138Y47337394D01*
X-190639946Y42509006D02*
X-190020626Y46915699D01*
D10*
X-190282646Y43973532D02*
X-190373109Y43329858D01*
D11*
X-190169702Y44058642D02*
X-190367756Y44086476D01*
X-190274082Y43315941D02*
X-190169702Y44058642D01*
X-195483962Y45764849D02*
G75*
G03*
X-193027773Y47316644I366373J2139835D01*
G01*
D14*
X-195143524Y45313073D02*
G75*
G03*
X-192687335Y46864868I366373J2139835D01*
G01*
D11*
X-192618073Y41726695D02*
G75*
G03*
X-190274082Y43315942I377372J1966619D01*
G01*
X-54068975Y70124266D02*
X-54068975Y66524266D01*
X-54068975Y66524266D02*
X-45868974Y66524266D01*
X-54048975Y69124266D02*
X-54048975Y66874266D01*
D12*
X-53918975Y66724266D02*
X-52668975Y66724266D01*
D13*
X-53868975Y69874266D02*
X-52568975Y69824266D01*
D14*
X-53568975Y67124266D02*
X-53568975Y69624266D01*
D15*
X-52268975Y68324266D02*
X-45568975Y68324266D01*
D11*
X-49268975Y70124266D02*
X-54068975Y70124266D01*
D16*
X-45498975Y68024266D02*
X-45498975Y70264266D01*
D17*
X-44368975Y71524266D02*
X-44368975Y69724267D01*
D13*
X-44218975Y71824266D02*
X-46668975Y71824266D01*
D11*
X-44018975Y72024266D02*
X-47048975Y72024266D01*
X-44018975Y67574266D02*
X-44018975Y72024266D01*
D10*
X-43868975Y69074266D02*
X-43868975Y68424266D01*
D11*
X-43768975Y69174266D02*
X-43968975Y69174266D01*
X-43768975Y68424266D02*
X-43768975Y69174266D01*
X-49268975Y70124266D02*
G75*
G03*
X-47052657Y72002795I65000J2170000D01*
G01*
D14*
X-48868975Y69724266D02*
G75*
G03*
X-46652657Y71602795I65000J2170000D01*
G01*
D11*
X-45868974Y66524266D02*
G75*
G03*
X-43768975Y68424267I99999J2000000D01*
G01*
X-246378975Y70124266D02*
X-246378975Y66524266D01*
X-246378975Y66524266D02*
X-238178974Y66524266D01*
X-246358975Y69124266D02*
X-246358975Y66874266D01*
D12*
X-246228975Y66724266D02*
X-244978975Y66724266D01*
D13*
X-246178975Y69874266D02*
X-244878975Y69824266D01*
D14*
X-245878975Y67124266D02*
X-245878975Y69624266D01*
D15*
X-244578975Y68324266D02*
X-237878975Y68324266D01*
D11*
X-241578975Y70124266D02*
X-246378975Y70124266D01*
D16*
X-237808975Y68024266D02*
X-237808975Y70264266D01*
D17*
X-236678975Y71524266D02*
X-236678975Y69724267D01*
D13*
X-236528975Y71824266D02*
X-238978975Y71824266D01*
D11*
X-236328975Y72024266D02*
X-239358975Y72024266D01*
X-236328975Y67574266D02*
X-236328975Y72024266D01*
D10*
X-236178975Y69074266D02*
X-236178975Y68424266D01*
D11*
X-236078975Y69174266D02*
X-236278975Y69174266D01*
X-236078975Y68424266D02*
X-236078975Y69174266D01*
X-241578975Y70124266D02*
G75*
G03*
X-239362657Y72002795I65000J2170000D01*
G01*
D14*
X-241178975Y69724266D02*
G75*
G03*
X-238962657Y71602795I65000J2170000D01*
G01*
D11*
X-238178974Y66524266D02*
G75*
G03*
X-236078975Y68424267I99999J2000000D01*
G01*
X-171944629Y42442346D02*
X-172445652Y38877381D01*
X-172445652Y38877381D02*
X-164325453Y37736162D01*
X-172063997Y41449295D02*
X-172377136Y39221192D01*
D12*
X-172269277Y39054559D02*
X-171031442Y38880593D01*
D13*
X-171781368Y42166945D02*
X-170500979Y41936506D01*
D14*
X-171867014Y39401956D02*
X-171519081Y41877626D01*
D15*
X-170412658Y40409352D02*
X-163777862Y39476893D01*
D11*
X-167191342Y41774316D02*
X-171944629Y42442346D01*
D16*
X-163750295Y39170070D02*
X-163438547Y41388270D01*
D17*
X-162144186Y42478743D02*
X-162394698Y40696261D01*
D13*
X-161953894Y42754947D02*
X-164380051Y43095921D01*
D11*
X-161728006Y42925166D02*
X-164728518Y43346861D01*
X-162347326Y38518473D02*
X-161728006Y42925166D01*
D10*
X-161990026Y39982999D02*
X-162080489Y39339325D01*
D11*
X-161877082Y40068109D02*
X-162075136Y40095943D01*
X-161981462Y39325408D02*
X-161877082Y40068109D01*
X-167191342Y41774316D02*
G75*
G03*
X-164735153Y43326111I366373J2139835D01*
G01*
D14*
X-166850904Y41322540D02*
G75*
G03*
X-164394715Y42874335I366373J2139835D01*
G01*
D11*
X-164325453Y37736162D02*
G75*
G03*
X-161981462Y39325409I377372J1966619D01*
G01*
X-125983026Y42106266D02*
X-125482003Y38541301D01*
X-125482003Y38541301D02*
X-117361804Y39682521D01*
X-125824048Y41118782D02*
X-125510908Y38890678D01*
D12*
X-125361297Y38760231D02*
X-124123462Y38934197D01*
D13*
X-125750179Y41886534D02*
X-124455872Y42017945D01*
D14*
X-125070373Y39205048D02*
X-125418306Y41680719D01*
D15*
X-123950032Y40574295D02*
X-117315236Y41506755D01*
D11*
X-121229739Y42774297D02*
X-125983026Y42106266D01*
D16*
X-117204165Y41219417D02*
X-117515913Y43437617D01*
D17*
X-116572268Y44842621D02*
X-116321757Y43060139D01*
D13*
X-116465480Y45160577D02*
X-118891637Y44819603D01*
D11*
X-116295261Y45386465D02*
X-119295773Y44964771D01*
X-115675941Y40979772D02*
X-116295261Y45386465D01*
D10*
X-115736160Y42486050D02*
X-115645698Y41842376D01*
D11*
X-115651051Y42598994D02*
X-115849104Y42571160D01*
X-115546671Y41856293D02*
X-115651051Y42598994D01*
X-121229739Y42774298D02*
G75*
G03*
X-119296432Y44942996I-237640J2157928D01*
G01*
D14*
X-120777963Y42433860D02*
G75*
G03*
X-118844656Y44602558I-237638J2157927D01*
G01*
D11*
X-117361804Y39682521D02*
G75*
G03*
X-115546671Y41856294I-179320J1994453D01*
G01*
X-74183475Y55826266D02*
X-74183475Y57326266D01*
X-74183475Y57326266D02*
X-79583475Y57326266D01*
X-76383475Y56076266D02*
X-76383475Y57076266D01*
X-76483475Y56576266D02*
X-77383475Y56076266D01*
X-77383475Y56076266D02*
X-77383475Y57076266D01*
X-77383475Y57076266D02*
X-76483475Y56576266D01*
X-79583475Y55826266D02*
X-74183475Y55826266D01*
X-79583475Y57326266D02*
X-79583475Y55826266D01*
X-141953475Y44876266D02*
X-141953475Y46376266D01*
X-141953475Y46376266D02*
X-147353475Y46376266D01*
X-144153475Y45126266D02*
X-144153475Y46126266D01*
X-144253475Y45626266D02*
X-145153475Y45126266D01*
X-145153475Y45126266D02*
X-145153475Y46126266D01*
X-145153475Y46126266D02*
X-144253475Y45626266D01*
X-147353475Y44876266D02*
X-141953475Y44876266D01*
X-147353475Y46376266D02*
X-147353475Y44876266D01*
X-78963135Y67943100D02*
X-78462112Y64378135D01*
X-78462112Y64378135D02*
X-70341913Y65519355D01*
X-78804157Y66955616D02*
X-78491017Y64727512D01*
D12*
X-78341406Y64597065D02*
X-77103571Y64771031D01*
D13*
X-78730288Y67723368D02*
X-77435981Y67854779D01*
D14*
X-78050482Y65041882D02*
X-78398415Y67517553D01*
D15*
X-76930141Y66411129D02*
X-70295345Y67343589D01*
D11*
X-74209848Y68611131D02*
X-78963135Y67943100D01*
D16*
X-70184274Y67056251D02*
X-70496022Y69274451D01*
D17*
X-69552377Y70679455D02*
X-69301866Y68896973D01*
D13*
X-69445589Y70997411D02*
X-71871746Y70656437D01*
D11*
X-69275370Y71223299D02*
X-72275882Y70801605D01*
X-68656050Y66816606D02*
X-69275370Y71223299D01*
D10*
X-68716269Y68322884D02*
X-68625807Y67679210D01*
D11*
X-68631160Y68435828D02*
X-68829213Y68407994D01*
X-68526780Y67693127D02*
X-68631160Y68435828D01*
X-74209848Y68611132D02*
G75*
G03*
X-72276541Y70779830I-237640J2157928D01*
G01*
D14*
X-73758072Y68270694D02*
G75*
G03*
X-71824765Y70439392I-237638J2157927D01*
G01*
D11*
X-70341913Y65519355D02*
G75*
G03*
X-68526780Y67693128I-179320J1994453D01*
G01*
X-141953475Y37218766D02*
X-141953475Y38718766D01*
X-141953475Y38718766D02*
X-147353475Y38718766D01*
X-144153475Y37468766D02*
X-144153475Y38468766D01*
X-144253475Y37968766D02*
X-145153475Y37468766D01*
X-145153475Y37468766D02*
X-145153475Y38468766D01*
X-145153475Y38468766D02*
X-144253475Y37968766D01*
X-147353475Y37218766D02*
X-141953475Y37218766D01*
X-147353475Y38718766D02*
X-147353475Y37218766D01*
X-143348475Y74650266D02*
X-143348475Y76150266D01*
X-143348475Y76150266D02*
X-148748475Y76150266D01*
X-145548475Y74900266D02*
X-145548475Y75900266D01*
X-145648475Y75400266D02*
X-146548475Y74900266D01*
X-146548475Y74900266D02*
X-146548475Y75900266D01*
X-146548475Y75900266D02*
X-145648475Y75400266D01*
X-148748475Y74650266D02*
X-143348475Y74650266D01*
X-148748475Y76150266D02*
X-148748475Y74650266D01*
X-228673475Y44616266D02*
X-228673475Y46116266D01*
X-228673475Y46116266D02*
X-234073475Y46116266D01*
X-230873475Y44866266D02*
X-230873475Y45866266D01*
X-230973475Y45366266D02*
X-231873475Y44866266D01*
X-231873475Y44866266D02*
X-231873475Y45866266D01*
X-231873475Y45866266D02*
X-230973475Y45366266D01*
X-234073475Y44616266D02*
X-228673475Y44616266D01*
X-234073475Y46116266D02*
X-234073475Y44616266D01*
X-97853135Y65303100D02*
X-97352112Y61738135D01*
X-97352112Y61738135D02*
X-89231913Y62879355D01*
X-97694157Y64315616D02*
X-97381017Y62087512D01*
D12*
X-97231406Y61957065D02*
X-95993571Y62131031D01*
D13*
X-97620288Y65083368D02*
X-96325981Y65214779D01*
D14*
X-96940482Y62401882D02*
X-97288415Y64877553D01*
D15*
X-95820141Y63771129D02*
X-89185345Y64703589D01*
D11*
X-93099848Y65971131D02*
X-97853135Y65303100D01*
D16*
X-89074274Y64416251D02*
X-89386022Y66634451D01*
D17*
X-88442377Y68039455D02*
X-88191866Y66256973D01*
D13*
X-88335589Y68357411D02*
X-90761746Y68016437D01*
D11*
X-88165370Y68583299D02*
X-91165882Y68161605D01*
X-87546050Y64176606D02*
X-88165370Y68583299D01*
D10*
X-87606269Y65682884D02*
X-87515807Y65039210D01*
D11*
X-87521160Y65795828D02*
X-87719213Y65767994D01*
X-87416780Y65053127D02*
X-87521160Y65795828D01*
X-93099848Y65971132D02*
G75*
G03*
X-91166541Y68139830I-237640J2157928D01*
G01*
D14*
X-92648072Y65630694D02*
G75*
G03*
X-90714765Y67799392I-237638J2157927D01*
G01*
D11*
X-89231913Y62879355D02*
G75*
G03*
X-87416780Y65053128I-179320J1994453D01*
G01*
X-228673475Y49624266D02*
X-228673475Y51124266D01*
X-228673475Y51124266D02*
X-234073475Y51124266D01*
X-230873475Y49874266D02*
X-230873475Y50874266D01*
X-230973475Y50374266D02*
X-231873475Y49874266D01*
X-231873475Y49874266D02*
X-231873475Y50874266D01*
X-231873475Y50874266D02*
X-230973475Y50374266D01*
X-234073475Y49624266D02*
X-228673475Y49624266D01*
X-234073475Y51124266D02*
X-234073475Y49624266D01*
X-141853475Y42336266D02*
X-141853475Y43836266D01*
X-141853475Y43836266D02*
X-147253475Y43836266D01*
X-144053475Y42586266D02*
X-144053475Y43586266D01*
X-144153475Y43086266D02*
X-145053475Y42586266D01*
X-145053475Y42586266D02*
X-145053475Y43586266D01*
X-145053475Y43586266D02*
X-144153475Y43086266D01*
X-147253475Y42336266D02*
X-141853475Y42336266D01*
X-147253475Y43836266D02*
X-147253475Y42336266D01*
X-62068475Y55756266D02*
X-62068475Y57256266D01*
X-62068475Y57256266D02*
X-67468475Y57256266D01*
X-64268475Y56006266D02*
X-64268475Y57006266D01*
X-64368475Y56506266D02*
X-65268475Y56006266D01*
X-65268475Y56006266D02*
X-65268475Y57006266D01*
X-65268475Y57006266D02*
X-64368475Y56506266D01*
X-67468475Y55756266D02*
X-62068475Y55756266D01*
X-67468475Y57256266D02*
X-67468475Y55756266D01*
X-62063475Y53006266D02*
X-62063475Y54506266D01*
X-62063475Y54506266D02*
X-67463475Y54506266D01*
X-64263475Y53256266D02*
X-64263475Y54256266D01*
X-64363475Y53756266D02*
X-65263475Y53256266D01*
X-65263475Y53256266D02*
X-65263475Y54256266D01*
X-65263475Y54256266D02*
X-64363475Y53756266D01*
X-67463475Y53006266D02*
X-62063475Y53006266D01*
X-67463475Y54506266D02*
X-67463475Y53006266D01*
X-217713475Y44516266D02*
X-217713475Y46016266D01*
X-217713475Y46016266D02*
X-223113475Y46016266D01*
X-219913475Y44766266D02*
X-219913475Y45766266D01*
X-220013475Y45266266D02*
X-220913475Y44766266D01*
X-220913475Y44766266D02*
X-220913475Y45766266D01*
X-220913475Y45766266D02*
X-220013475Y45266266D01*
X-223113475Y44516266D02*
X-217713475Y44516266D01*
X-223113475Y46016266D02*
X-223113475Y44516266D01*
X-116743135Y62633100D02*
X-116242112Y59068135D01*
X-116242112Y59068135D02*
X-108121913Y60209355D01*
X-116584157Y61645616D02*
X-116271017Y59417512D01*
D12*
X-116121406Y59287065D02*
X-114883571Y59461031D01*
D13*
X-116510288Y62413368D02*
X-115215981Y62544779D01*
D14*
X-115830482Y59731882D02*
X-116178415Y62207553D01*
D15*
X-114710141Y61101129D02*
X-108075345Y62033589D01*
D11*
X-111989848Y63301131D02*
X-116743135Y62633100D01*
D16*
X-107964274Y61746251D02*
X-108276022Y63964451D01*
D17*
X-107332377Y65369455D02*
X-107081866Y63586973D01*
D13*
X-107225589Y65687411D02*
X-109651746Y65346437D01*
D11*
X-107055370Y65913299D02*
X-110055882Y65491605D01*
X-106436050Y61506606D02*
X-107055370Y65913299D01*
D10*
X-106496269Y63012884D02*
X-106405807Y62369210D01*
D11*
X-106411160Y63125828D02*
X-106609213Y63097994D01*
X-106306780Y62383127D02*
X-106411160Y63125828D01*
X-111989848Y63301132D02*
G75*
G03*
X-110056541Y65469830I-237640J2157928D01*
G01*
D14*
X-111538072Y62960694D02*
G75*
G03*
X-109604765Y65129392I-237638J2157927D01*
G01*
D11*
X-108121913Y60209355D02*
G75*
G03*
X-106306780Y62383128I-179320J1994453D01*
G01*
X-143323475Y79866266D02*
X-143323475Y81366266D01*
X-143323475Y81366266D02*
X-148723475Y81366266D01*
X-145523475Y80116266D02*
X-145523475Y81116266D01*
X-145623475Y80616266D02*
X-146523475Y80116266D01*
X-146523475Y80116266D02*
X-146523475Y81116266D01*
X-146523475Y81116266D02*
X-145623475Y80616266D01*
X-148723475Y79866266D02*
X-143323475Y79866266D01*
X-148723475Y81366266D02*
X-148723475Y79866266D01*
X-74213475Y47396266D02*
X-74213475Y48896266D01*
X-74213475Y48896266D02*
X-79613475Y48896266D01*
X-76413475Y47646266D02*
X-76413475Y48646266D01*
X-76513475Y48146266D02*
X-77413475Y47646266D01*
X-77413475Y47646266D02*
X-77413475Y48646266D01*
X-77413475Y48646266D02*
X-76513475Y48146266D01*
X-79613475Y47396266D02*
X-74213475Y47396266D01*
X-79613475Y48896266D02*
X-79613475Y47396266D01*
X-217708475Y57596266D02*
X-217708475Y59096266D01*
X-217708475Y59096266D02*
X-223108475Y59096266D01*
X-219908475Y57846266D02*
X-219908475Y58846266D01*
X-220008475Y58346266D02*
X-220908475Y57846266D01*
X-220908475Y57846266D02*
X-220908475Y58846266D01*
X-220908475Y58846266D02*
X-220008475Y58346266D01*
X-223108475Y57596266D02*
X-217708475Y57596266D01*
X-223108475Y59096266D02*
X-223108475Y57596266D01*
X-62063475Y44816266D02*
X-62063475Y46316266D01*
X-62063475Y46316266D02*
X-67463475Y46316266D01*
X-64263475Y45066266D02*
X-64263475Y46066266D01*
X-64363475Y45566266D02*
X-65263475Y45066266D01*
X-65263475Y45066266D02*
X-65263475Y46066266D01*
X-65263475Y46066266D02*
X-64363475Y45566266D01*
X-67463475Y44816266D02*
X-62063475Y44816266D01*
X-67463475Y46316266D02*
X-67463475Y44816266D01*
X-225608174Y88437823D02*
X-226109197Y84872858D01*
X-226109197Y84872858D02*
X-217988998Y83731639D01*
X-225727542Y87444772D02*
X-226040681Y85216669D01*
D12*
X-225932822Y85050036D02*
X-224694987Y84876070D01*
D13*
X-225444913Y88162422D02*
X-224164524Y87931983D01*
D14*
X-225530559Y85397433D02*
X-225182626Y87873103D01*
D15*
X-224076203Y86404829D02*
X-217441407Y85472370D01*
D11*
X-220854887Y87769793D02*
X-225608174Y88437823D01*
D16*
X-217413840Y85165547D02*
X-217102092Y87383747D01*
D17*
X-215807731Y88474220D02*
X-216058243Y86691738D01*
D13*
X-215617439Y88750424D02*
X-218043596Y89091398D01*
D11*
X-215391551Y88920643D02*
X-218392063Y89342338D01*
X-216010871Y84513950D02*
X-215391551Y88920643D01*
D10*
X-215653571Y85978476D02*
X-215744034Y85334802D01*
D11*
X-215540627Y86063586D02*
X-215738681Y86091420D01*
X-215645007Y85320885D02*
X-215540627Y86063586D01*
X-220854887Y87769793D02*
G75*
G03*
X-218398698Y89321588I366373J2139835D01*
G01*
D14*
X-220514449Y87318017D02*
G75*
G03*
X-218058260Y88869812I366373J2139835D01*
G01*
D11*
X-217988998Y83731639D02*
G75*
G03*
X-215645007Y85320886I377372J1966619D01*
G01*
X-74213475Y44816266D02*
X-74213475Y46316266D01*
X-74213475Y46316266D02*
X-79613475Y46316266D01*
X-76413475Y45066266D02*
X-76413475Y46066266D01*
X-76513475Y45566266D02*
X-77413475Y45066266D01*
X-77413475Y45066266D02*
X-77413475Y46066266D01*
X-77413475Y46066266D02*
X-76513475Y45566266D01*
X-79613475Y44816266D02*
X-74213475Y44816266D01*
X-79613475Y46316266D02*
X-79613475Y44816266D01*
X-251808475Y51074267D02*
X-251808475Y47474267D01*
X-251808475Y47474267D02*
X-243608474Y47474267D01*
X-251788475Y50074267D02*
X-251788475Y47824267D01*
D12*
X-251658475Y47674267D02*
X-250408475Y47674267D01*
D13*
X-251608475Y50824267D02*
X-250308475Y50774267D01*
D14*
X-251308475Y48074267D02*
X-251308475Y50574267D01*
D15*
X-250008475Y49274267D02*
X-243308475Y49274267D01*
D11*
X-247008475Y51074267D02*
X-251808475Y51074267D01*
D16*
X-243238475Y48974267D02*
X-243238475Y51214267D01*
D17*
X-242108475Y52474267D02*
X-242108475Y50674268D01*
D13*
X-241958475Y52774267D02*
X-244408475Y52774267D01*
D11*
X-241758475Y52974267D02*
X-244788475Y52974267D01*
X-241758475Y48524267D02*
X-241758475Y52974267D01*
D10*
X-241608475Y50024267D02*
X-241608475Y49374267D01*
D11*
X-241508475Y50124267D02*
X-241708475Y50124267D01*
X-241508475Y49374267D02*
X-241508475Y50124267D01*
X-247008475Y51074267D02*
G75*
G03*
X-244792157Y52952796I65000J2170000D01*
G01*
D14*
X-246608475Y50674267D02*
G75*
G03*
X-244392157Y52552796I65000J2170000D01*
G01*
D11*
X-243608474Y47474267D02*
G75*
G03*
X-241508475Y49374268I99999J2000000D01*
G01*
X-228643475Y57166266D02*
X-228643475Y58666266D01*
X-228643475Y58666266D02*
X-234043475Y58666266D01*
X-230843475Y57416266D02*
X-230843475Y58416266D01*
X-230943475Y57916266D02*
X-231843475Y57416266D01*
X-231843475Y57416266D02*
X-231843475Y58416266D01*
X-231843475Y58416266D02*
X-230943475Y57916266D01*
X-234043475Y57166266D02*
X-228643475Y57166266D01*
X-234043475Y58666266D02*
X-234043475Y57166266D01*
X-141893475Y39726266D02*
X-141893475Y41226266D01*
X-141893475Y41226266D02*
X-147293475Y41226266D01*
X-144093475Y39976266D02*
X-144093475Y40976266D01*
X-144193475Y40476266D02*
X-145093475Y39976266D01*
X-145093475Y39976266D02*
X-145093475Y40976266D01*
X-145093475Y40976266D02*
X-144193475Y40476266D01*
X-147293475Y39726266D02*
X-141893475Y39726266D01*
X-147293475Y41226266D02*
X-147293475Y39726266D01*
X-217713475Y55092266D02*
X-217713475Y56592266D01*
X-217713475Y56592266D02*
X-223113475Y56592266D01*
X-219913475Y55342266D02*
X-219913475Y56342266D01*
X-220013475Y55842266D02*
X-220913475Y55342266D01*
X-220913475Y55342266D02*
X-220913475Y56342266D01*
X-220913475Y56342266D02*
X-220013475Y55842266D01*
X-223113475Y55092266D02*
X-217713475Y55092266D01*
X-223113475Y56592266D02*
X-223113475Y55092266D01*
X-217713475Y47160266D02*
X-217713475Y48660266D01*
X-217713475Y48660266D02*
X-223113475Y48660266D01*
X-219913475Y47410266D02*
X-219913475Y48410266D01*
X-220013475Y47910266D02*
X-220913475Y47410266D01*
X-220913475Y47410266D02*
X-220913475Y48410266D01*
X-220913475Y48410266D02*
X-220013475Y47910266D01*
X-223113475Y47160266D02*
X-217713475Y47160266D01*
X-223113475Y48660266D02*
X-223113475Y47160266D01*
X-143263475Y86980266D02*
X-143263475Y88480266D01*
X-143263475Y88480266D02*
X-148663475Y88480266D01*
X-145463475Y87230266D02*
X-145463475Y88230266D01*
X-145563475Y87730266D02*
X-146463475Y87230266D01*
X-146463475Y87230266D02*
X-146463475Y88230266D01*
X-146463475Y88230266D02*
X-145563475Y87730266D01*
X-148663475Y86980266D02*
X-143263475Y86980266D01*
X-148663475Y88480266D02*
X-148663475Y86980266D01*
X-74138475Y58526266D02*
X-74138475Y60026266D01*
X-74138475Y60026266D02*
X-79538475Y60026266D01*
X-76338475Y58776266D02*
X-76338475Y59776266D01*
X-76438475Y59276266D02*
X-77338475Y58776266D01*
X-77338475Y58776266D02*
X-77338475Y59776266D01*
X-77338475Y59776266D02*
X-76438475Y59276266D01*
X-79538475Y58526266D02*
X-74138475Y58526266D01*
X-79538475Y60026266D02*
X-79538475Y58526266D01*
X-228673475Y54632266D02*
X-228673475Y56132266D01*
X-228673475Y56132266D02*
X-234073475Y56132266D01*
X-230873475Y54882266D02*
X-230873475Y55882266D01*
X-230973475Y55382266D02*
X-231873475Y54882266D01*
X-231873475Y54882266D02*
X-231873475Y55882266D01*
X-231873475Y55882266D02*
X-230973475Y55382266D01*
X-234073475Y54632266D02*
X-228673475Y54632266D01*
X-234073475Y56132266D02*
X-234073475Y54632266D01*
X-61988475Y58416266D02*
X-61988475Y59916266D01*
X-61988475Y59916266D02*
X-67388475Y59916266D01*
X-64188475Y58666266D02*
X-64188475Y59666266D01*
X-64288475Y59166266D02*
X-65188475Y58666266D01*
X-65188475Y58666266D02*
X-65188475Y59666266D01*
X-65188475Y59666266D02*
X-64288475Y59166266D01*
X-67388475Y58416266D02*
X-61988475Y58416266D01*
X-67388475Y59916266D02*
X-67388475Y58416266D01*
X-228673475Y52128266D02*
X-228673475Y53628266D01*
X-228673475Y53628266D02*
X-234073475Y53628266D01*
X-230873475Y52378266D02*
X-230873475Y53378266D01*
X-230973475Y52878266D02*
X-231873475Y52378266D01*
X-231873475Y52378266D02*
X-231873475Y53378266D01*
X-231873475Y53378266D02*
X-230973475Y52878266D01*
X-234073475Y52128266D02*
X-228673475Y52128266D01*
X-234073475Y53628266D02*
X-234073475Y52128266D01*
X-62063475Y47546266D02*
X-62063475Y49046266D01*
X-62063475Y49046266D02*
X-67463475Y49046266D01*
X-64263475Y47796266D02*
X-64263475Y48796266D01*
X-64363475Y48296266D02*
X-65263475Y47796266D01*
X-65263475Y47796266D02*
X-65263475Y48796266D01*
X-65263475Y48796266D02*
X-64363475Y48296266D01*
X-67463475Y47546266D02*
X-62063475Y47546266D01*
X-67463475Y49046266D02*
X-67463475Y47546266D01*
X-51021475Y51074266D02*
X-51021475Y47474266D01*
X-51021475Y47474266D02*
X-42821474Y47474266D01*
X-51001475Y50074266D02*
X-51001475Y47824266D01*
D12*
X-50871475Y47674266D02*
X-49621475Y47674266D01*
D13*
X-50821475Y50824266D02*
X-49521475Y50774266D01*
D14*
X-50521475Y48074266D02*
X-50521475Y50574266D01*
D15*
X-49221475Y49274266D02*
X-42521475Y49274266D01*
D11*
X-46221475Y51074266D02*
X-51021475Y51074266D01*
D16*
X-42451475Y48974266D02*
X-42451475Y51214266D01*
D17*
X-41321475Y52474266D02*
X-41321475Y50674267D01*
D13*
X-41171475Y52774266D02*
X-43621475Y52774266D01*
D11*
X-40971475Y52974266D02*
X-44001475Y52974266D01*
X-40971475Y48524266D02*
X-40971475Y52974266D01*
D10*
X-40821475Y50024266D02*
X-40821475Y49374266D01*
D11*
X-40721475Y50124266D02*
X-40921475Y50124266D01*
X-40721475Y49374266D02*
X-40721475Y50124266D01*
X-46221475Y51074266D02*
G75*
G03*
X-44005157Y52952795I65000J2170000D01*
G01*
D14*
X-45821475Y50674266D02*
G75*
G03*
X-43605157Y52552795I65000J2170000D01*
G01*
D11*
X-42821474Y47474266D02*
G75*
G03*
X-40721475Y49374267I99999J2000000D01*
G01*
X-143253475Y84608933D02*
X-143253475Y86108933D01*
X-143253475Y86108933D02*
X-148653475Y86108933D01*
X-145453475Y84858933D02*
X-145453475Y85858933D01*
X-145553475Y85358933D02*
X-146453475Y84858933D01*
X-146453475Y84858933D02*
X-146453475Y85858933D01*
X-146453475Y85858933D02*
X-145553475Y85358933D01*
X-148653475Y84608933D02*
X-143253475Y84608933D01*
X-148653475Y86108933D02*
X-148653475Y84608933D01*
X-143348475Y77116266D02*
X-143348475Y78616266D01*
X-143348475Y78616266D02*
X-148748475Y78616266D01*
X-145548475Y77366266D02*
X-145548475Y78366266D01*
X-145648475Y77866266D02*
X-146548475Y77366266D01*
X-146548475Y77366266D02*
X-146548475Y78366266D01*
X-146548475Y78366266D02*
X-145648475Y77866266D01*
X-148748475Y77116266D02*
X-143348475Y77116266D01*
X-148748475Y78616266D02*
X-148748475Y77116266D01*
X-141953475Y34666266D02*
X-141953475Y36166266D01*
X-141953475Y36166266D02*
X-147353475Y36166266D01*
X-144153475Y34916266D02*
X-144153475Y35916266D01*
X-144253475Y35416266D02*
X-145153475Y34916266D01*
X-145153475Y34916266D02*
X-145153475Y35916266D01*
X-145153475Y35916266D02*
X-144253475Y35416266D01*
X-147353475Y34666266D02*
X-141953475Y34666266D01*
X-147353475Y36166266D02*
X-147353475Y34666266D01*
X-228583475Y59646266D02*
X-228583475Y61146266D01*
X-228583475Y61146266D02*
X-233983475Y61146266D01*
X-230783475Y59896266D02*
X-230783475Y60896266D01*
X-230883475Y60396266D02*
X-231783475Y59896266D01*
X-231783475Y59896266D02*
X-231783475Y60896266D01*
X-231783475Y60896266D02*
X-230883475Y60396266D01*
X-233983475Y59646266D02*
X-228583475Y59646266D01*
X-233983475Y61146266D02*
X-233983475Y59646266D01*
X-228673475Y47120266D02*
X-228673475Y48620266D01*
X-228673475Y48620266D02*
X-234073475Y48620266D01*
X-230873475Y47370266D02*
X-230873475Y48370266D01*
X-230973475Y47870266D02*
X-231873475Y47370266D01*
X-231873475Y47370266D02*
X-231873475Y48370266D01*
X-231873475Y48370266D02*
X-230973475Y47870266D01*
X-234073475Y47120266D02*
X-228673475Y47120266D01*
X-234073475Y48620266D02*
X-234073475Y47120266D01*
X-74218475Y50266266D02*
X-74218475Y51766266D01*
X-74218475Y51766266D02*
X-79618475Y51766266D01*
X-76418475Y50516266D02*
X-76418475Y51516266D01*
X-76518475Y51016266D02*
X-77418475Y50516266D01*
X-77418475Y50516266D02*
X-77418475Y51516266D01*
X-77418475Y51516266D02*
X-76518475Y51016266D01*
X-79618475Y50266266D02*
X-74218475Y50266266D01*
X-79618475Y51766266D02*
X-79618475Y50266266D01*
X-135603697Y59986101D02*
X-135102674Y56421136D01*
X-135102674Y56421136D02*
X-126982475Y57562356D01*
X-135444719Y58998617D02*
X-135131579Y56770513D01*
D12*
X-134981968Y56640066D02*
X-133744133Y56814032D01*
D13*
X-135370850Y59766369D02*
X-134076543Y59897780D01*
D14*
X-134691044Y57084883D02*
X-135038977Y59560554D01*
D15*
X-133570703Y58454130D02*
X-126935907Y59386590D01*
D11*
X-130850410Y60654132D02*
X-135603697Y59986101D01*
D16*
X-126824836Y59099252D02*
X-127136584Y61317452D01*
D17*
X-126192939Y62722456D02*
X-125942428Y60939974D01*
D13*
X-126086151Y63040412D02*
X-128512308Y62699438D01*
D11*
X-125915932Y63266300D02*
X-128916444Y62844606D01*
X-125296612Y58859607D02*
X-125915932Y63266300D01*
D10*
X-125356831Y60365885D02*
X-125266369Y59722211D01*
D11*
X-125271722Y60478829D02*
X-125469775Y60450995D01*
X-125167342Y59736128D02*
X-125271722Y60478829D01*
X-130850410Y60654133D02*
G75*
G03*
X-128917103Y62822831I-237640J2157928D01*
G01*
D14*
X-130398634Y60313695D02*
G75*
G03*
X-128465327Y62482393I-237638J2157927D01*
G01*
D11*
X-126982475Y57562356D02*
G75*
G03*
X-125167342Y59736129I-179320J1994453D01*
G01*
X-62063475Y50276266D02*
X-62063475Y51776266D01*
X-62063475Y51776266D02*
X-67463475Y51776266D01*
X-64263475Y50526266D02*
X-64263475Y51526266D01*
X-64363475Y51026266D02*
X-65263475Y50526266D01*
X-65263475Y50526266D02*
X-65263475Y51526266D01*
X-65263475Y51526266D02*
X-64363475Y51026266D01*
X-67463475Y50276266D02*
X-62063475Y50276266D01*
X-67463475Y51776266D02*
X-67463475Y50276266D01*
X-217713475Y49804266D02*
X-217713475Y51304266D01*
X-217713475Y51304266D02*
X-223113475Y51304266D01*
X-219913475Y50054266D02*
X-219913475Y51054266D01*
X-220013475Y50554266D02*
X-220913475Y50054266D01*
X-220913475Y50054266D02*
X-220913475Y51054266D01*
X-220913475Y51054266D02*
X-220013475Y50554266D01*
X-223113475Y49804266D02*
X-217713475Y49804266D01*
X-223113475Y51304266D02*
X-223113475Y49804266D01*
X-74288475Y53156266D02*
X-74288475Y54656266D01*
X-74288475Y54656266D02*
X-79688475Y54656266D01*
X-76488475Y53406266D02*
X-76488475Y54406266D01*
X-76588475Y53906266D02*
X-77488475Y53406266D01*
X-77488475Y53406266D02*
X-77488475Y54406266D01*
X-77488475Y54406266D02*
X-76588475Y53906266D01*
X-79688475Y53156266D02*
X-74288475Y53156266D01*
X-79688475Y54656266D02*
X-79688475Y53156266D01*
X-97656081Y46041865D02*
X-97155058Y42476900D01*
X-97155058Y42476900D02*
X-89034859Y43618120D01*
X-97497103Y45054381D02*
X-97183963Y42826277D01*
D12*
X-97034352Y42695830D02*
X-95796517Y42869796D01*
D13*
X-97423234Y45822133D02*
X-96128927Y45953544D01*
D14*
X-96743428Y43140647D02*
X-97091361Y45616318D01*
D15*
X-95623087Y44509894D02*
X-88988291Y45442354D01*
D11*
X-92902794Y46709896D02*
X-97656081Y46041865D01*
D16*
X-88877220Y45155016D02*
X-89188968Y47373216D01*
D17*
X-88245323Y48778220D02*
X-87994812Y46995738D01*
D13*
X-88138535Y49096176D02*
X-90564692Y48755202D01*
D11*
X-87968316Y49322064D02*
X-90968828Y48900370D01*
X-87348996Y44915371D02*
X-87968316Y49322064D01*
D10*
X-87409215Y46421649D02*
X-87318753Y45777975D01*
D11*
X-87324106Y46534593D02*
X-87522159Y46506759D01*
X-87219726Y45791892D02*
X-87324106Y46534593D01*
X-92902794Y46709897D02*
G75*
G03*
X-90969487Y48878595I-237640J2157928D01*
G01*
D14*
X-92451018Y46369459D02*
G75*
G03*
X-90517711Y48538157I-237638J2157927D01*
G01*
D11*
X-89034859Y43618120D02*
G75*
G03*
X-87219726Y45791893I-179320J1994453D01*
G01*
X-143323475Y82237600D02*
X-143323475Y83737600D01*
X-143323475Y83737600D02*
X-148723475Y83737600D01*
X-145523475Y82487600D02*
X-145523475Y83487600D01*
X-145623475Y82987600D02*
X-146523475Y82487600D01*
X-146523475Y82487600D02*
X-146523475Y83487600D01*
X-146523475Y83487600D02*
X-145623475Y82987600D01*
X-148723475Y82237600D02*
X-143323475Y82237600D01*
X-148723475Y83737600D02*
X-148723475Y82237600D01*
X-217713475Y52448266D02*
X-217713475Y53948266D01*
X-217713475Y53948266D02*
X-223113475Y53948266D01*
X-219913475Y52698266D02*
X-219913475Y53698266D01*
X-220013475Y53198266D02*
X-220913475Y52698266D01*
X-220913475Y52698266D02*
X-220913475Y53698266D01*
X-220913475Y53698266D02*
X-220013475Y53198266D01*
X-223113475Y52448266D02*
X-217713475Y52448266D01*
X-223113475Y53948266D02*
X-223113475Y52448266D01*
X-138043475Y98716266D02*
X-138043475Y122216266D01*
X-138043475Y122216266D02*
X-142713475Y122216266D01*
X-138043475Y122216266D02*
X-156043475Y122216266D01*
X-142713475Y122216266D02*
X-142713475Y124096266D01*
X-142713475Y124096266D02*
X-151373475Y124096266D01*
X-151373475Y122216266D02*
X-151373475Y124096266D01*
X-156043475Y98716266D02*
X-138043475Y98716266D01*
X-156043475Y122216266D02*
X-151373475Y122216266D01*
X-156043475Y122216266D02*
X-156043475Y98716266D01*
M02*
