G04 #@! TF.GenerationSoftware,KiCad,Pcbnew,7.0.1-0*
G04 #@! TF.CreationDate,2023-08-24T16:50:40+09:00*
G04 #@! TF.ProjectId,PCB_QAL,5043425f-5141-44c2-9e6b-696361645f70,rev?*
G04 #@! TF.SameCoordinates,Original*
G04 #@! TF.FileFunction,Copper,L1,Top*
G04 #@! TF.FilePolarity,Positive*
%FSLAX46Y46*%
G04 Gerber Fmt 4.6, Leading zero omitted, Abs format (unit mm)*
G04 Created by KiCad (PCBNEW 7.0.1-0) date 2023-08-24 16:50:40*
%MOMM*%
%LPD*%
G01*
G04 APERTURE LIST*
G04 #@! TA.AperFunction,ComponentPad*
%ADD10R,1.397000X1.397000*%
G04 #@! TD*
G04 #@! TA.AperFunction,SMDPad,CuDef*
%ADD11R,1.300000X0.950000*%
G04 #@! TD*
G04 #@! TA.AperFunction,ComponentPad*
%ADD12C,1.397000*%
G04 #@! TD*
G04 #@! TA.AperFunction,ComponentPad*
%ADD13C,1.524000*%
G04 #@! TD*
G04 #@! TA.AperFunction,ViaPad*
%ADD14C,0.800000*%
G04 #@! TD*
G04 #@! TA.AperFunction,Conductor*
%ADD15C,0.250000*%
G04 #@! TD*
G04 APERTURE END LIST*
D10*
X-73073475Y56576266D03*
D11*
X-75108475Y56576266D03*
X-78658475Y56576266D03*
D12*
X-80693475Y56576266D03*
D10*
X-140843475Y45626266D03*
D11*
X-142878475Y45626266D03*
X-146428475Y45626266D03*
D12*
X-148463475Y45626266D03*
D10*
X-140843475Y37968766D03*
D11*
X-142878475Y37968766D03*
X-146428475Y37968766D03*
D12*
X-148463475Y37968766D03*
D10*
X-142238475Y75400266D03*
D11*
X-144273475Y75400266D03*
X-147823475Y75400266D03*
D12*
X-149858475Y75400266D03*
D10*
X-227563475Y45366266D03*
D11*
X-229598475Y45366266D03*
X-233148475Y45366266D03*
D12*
X-235183475Y45366266D03*
D10*
X-227563475Y50374266D03*
D11*
X-229598475Y50374266D03*
X-233148475Y50374266D03*
D12*
X-235183475Y50374266D03*
D10*
X-140743475Y43086266D03*
D11*
X-142778475Y43086266D03*
X-146328475Y43086266D03*
D12*
X-148363475Y43086266D03*
D10*
X-60958475Y56506266D03*
D11*
X-62993475Y56506266D03*
X-66543475Y56506266D03*
D12*
X-68578475Y56506266D03*
D10*
X-60953475Y53756266D03*
D11*
X-62988475Y53756266D03*
X-66538475Y53756266D03*
D12*
X-68573475Y53756266D03*
D10*
X-216603475Y45266266D03*
D11*
X-218638475Y45266266D03*
X-222188475Y45266266D03*
D12*
X-224223475Y45266266D03*
D10*
X-142213475Y80616266D03*
D11*
X-144248475Y80616266D03*
X-147798475Y80616266D03*
D12*
X-149833475Y80616266D03*
D10*
X-73103475Y48146266D03*
D11*
X-75138475Y48146266D03*
X-78688475Y48146266D03*
D12*
X-80723475Y48146266D03*
D10*
X-216598475Y58346266D03*
D11*
X-218633475Y58346266D03*
X-222183475Y58346266D03*
D12*
X-224218475Y58346266D03*
D10*
X-60953475Y45566266D03*
D11*
X-62988475Y45566266D03*
X-66538475Y45566266D03*
D12*
X-68573475Y45566266D03*
D10*
X-73103475Y45566266D03*
D11*
X-75138475Y45566266D03*
X-78688475Y45566266D03*
D12*
X-80723475Y45566266D03*
D10*
X-227533475Y57916266D03*
D11*
X-229568475Y57916266D03*
X-233118475Y57916266D03*
D12*
X-235153475Y57916266D03*
D10*
X-140783475Y40476266D03*
D11*
X-142818475Y40476266D03*
X-146368475Y40476266D03*
D12*
X-148403475Y40476266D03*
D10*
X-216603475Y55842266D03*
D11*
X-218638475Y55842266D03*
X-222188475Y55842266D03*
D12*
X-224223475Y55842266D03*
D10*
X-216603475Y47910266D03*
D11*
X-218638475Y47910266D03*
X-222188475Y47910266D03*
D12*
X-224223475Y47910266D03*
D10*
X-142153475Y87730266D03*
D11*
X-144188475Y87730266D03*
X-147738475Y87730266D03*
D12*
X-149773475Y87730266D03*
D10*
X-73028475Y59276266D03*
D11*
X-75063475Y59276266D03*
X-78613475Y59276266D03*
D12*
X-80648475Y59276266D03*
D10*
X-227563475Y55382266D03*
D11*
X-229598475Y55382266D03*
X-233148475Y55382266D03*
D12*
X-235183475Y55382266D03*
D10*
X-60878475Y59166266D03*
D11*
X-62913475Y59166266D03*
X-66463475Y59166266D03*
D12*
X-68498475Y59166266D03*
D10*
X-227563475Y52878266D03*
D11*
X-229598475Y52878266D03*
X-233148475Y52878266D03*
D12*
X-235183475Y52878266D03*
D10*
X-60953475Y48296266D03*
D11*
X-62988475Y48296266D03*
X-66538475Y48296266D03*
D12*
X-68573475Y48296266D03*
D10*
X-142143475Y85358933D03*
D11*
X-144178475Y85358933D03*
X-147728475Y85358933D03*
D12*
X-149763475Y85358933D03*
D10*
X-142238475Y77866266D03*
D11*
X-144273475Y77866266D03*
X-147823475Y77866266D03*
D12*
X-149858475Y77866266D03*
D10*
X-140843475Y35416266D03*
D11*
X-142878475Y35416266D03*
X-146428475Y35416266D03*
D12*
X-148463475Y35416266D03*
D10*
X-227473475Y60396266D03*
D11*
X-229508475Y60396266D03*
X-233058475Y60396266D03*
D12*
X-235093475Y60396266D03*
D10*
X-227563475Y47870266D03*
D11*
X-229598475Y47870266D03*
X-233148475Y47870266D03*
D12*
X-235183475Y47870266D03*
D10*
X-73108475Y51016266D03*
D11*
X-75143475Y51016266D03*
X-78693475Y51016266D03*
D12*
X-80728475Y51016266D03*
D10*
X-60953475Y51026266D03*
D11*
X-62988475Y51026266D03*
X-66538475Y51026266D03*
D12*
X-68573475Y51026266D03*
D10*
X-216603475Y50554266D03*
D11*
X-218638475Y50554266D03*
X-222188475Y50554266D03*
D12*
X-224223475Y50554266D03*
D10*
X-73178475Y53906266D03*
D11*
X-75213475Y53906266D03*
X-78763475Y53906266D03*
D12*
X-80798475Y53906266D03*
D10*
X-142213475Y82987600D03*
D11*
X-144248475Y82987600D03*
X-147798475Y82987600D03*
D12*
X-149833475Y82987600D03*
D10*
X-216603475Y53198266D03*
D11*
X-218638475Y53198266D03*
X-222188475Y53198266D03*
D12*
X-224223475Y53198266D03*
D13*
X-154663475Y120626266D03*
X-154663475Y118086266D03*
X-154663475Y115546266D03*
X-154663475Y113006266D03*
X-154663475Y110466266D03*
X-154663475Y107926266D03*
X-154663475Y105386266D03*
X-154663475Y102846266D03*
X-154663475Y100306266D03*
X-152123475Y100306266D03*
X-149583475Y100306266D03*
X-147043475Y100306266D03*
X-144503475Y100306266D03*
X-141963475Y100306266D03*
X-139423475Y100306266D03*
X-139423475Y102846266D03*
X-139423475Y105386266D03*
X-139423475Y107926266D03*
X-139423475Y110466266D03*
X-139423475Y113006266D03*
X-139423475Y115546266D03*
X-139423475Y118086266D03*
X-139423475Y120626266D03*
D14*
X-85303475Y51326266D03*
X-214093475Y74556266D03*
X-144243475Y69666266D03*
X-140843475Y52856266D03*
X-147163475Y51496266D03*
X-101283475Y50836266D03*
X-74223475Y52496266D03*
X-146253475Y60836266D03*
X-83853475Y55486266D03*
X-87683475Y57296266D03*
X-142433475Y51296266D03*
X-138333475Y37968766D03*
X-149043475Y67856266D03*
X-253333475Y101486266D03*
X-210563475Y98576266D03*
X-219693475Y76776266D03*
X-214053475Y78516266D03*
X-191623475Y96606266D03*
X-172563475Y91806266D03*
X-139433475Y93286266D03*
X-117973475Y94096266D03*
X-97453475Y93356266D03*
X-79703475Y99726266D03*
X-191153475Y85406266D03*
X-167863475Y75426266D03*
X-85443475Y55796266D03*
X-110553475Y77386266D03*
X-91793475Y78926266D03*
X-78503475Y78966266D03*
X-67643475Y82296266D03*
X-53613475Y82366266D03*
X-157033475Y47096266D03*
X-179403475Y51746266D03*
X-84283475Y60316266D03*
X-90193475Y60376266D03*
X-84333475Y61486266D03*
X-90213475Y61456266D03*
X-227823475Y81906266D03*
X-58363475Y101546266D03*
X-252723475Y79736266D03*
X-247853475Y64106266D03*
D15*
X-137964795Y79737586D02*
X-134432154Y76204945D01*
X-133553475Y74083625D02*
X-133553475Y72758907D01*
X-122964795Y66907586D02*
X-121072154Y65014945D01*
X-132674795Y70637586D02*
X-130702154Y68664945D01*
X-182654795Y73677586D02*
X-179432154Y70454945D01*
X-227563475Y55382266D02*
X-229598475Y55382266D01*
X-186643475Y74556266D02*
X-184776116Y74556266D01*
X-142213475Y80616266D02*
X-140643475Y80616266D01*
X-120193475Y62893625D02*
X-120193475Y59108907D01*
X-142143475Y85358933D02*
X-144178475Y85358933D01*
X-214093475Y74556266D02*
X-186643475Y74556266D01*
X-227473475Y60396266D02*
X-229508475Y60396266D01*
X-227563475Y52878266D02*
X-229598475Y52878266D01*
X-87947688Y54060479D02*
X-85303475Y51416266D01*
X-177310834Y69576266D02*
X-144333475Y69576266D01*
X-115730834Y54646266D02*
X-89361902Y54646266D01*
X-128580834Y67786266D02*
X-125086116Y67786266D01*
X-73103475Y48146266D02*
X-75138475Y48146266D01*
X-85303475Y51416266D02*
X-85303475Y51326266D01*
X-227533475Y57916266D02*
X-229568475Y57916266D01*
X-142213475Y82987600D02*
X-144248475Y82987600D01*
X-144188475Y87730266D02*
X-142153475Y87730266D01*
X-119314795Y56987586D02*
X-117852154Y55524945D01*
X-144333475Y69576266D02*
X-144243475Y69666266D01*
X-75138475Y45566266D02*
X-73103475Y45566266D01*
X-142213475Y80616266D02*
X-144248475Y80616266D01*
X-140643475Y80616266D02*
X-140086116Y80616266D01*
X-182654795Y73677586D02*
G75*
G03*
X-184776116Y74556266I-2121318J-2121314D01*
G01*
X-133553474Y72758907D02*
G75*
G03*
X-132674794Y70637587I2999993J-3D01*
G01*
X-122964795Y66907586D02*
G75*
G03*
X-125086116Y67786266I-2121318J-2121314D01*
G01*
X-133553475Y74083625D02*
G75*
G03*
X-134432154Y76204945I-2999998J1D01*
G01*
X-179432154Y70454945D02*
G75*
G03*
X-177310834Y69576266I2121319J2121319D01*
G01*
X-130702154Y68664945D02*
G75*
G03*
X-128580834Y67786266I2121319J2121319D01*
G01*
X-137964795Y79737586D02*
G75*
G03*
X-140086116Y80616266I-2121318J-2121314D01*
G01*
X-87947688Y54060479D02*
G75*
G03*
X-89361902Y54646266I-1414214J-1414213D01*
G01*
X-117852154Y55524945D02*
G75*
G03*
X-115730834Y54646266I2121319J2121319D01*
G01*
X-120193475Y62893625D02*
G75*
G03*
X-121072154Y65014945I-2999998J1D01*
G01*
X-120193474Y59108907D02*
G75*
G03*
X-119314794Y56987587I2999993J-3D01*
G01*
X-73178475Y53906266D02*
X-75213475Y53906266D01*
X-216603475Y55842266D02*
X-218638475Y55842266D01*
X-142238475Y75400266D02*
X-144273475Y75400266D01*
X-73108475Y51016266D02*
X-72383475Y51016266D01*
X-142238475Y75400266D02*
X-142238475Y56149693D01*
X-73028475Y59276266D02*
X-75063475Y59276266D01*
X-73001902Y44016266D02*
X-81455048Y44016266D01*
X-82869262Y44602053D02*
X-83557689Y45290480D01*
X-225893475Y53436266D02*
X-224743475Y54586266D01*
X-140843475Y52856266D02*
X-140843475Y45626266D01*
X-84143475Y46704693D02*
X-84143475Y46957839D01*
X-216598475Y58346266D02*
X-197240329Y58346266D01*
X-107760329Y48656266D02*
X-136156621Y48656266D01*
X-84729262Y48372053D02*
X-88961423Y52604214D01*
X-90375636Y53190000D02*
X-100741313Y53190000D01*
X-71429262Y44760479D02*
X-71587689Y44602052D01*
X-227563475Y50374266D02*
X-229598475Y50374266D01*
X-140843475Y53097839D02*
X-140843475Y52856266D01*
X-70843475Y48647839D02*
X-70843475Y46174693D01*
X-189336621Y53756266D02*
X-155071902Y53756266D01*
X-227563475Y50396266D02*
X-225893475Y52066266D01*
X-142878475Y45626266D02*
X-140843475Y45626266D01*
X-75143475Y51016266D02*
X-73108475Y51016266D01*
X-225893475Y52066266D02*
X-225893475Y53436266D01*
X-102155527Y52604213D02*
X-104931901Y49827839D01*
X-104931901Y49827839D02*
X-104931902Y49827839D01*
X-224743475Y54586266D02*
X-217859475Y54586266D01*
X-218633475Y58346266D02*
X-216598475Y58346266D01*
X-72383475Y51016266D02*
X-71429261Y50062052D01*
X-142238475Y77866266D02*
X-144273475Y77866266D01*
X-141652688Y54735479D02*
X-141429261Y54512052D01*
X-227563475Y50374266D02*
X-227563475Y50396266D01*
X-138985048Y47484693D02*
X-140843475Y45626266D01*
X-194411902Y57174693D02*
X-192165048Y54927839D01*
X-153657688Y53170479D02*
X-152569261Y52082052D01*
X-217859475Y54586266D02*
X-216603475Y55842266D01*
X-151155048Y51496266D02*
X-147163475Y51496266D01*
X-73073475Y56576266D02*
X-75108475Y56576266D01*
X-194411902Y57174693D02*
G75*
G03*
X-197240329Y58346266I-2828427J-2828426D01*
G01*
X-84143476Y46957839D02*
G75*
G03*
X-84729263Y48372052I-1999999J0D01*
G01*
X-71429262Y44760479D02*
G75*
G03*
X-70843475Y46174693I-1414213J1414214D01*
G01*
X-84143474Y46704693D02*
G75*
G03*
X-83557688Y45290481I1999999J0D01*
G01*
X-107760329Y48656266D02*
G75*
G03*
X-104931902Y49827839I0J3999999D01*
G01*
X-82869262Y44602053D02*
G75*
G03*
X-81455048Y44016266I1414214J1414213D01*
G01*
X-136156621Y48656266D02*
G75*
G03*
X-138985048Y47484693I0J-3999999D01*
G01*
X-152569261Y52082052D02*
G75*
G03*
X-151155048Y51496266I1414213J1414214D01*
G01*
X-140843476Y53097839D02*
G75*
G03*
X-141429262Y54512051I-1999999J0D01*
G01*
X-100741313Y53189999D02*
G75*
G03*
X-102155526Y52604212I0J-1999999D01*
G01*
X-153657688Y53170479D02*
G75*
G03*
X-155071902Y53756266I-1414214J-1414213D01*
G01*
X-192165048Y54927839D02*
G75*
G03*
X-189336621Y53756266I2828427J2828426D01*
G01*
X-142238474Y56149693D02*
G75*
G03*
X-141652687Y54735480I1999999J0D01*
G01*
X-70843476Y48647839D02*
G75*
G03*
X-71429262Y50062051I-1999999J0D01*
G01*
X-73001902Y44016267D02*
G75*
G03*
X-71587690Y44602053I0J1999999D01*
G01*
X-88961423Y52604214D02*
G75*
G03*
X-90375636Y53190000I-1414213J-1414214D01*
G01*
X-145374795Y50697586D02*
X-144972154Y50294945D01*
X-156824543Y50047334D02*
X-154022407Y47245198D01*
X-204766621Y52976266D02*
X-163895611Y52976266D01*
X-144093475Y48173625D02*
X-144093475Y44316266D01*
X-60878475Y59166266D02*
X-62913475Y59166266D01*
X-216603475Y50554266D02*
X-210502329Y50554266D01*
X-60958475Y56506266D02*
X-62993475Y56506266D01*
X-146951339Y44316266D02*
X-144093475Y44316266D01*
X-144093475Y44316266D02*
X-142387689Y44316266D01*
X-140743475Y43086266D02*
X-142778475Y43086266D01*
X-105236116Y48196266D02*
X-134390834Y48196266D01*
X-101353475Y50836266D02*
X-103114795Y49074946D01*
X-146253475Y60836266D02*
X-146253475Y52818907D01*
X-216603475Y53198266D02*
X-218638475Y53198266D01*
X-101283475Y50836266D02*
X-101353475Y50836266D01*
X-140843475Y35416266D02*
X-142878475Y35416266D01*
X-62213475Y52496266D02*
X-60953475Y53756266D01*
X-136512155Y47317586D02*
X-140743475Y43086266D01*
X-85370582Y57003373D02*
X-83853475Y55486266D01*
X-74223475Y52496266D02*
X-62213475Y52496266D01*
X-140783475Y40476266D02*
X-142818475Y40476266D01*
X-207673902Y51725839D02*
X-207595048Y51804693D01*
X-227563475Y47870266D02*
X-229598475Y47870266D01*
X-141680582Y44023373D02*
X-140743475Y43086266D01*
X-87683475Y57296266D02*
X-86077689Y57296266D01*
X-60953475Y51026266D02*
X-62988475Y51026266D01*
X-218638475Y50554266D02*
X-216603475Y50554266D01*
X-60953475Y53756266D02*
X-62988475Y53756266D01*
X-146253475Y52818907D02*
G75*
G03*
X-145374795Y50697586I3000005J2D01*
G01*
X-210502329Y50554266D02*
G75*
G03*
X-207673902Y51725839I0J3999999D01*
G01*
X-204766621Y52976266D02*
G75*
G03*
X-207595048Y51804693I0J-3999999D01*
G01*
X-154022407Y47245198D02*
G75*
G03*
X-146951339Y44316266I7071066J7071064D01*
G01*
X-85370582Y57003373D02*
G75*
G03*
X-86077689Y57296266I-707104J-707101D01*
G01*
X-134390834Y48196266D02*
G75*
G03*
X-136512155Y47317586I2J-3000005D01*
G01*
X-141680582Y44023373D02*
G75*
G03*
X-142387689Y44316266I-707104J-707101D01*
G01*
X-156824543Y50047334D02*
G75*
G03*
X-163895611Y52976266I-7071070J-7071075D01*
G01*
X-144093475Y48173625D02*
G75*
G03*
X-144972154Y50294945I-2999998J1D01*
G01*
X-105236116Y48196267D02*
G75*
G03*
X-103114796Y49074947I3J2999993D01*
G01*
X-217626975Y46289766D02*
X-216603475Y45266266D01*
X-144163475Y59993625D02*
X-144163475Y54398907D01*
X-88396296Y43006266D02*
X-65584543Y43006266D01*
X-175419834Y36945266D02*
X-142281189Y36945266D01*
X-149043475Y67856266D02*
X-149043475Y67358907D01*
X-143284795Y52277586D02*
X-142433475Y51426266D01*
X-142433475Y51426266D02*
X-142433475Y51296266D01*
X-180164795Y40447586D02*
X-177541154Y37823945D01*
X-62049009Y44470732D02*
X-60953475Y45566266D01*
X-60953475Y48296266D02*
X-62988475Y48296266D01*
X-142878475Y37968766D02*
X-140843475Y37968766D01*
X-210248795Y47031586D02*
X-205422154Y42204945D01*
X-227563475Y45366266D02*
X-226639975Y46289766D01*
X-140843475Y37968766D02*
X-138333475Y37968766D01*
X-141574082Y37238159D02*
X-140843475Y37968766D01*
X-203300834Y41326266D02*
X-182286116Y41326266D01*
X-94161717Y39726126D02*
X-92638936Y41248907D01*
X-148164795Y65237586D02*
X-145042154Y62114945D01*
X-60953475Y45566266D02*
X-62988475Y45566266D01*
X-227563475Y45366266D02*
X-229598475Y45366266D01*
X-216603475Y47910266D02*
X-212370116Y47910266D01*
X-226639975Y46289766D02*
X-217626975Y46289766D01*
X-138333475Y37968766D02*
X-98404358Y37968766D01*
X-218638475Y45266266D02*
X-216603475Y45266266D01*
X-216603475Y47910266D02*
X-218638475Y47910266D01*
X-144163475Y59993625D02*
G75*
G03*
X-145042154Y62114945I-2999998J1D01*
G01*
X-65584543Y43006266D02*
G75*
G03*
X-62049009Y44470732I1J4999998D01*
G01*
X-205422154Y42204945D02*
G75*
G03*
X-203300834Y41326266I2121319J2121319D01*
G01*
X-144163475Y54398907D02*
G75*
G03*
X-143284795Y52277586I3000005J2D01*
G01*
X-149043474Y67358907D02*
G75*
G03*
X-148164794Y65237587I2999993J-3D01*
G01*
X-180164795Y40447586D02*
G75*
G03*
X-182286116Y41326266I-2121323J-2121325D01*
G01*
X-177541154Y37823945D02*
G75*
G03*
X-175419834Y36945266I2121319J2121319D01*
G01*
X-142281189Y36945267D02*
G75*
G03*
X-141574083Y37238160I1J999998D01*
G01*
X-98404358Y37968766D02*
G75*
G03*
X-94161717Y39726126I0J5999999D01*
G01*
X-88396296Y43006266D02*
G75*
G03*
X-92638936Y41248907I2J-6000003D01*
G01*
X-210248795Y47031586D02*
G75*
G03*
X-212370116Y47910266I-2121323J-2121325D01*
G01*
X-237753475Y55912052D02*
X-237753475Y55862480D01*
X-235183475Y52878266D02*
X-233148475Y52878266D01*
X-251503475Y83713625D02*
X-251503475Y74218402D01*
X-253333475Y101486266D02*
X-253333475Y88028907D01*
X-252454795Y85907586D02*
X-252382154Y85834945D01*
X-237460582Y55155373D02*
X-235183475Y52878266D01*
X-248574543Y67147334D02*
X-238046368Y56619159D01*
X-253333474Y88028907D02*
G75*
G03*
X-252454794Y85907587I2999993J-3D01*
G01*
X-251503474Y74218402D02*
G75*
G03*
X-248574543Y67147334I10000006J2D01*
G01*
X-237753474Y55862480D02*
G75*
G03*
X-237460581Y55155374I999998J-1D01*
G01*
X-251503475Y83713625D02*
G75*
G03*
X-252382154Y85834945I-2999998J1D01*
G01*
X-237753476Y55912052D02*
G75*
G03*
X-238046369Y56619158I-999993J3D01*
G01*
X-235183475Y55382266D02*
X-233148475Y55382266D01*
X-213323475Y83146266D02*
X-212027941Y84441800D01*
X-219693475Y76776266D02*
X-213323475Y83146266D01*
X-235093475Y60396266D02*
X-233058475Y60396266D01*
X-210563475Y87977334D02*
X-210563475Y98576266D01*
X-212027941Y84441800D02*
G75*
G03*
X-210563475Y87977334I-3535532J3535533D01*
G01*
X-194639009Y79980732D02*
X-194287941Y80331800D01*
X-192530582Y92759159D02*
X-191916368Y93373373D01*
X-191623475Y94080480D02*
X-191623475Y96606266D01*
X-235153475Y57916266D02*
X-233118475Y57916266D01*
X-214053475Y78516266D02*
X-198174543Y78516266D01*
X-192823475Y83867334D02*
X-192823475Y92052052D01*
X-192530582Y92759159D02*
G75*
G03*
X-192823475Y92052052I707101J-707104D01*
G01*
X-194287941Y80331800D02*
G75*
G03*
X-192823475Y83867334I-3535532J3535533D01*
G01*
X-191916368Y93373373D02*
G75*
G03*
X-191623475Y94080480I-707106J707106D01*
G01*
X-198174543Y78516266D02*
G75*
G03*
X-194639009Y79980732I1J4999998D01*
G01*
X-163545611Y88916266D02*
X-168016621Y88916266D01*
X-149833475Y80616266D02*
X-150689261Y80616266D01*
X-151396368Y80909159D02*
X-156474543Y85987334D01*
X-170845048Y90087839D02*
X-172563475Y91806266D01*
X-149833475Y80616266D02*
X-147798475Y80616266D01*
X-170845048Y90087839D02*
G75*
G03*
X-168016621Y88916266I2828427J2828426D01*
G01*
X-151396368Y80909159D02*
G75*
G03*
X-150689261Y80616266I707104J707101D01*
G01*
X-156474543Y85987334D02*
G75*
G03*
X-163545611Y88916266I-7071070J-7071075D01*
G01*
X-149833475Y82987600D02*
X-147798475Y82987600D01*
X-151430582Y89279159D02*
X-149386368Y91323373D01*
X-148679261Y91616266D02*
X-142760329Y91616266D01*
X-139931902Y92787839D02*
X-139433475Y93286266D01*
X-149833475Y82987600D02*
X-151430582Y84584707D01*
X-151723475Y85291814D02*
X-151723475Y88572052D01*
X-148679261Y91616265D02*
G75*
G03*
X-149386367Y91323372I-3J-999993D01*
G01*
X-142760329Y91616266D02*
G75*
G03*
X-139931902Y92787839I0J3999999D01*
G01*
X-151723474Y85291814D02*
G75*
G03*
X-151430581Y84584708I999993J-3D01*
G01*
X-151430582Y89279159D02*
G75*
G03*
X-151723475Y88572052I707101J-707104D01*
G01*
X-150840582Y88859159D02*
X-149546368Y90153373D01*
X-148839261Y90446266D02*
X-123290329Y90446266D01*
X-117983475Y94096266D02*
X-117973475Y94096266D01*
X-149763475Y85358933D02*
X-150840582Y86436040D01*
X-151133475Y87143147D02*
X-151133475Y88152052D01*
X-147728475Y85358933D02*
X-149763475Y85358933D01*
X-120461902Y91617839D02*
X-117983475Y94096266D01*
X-148839261Y90446265D02*
G75*
G03*
X-149546367Y90153372I-1J-999998D01*
G01*
X-123290329Y90446266D02*
G75*
G03*
X-120461902Y91617839I0J3999999D01*
G01*
X-151133474Y87143147D02*
G75*
G03*
X-150840581Y86436041I999993J-3D01*
G01*
X-150840582Y88859159D02*
G75*
G03*
X-151133475Y88152052I707106J-707106D01*
G01*
X-97453475Y93356266D02*
X-100281902Y90527839D01*
X-103110329Y89356266D02*
X-147733261Y89356266D01*
X-148440368Y89063373D02*
X-149773475Y87730266D01*
X-149773475Y87730266D02*
X-147738475Y87730266D01*
X-103110329Y89356266D02*
G75*
G03*
X-100281902Y90527839I0J3999999D01*
G01*
X-147733261Y89356265D02*
G75*
G03*
X-148440367Y89063372I-1J-999998D01*
G01*
X-79613475Y99726266D02*
X-79703475Y99726266D01*
X-80723475Y45566266D02*
X-78688475Y45566266D01*
X-80723475Y45566266D02*
X-81393296Y46236087D01*
X-81393295Y73746446D02*
X-78657154Y76482587D01*
X-77778475Y78603907D02*
X-77778475Y97891266D01*
X-82271975Y48357407D02*
X-82271975Y71625125D01*
X-77778475Y97891266D02*
X-79613475Y99726266D01*
X-78657154Y76482587D02*
G75*
G03*
X-77778475Y78603907I-2121319J2121319D01*
G01*
X-81393295Y73746446D02*
G75*
G03*
X-82271975Y71625125I2121325J-2121323D01*
G01*
X-82271975Y48357407D02*
G75*
G03*
X-81393296Y46236087I2999998J-1D01*
G01*
X-224223475Y55842266D02*
X-222188475Y55842266D01*
X-149858475Y77866266D02*
X-147823475Y77866266D01*
X-189166368Y89313373D02*
X-190860582Y87619159D01*
X-172262155Y87604946D02*
X-173384796Y88727587D01*
X-149858475Y77866266D02*
X-157839796Y85847587D01*
X-191153475Y86912052D02*
X-191153475Y85406266D01*
X-159961116Y86726266D02*
X-170140834Y86726266D01*
X-175506116Y89606266D02*
X-188343475Y89606266D01*
X-188343475Y89606266D02*
X-188459261Y89606266D01*
X-190860582Y87619159D02*
G75*
G03*
X-191153475Y86912052I707106J-707106D01*
G01*
X-188459261Y89606265D02*
G75*
G03*
X-189166367Y89313372I-1J-999998D01*
G01*
X-172262155Y87604946D02*
G75*
G03*
X-170140834Y86726266I2121318J2121314D01*
G01*
X-173384796Y88727587D02*
G75*
G03*
X-175506116Y89606266I-2121319J-2121319D01*
G01*
X-157839796Y85847587D02*
G75*
G03*
X-159961116Y86726266I-2121319J-2121319D01*
G01*
X-167837475Y75400266D02*
X-167863475Y75426266D01*
X-149858475Y75400266D02*
X-147823475Y75400266D01*
X-149858475Y75400266D02*
X-167837475Y75400266D01*
X-148463475Y45626266D02*
X-146428475Y45626266D01*
X-80728475Y51016266D02*
X-78693475Y51016266D01*
X-101753475Y60298907D02*
X-101753475Y66943625D01*
X-85443475Y55796266D02*
X-90093475Y55796266D01*
X-90303475Y55886266D02*
X-97340834Y55886266D01*
X-90213475Y55796266D02*
X-90303475Y55886266D01*
X-99462155Y56764946D02*
X-100874796Y58177587D01*
X-90093475Y55796266D02*
X-90213475Y55796266D01*
X-110553475Y76986266D02*
X-110553475Y77386266D01*
X-102632155Y69064946D02*
X-110553475Y76986266D01*
X-101753476Y66943625D02*
G75*
G03*
X-102632156Y69064945I-2999993J3D01*
G01*
X-99462155Y56764946D02*
G75*
G03*
X-97340834Y55886266I2121323J2121325D01*
G01*
X-101753475Y60298907D02*
G75*
G03*
X-100874796Y58177587I2999998J-1D01*
G01*
X-78503475Y78966266D02*
X-91753475Y78966266D01*
X-91753475Y78966266D02*
X-91793475Y78926266D01*
X-78763475Y53906266D02*
X-80798475Y53906266D01*
X-80693475Y56576266D02*
X-78658475Y56576266D01*
X-53683475Y82296266D02*
X-53613475Y82366266D01*
X-67643475Y82296266D02*
X-53683475Y82296266D01*
X-80648475Y59276266D02*
X-78613475Y59276266D01*
X-222188475Y53198266D02*
X-224223475Y53198266D01*
X-224223475Y50554266D02*
X-222188475Y50554266D01*
X-146368475Y40476266D02*
X-148403475Y40476266D01*
X-179143475Y51486266D02*
X-179403475Y51746266D01*
X-162666116Y51486266D02*
X-179143475Y51486266D01*
X-157033475Y47096266D02*
X-160544796Y50607587D01*
X-160544796Y50607587D02*
G75*
G03*
X-162666116Y51486266I-2121319J-2121319D01*
G01*
X-148363475Y43086266D02*
X-146328475Y43086266D01*
X-146428475Y35416266D02*
X-148463475Y35416266D01*
X-68573475Y51026266D02*
X-66538475Y51026266D01*
X-84283475Y60316266D02*
X-90133475Y60316266D01*
X-90133475Y60316266D02*
X-90193475Y60376266D01*
X-84333475Y61486266D02*
X-90183475Y61486266D01*
X-68573475Y53756266D02*
X-66538475Y53756266D01*
X-90183475Y61486266D02*
X-90213475Y61456266D01*
X-68578475Y56506266D02*
X-66543475Y56506266D01*
X-235183475Y45366266D02*
X-233148475Y45366266D01*
X-68573475Y48296266D02*
X-66538475Y48296266D01*
X-225682941Y77115732D02*
X-226359009Y77791800D01*
X-224218475Y58346266D02*
X-222183475Y58346266D01*
X-224218475Y58346266D02*
X-224218475Y73580198D01*
X-227823475Y81327334D02*
X-227823475Y81906266D01*
X-227823475Y81327334D02*
G75*
G03*
X-226359009Y77791800I4999998J-1D01*
G01*
X-224218475Y73580198D02*
G75*
G03*
X-225682941Y77115732I-4999998J1D01*
G01*
X-68573475Y45566266D02*
X-66538475Y45566266D01*
X-58363475Y88258907D02*
X-58363475Y101546266D01*
X-61479795Y83899946D02*
X-59242154Y86137587D01*
X-80723475Y48146266D02*
X-80943296Y48366087D01*
X-80943295Y73346446D02*
X-72147154Y82142587D01*
X-81821975Y50487407D02*
X-81821975Y71225125D01*
X-78688475Y48146266D02*
X-80723475Y48146266D01*
X-70025834Y83021266D02*
X-63601116Y83021266D01*
X-59242154Y86137587D02*
G75*
G03*
X-58363475Y88258907I-2121319J2121319D01*
G01*
X-70025834Y83021266D02*
G75*
G03*
X-72147154Y82142587I-1J-2999998D01*
G01*
X-81821975Y50487407D02*
G75*
G03*
X-80943296Y48366087I2999998J-1D01*
G01*
X-63601116Y83021266D02*
G75*
G03*
X-61479795Y83899946I-2J3000005D01*
G01*
X-80943295Y73346446D02*
G75*
G03*
X-81821975Y71225125I2121325J-2121323D01*
G01*
X-238713475Y54982052D02*
X-238713475Y54300480D01*
X-252723475Y79736266D02*
X-252723475Y74248402D01*
X-246277028Y62959819D02*
X-239006368Y55689159D01*
X-246423475Y63599159D02*
X-246423475Y63313373D01*
X-249794543Y67177334D02*
X-246569921Y63952712D01*
X-235183475Y50374266D02*
X-233148475Y50374266D01*
X-236206975Y51397766D02*
X-235183475Y50374266D01*
X-236224975Y51397766D02*
X-236206975Y51397766D01*
X-238420582Y53593373D02*
X-236224975Y51397766D01*
X-246423476Y63599159D02*
G75*
G03*
X-246569921Y63952712I-500001J0D01*
G01*
X-238713476Y54982052D02*
G75*
G03*
X-239006369Y55689158I-999998J1D01*
G01*
X-238713474Y54300480D02*
G75*
G03*
X-238420581Y53593374I999993J-3D01*
G01*
X-252723475Y74248402D02*
G75*
G03*
X-249794543Y67177334I9999996J-2D01*
G01*
X-246423475Y63313373D02*
G75*
G03*
X-246277028Y62959819I499997J-1D01*
G01*
X-224223475Y45266266D02*
X-222188475Y45266266D01*
X-68498475Y59166266D02*
X-66463475Y59166266D01*
X-235183475Y47870266D02*
X-236643261Y47870266D01*
X-237350368Y48163159D02*
X-239240582Y50053373D01*
X-239533475Y50760480D02*
X-239533475Y54262052D01*
X-235183475Y47870266D02*
X-233148475Y47870266D01*
X-239826368Y54969159D02*
X-247560582Y62703373D01*
X-247853475Y63410480D02*
X-247853475Y64106266D01*
X-239533474Y50760480D02*
G75*
G03*
X-239240581Y50053374I999998J-1D01*
G01*
X-237350368Y48163159D02*
G75*
G03*
X-236643261Y47870266I707106J707106D01*
G01*
X-247853474Y63410480D02*
G75*
G03*
X-247560581Y62703374I999993J-3D01*
G01*
X-239533476Y54262052D02*
G75*
G03*
X-239826369Y54969158I-999998J1D01*
G01*
X-224223475Y47910266D02*
X-222188475Y47910266D01*
X-148463475Y37968766D02*
X-146428475Y37968766D01*
M02*
